<?xml version="1.0" standalone="no"?><!DOCTYPE svg PUBLIC "-//W3C//DTD SVG 1.1//EN" "http://www.w3.org/Graphics/SVG/1.1/DTD/svg11.dtd"><svg height="1024" node-id="1" sillyvg="true" template-height="1024" template-width="1024" version="1.1" viewBox="0 0 1024 1024" width="1024" xmlns="http://www.w3.org/2000/svg" xmlns:xlink="http://www.w3.org/1999/xlink"><defs node-id="112"><clipPath id="mask-2" node-id="15"><path d="M 248.03 191.47 L 248.13 203.25 L 248.63 211.45 L 249.36 216.88 L 250.22 220.25 L 251.41 222.81 L 253.04 224.93 L 255.13 226.67 L 257.77 228.04 L 261.06 229.04 L 261.14 232.56 L 260.74 235.60 L 259.91 238.24 L 258.66 240.55 L 256.99 242.58 L 254.84 244.36 L 252.15 245.89 L 248.81 247.15 L 244.70 248.11 L 239.70 248.70 L 233.65 248.83 L 226.38 248.43 L 220.88 247.74 L 216.25 246.83 L 212.38 245.74 L 209.18 244.51 L 205.96 242.83 L 203.57 241.11 L 201.87 239.36 L 200.73 237.56 L 200.05 235.54 L 199.95 233.50 L 200.42 231.36 L 201.57 229.04 L 202.19 228.48 L 203.58 227.65 L 205.18 226.64 L 207.37 224.92 L 209.53 222.71 L 212.09 219.20 L 213.10 216.97 L 214.16 212.92 L 215.18 206.24 L 216.07 195.99 L 216.70 181.04 L 216.92 160.16 L 248.03 191.47 Z" fill="#000000" fill-rule="evenodd" node-id="117" stroke="none" target-height="88.67" target-width="61.190018" target-x="199.95" target-y="160.16"></path></clipPath><clipPath id="mask-4" node-id="43"><path d="M 0.00 6.99 L 1.61 438.35 C 2.68 438.35 13.83 438.48 35.05 438.73 C 56.28 438.97 65.12 438.85 61.59 438.35 C 66.58 363.42 68.98 298.20 68.80 242.70 C 68.71 216.05 70.88 165.58 75.30 91.30 C 79.62 163.39 82.11 213.85 82.77 242.70 C 83.95 293.59 86.85 358.97 91.49 438.85 L 154.07 438.35 C 149.67 141.77 144.02 -4.32 137.12 0.10 C 132.38 3.12 110.78 9.94 70.08 9.66 C 42.95 9.47 19.59 8.58 0.00 6.99 Z" fill="#000000" fill-rule="evenodd" node-id="124" stroke="none" target-height="443.29" target-width="154.07" target-x="0" target-y="-4.32"></path></clipPath><clipPath id="mask-6" node-id="75"><path d="M 513.86 252.00 L 796.14 252.00 L 799.37 252.23 L 802.42 252.85 L 805.30 253.85 L 808.03 255.22 L 810.52 256.90 L 812.78 258.89 L 814.77 261.15 L 816.45 263.64 L 817.82 266.37 L 818.83 269.25 L 819.44 272.30 L 819.67 275.53 L 819.67 816.42 L 819.44 819.65 L 818.83 822.70 L 817.82 825.58 L 816.45 828.31 L 814.77 830.80 L 812.78 833.06 L 810.52 835.05 L 808.03 836.72 L 805.30 838.10 L 802.42 839.10 L 799.37 839.72 L 796.14 839.95 L 513.86 839.95 L 510.63 839.72 L 507.58 839.10 L 504.70 838.10 L 501.97 836.72 L 499.48 835.05 L 497.22 833.06 L 495.23 830.80 L 493.55 828.31 L 492.18 825.58 L 491.17 822.70 L 490.56 819.65 L 490.33 816.42 L 490.33 275.53 L 490.56 272.30 L 491.17 269.25 L 492.18 266.37 L 493.55 263.64 L 495.23 261.15 L 497.22 258.89 L 499.48 256.90 L 501.97 255.22 L 504.70 253.85 L 507.58 252.85 L 510.63 252.23 L 513.86 252.00 Z" fill="#000000" fill-rule="evenodd" node-id="131" stroke="none" target-height="587.95" target-width="329.34" target-x="490.33" target-y="252"></path></clipPath><clipPath id="mask-4_3" node-id="43"><path d="M 163.21 443.90 L 164.82 875.26 L 198.26 875.63 L 219.42 875.74 L 225.00 875.58 L 225.56 875.45 L 224.80 875.26 L 227.63 828.91 L 229.70 786.39 L 231.09 747.47 L 231.84 711.95 L 232.01 679.61 L 232.24 660.35 L 233.20 630.83 L 235.18 587.96 L 238.51 528.20 L 242.67 601.48 L 244.98 649.81 L 245.98 679.61 L 247.07 716.90 L 248.81 761.44 L 251.32 814.08 L 254.70 875.76 L 317.28 875.26 L 315.02 741.49 L 312.78 640.94 L 310.63 567.60 L 308.60 516.06 L 306.73 481.50 L 305.07 459.70 L 303.63 447.06 L 302.45 440.57 L 301.54 437.80 L 300.88 436.97 L 300.33 437.00 L 298.61 437.94 L 295.37 439.20 L 289.89 440.89 L 284.41 442.22 L 277.14 443.56 L 267.71 444.89 L 258.28 445.79 L 246.89 446.38 L 233.29 446.57 L 206.11 446.11 L 182.89 445.19 L 163.21 443.90 Z" fill="#000000" fill-rule="evenodd" node-id="124" stroke="none" target-height="438.79" target-width="154.06999" target-x="163.21" target-y="436.97"></path></clipPath><clipPath id="mask-4_4" node-id="43"><path d="M 163.21 443.90 L 164.82 875.26 L 198.26 875.63 L 219.42 875.74 L 225.00 875.58 L 225.56 875.45 L 224.80 875.26 L 227.63 828.91 L 229.70 786.39 L 231.09 747.47 L 231.84 711.95 L 232.01 679.61 L 232.24 660.35 L 233.20 630.83 L 235.18 587.96 L 238.51 528.20 L 242.67 601.48 L 244.98 649.81 L 245.98 679.61 L 247.07 716.90 L 248.81 761.44 L 251.32 814.08 L 254.70 875.76 L 317.28 875.26 L 315.02 741.49 L 312.78 640.94 L 310.63 567.60 L 308.60 516.06 L 306.73 481.50 L 305.07 459.70 L 303.63 447.06 L 302.45 440.57 L 301.54 437.80 L 300.88 436.97 L 300.33 437.00 L 298.61 437.94 L 295.37 439.20 L 289.89 440.89 L 284.41 442.22 L 277.14 443.56 L 267.71 444.89 L 258.28 445.79 L 246.89 446.38 L 233.29 446.57 L 206.11 446.11 L 182.89 445.19 L 163.21 443.90 Z" fill="#000000" fill-rule="evenodd" node-id="124" stroke="none" target-height="438.79" target-width="154.06999" target-x="163.21" target-y="436.97"></path></clipPath></defs><g node-id="291"><path d="M 0.00 0.00 L 1024.00 0.00 L 1024.00 1024.00 L 0.00 1024.00 Z" fill="#f15454" fill-opacity="0" fill-rule="evenodd" group-id="1" id="矩形备份" node-id="9" stroke="none" target-height="1024" target-width="1024" target-x="0" target-y="0"></path></g><path d="M 119.77 251.74 C -22.68 446.64 174.42 577.96 87.09 624.21 C -0.24 670.47 87.09 818.87 199.55 889.07 C 312.02 959.27 609.24 1058.40 811.11 833.94 C 1012.98 609.48 1028.65 346.73 844.31 155.98 C 659.97 -34.77 262.22 56.83 119.77 251.74 Z" fill="#f2f8fd" fill-rule="evenodd" id="路径-72" node-id="10" stroke="none" target-height="1093.17" target-width="1051.3301" target-x="-22.68" target-y="-34.77"></path><path d="M 248.03 191.47 L 248.13 203.25 L 248.63 211.45 L 249.36 216.88 L 250.22 220.25 L 251.41 222.81 L 253.04 224.93 L 255.13 226.67 L 257.77 228.04 L 261.06 229.04 L 261.14 232.56 L 260.74 235.60 L 259.91 238.24 L 258.66 240.55 L 256.99 242.58 L 254.84 244.36 L 252.15 245.89 L 248.81 247.15 L 244.70 248.11 L 239.70 248.70 L 233.65 248.83 L 226.38 248.43 L 220.88 247.74 L 216.25 246.83 L 212.38 245.74 L 209.18 244.51 L 205.96 242.83 L 203.57 241.11 L 201.87 239.36 L 200.73 237.56 L 200.05 235.54 L 199.95 233.50 L 200.42 231.36 L 201.57 229.04 L 202.19 228.48 L 203.58 227.65 L 205.18 226.64 L 207.37 224.92 L 209.53 222.71 L 212.09 219.20 L 213.10 216.97 L 214.16 212.92 L 215.18 206.24 L 216.07 195.99 L 216.70 181.04 L 216.92 160.16 L 248.03 191.47 Z" fill="#ffbe9c" fill-rule="evenodd" group-id="2,4,8,19,37" node-id="147" stroke="none" target-height="88.67" target-width="61.190018" target-x="199.95" target-y="160.16"></path><g clip-path="url(#mask-2)" group-id="2,4,8,19,38" node-id="150"><path d="M 249.87 210.60 L 215.81 195.49 L 256.98 196.64 Z" fill="#e28453" fill-rule="evenodd" group-id="2,4,8,19,38" id="路径-50" node-id="18" stroke="none" target-height="15.110001" target-width="41.170013" target-x="215.81" target-y="195.49"></path></g><path d="M 271.32 119.76 L 272.68 132.48 L 273.33 143.61 L 273.36 153.30 L 272.86 161.71 L 271.90 168.95 L 270.54 175.18 L 268.83 180.50 L 266.83 185.02 L 264.55 188.85 L 262.02 192.06 L 259.23 194.72 L 256.16 196.88 L 252.79 198.57 L 249.07 199.81 L 244.95 200.58 L 240.36 200.84 L 235.23 200.54 L 229.49 199.61 L 223.04 197.96 L 215.81 195.49 L 213.09 194.07 L 210.80 192.17 L 208.88 189.75 L 207.35 187.01 L 206.07 183.89 L 205.05 180.35 L 203.99 174.86 L 203.31 168.96 L 202.63 157.21 L 202.00 146.76 L 201.34 142.33 L 200.39 139.27 L 199.00 135.85 L 198.28 133.40 L 198.04 131.69 L 198.19 130.04 L 198.75 128.77 L 199.72 127.78 L 201.75 126.58 L 204.95 125.30 L 208.55 123.98 L 213.24 122.03 L 216.41 120.49 L 220.02 118.41 L 224.13 115.71 L 226.02 114.67 L 228.61 113.87 L 232.08 113.37 L 236.65 113.27 L 242.57 113.70 L 250.12 114.81 L 259.60 116.77 L 271.32 119.76 Z" fill="#ffbe9c" fill-rule="evenodd" group-id="2,4,8,20" id="路径-31备份" node-id="19" stroke="none" target-height="87.57" target-width="75.31999" target-x="198.04" target-y="113.27"></path><path d="M 252.28 173.43 L 231.44 173.82 L 232.07 177.50 L 233.00 180.35 L 234.16 182.54 L 235.54 184.18 L 237.12 185.37 L 238.96 186.15 L 241.12 186.53 L 243.23 186.43 L 245.10 185.85 L 246.81 184.78 L 248.38 183.15 L 249.84 180.84 L 251.16 177.67 L 252.28 173.43 Z" fill="#ffffff" fill-rule="evenodd" group-id="2,4,8,21" id="路径-60备份-5" node-id="20" stroke="none" target-height="13.100006" target-width="20.839996" target-x="231.44" target-y="173.43"></path><path d="M 272.87 148.06 L 274.41 142.73 L 275.27 138.61 L 276.11 133.16 L 276.65 127.33 L 276.81 120.62 L 276.61 117.05 L 276.12 113.18 L 275.37 109.34 L 274.40 105.73 L 273.17 102.35 L 271.85 99.70 L 270.76 98.14 L 269.70 97.12 L 268.66 96.52 L 260.79 93.92 L 249.69 90.89 L 243.51 89.49 L 237.15 88.30 L 230.80 87.43 L 224.95 87.02 L 221.09 87.05 L 217.75 87.37 L 214.88 87.95 L 212.17 88.94 L 210.17 90.28 L 208.72 91.94 L 205.82 97.07 L 203.89 101.37 L 202.76 104.95 L 202.27 107.95 L 202.30 110.47 L 198.19 110.73 L 194.87 111.45 L 192.21 112.55 L 190.09 113.99 L 188.42 115.79 L 187.16 117.97 L 186.30 120.62 L 185.15 126.87 L 184.64 131.97 L 184.65 136.09 L 185.13 140.18 L 186.00 143.60 L 187.20 146.45 L 188.78 149.12 L 190.63 151.56 L 192.74 153.78 L 196.20 156.92 L 200.06 160.16 L 202.03 161.49 L 203.12 161.79 L 204.12 161.59 L 204.66 161.18 L 205.17 160.36 L 205.66 158.91 L 205.99 156.85 L 206.20 154.12 L 206.32 148.27 L 206.31 142.83 L 206.45 139.27 L 208.72 126.45 L 219.68 128.43 L 228.33 129.54 L 235.03 129.97 L 240.11 129.88 L 245.21 129.28 L 251.17 128.07 L 258.11 126.17 L 266.15 123.44 L 272.40 146.56 L 272.87 148.06 Z" fill="#3d2423" fill-rule="evenodd" group-id="2,4,8,22" id="路径-35备份" node-id="21" stroke="none" target-height="74.77" target-width="92.17" target-x="184.64" target-y="87.02"></path><path d="M 184.64 160.38 L 185.82 163.47 L 187.15 166.05 L 188.64 168.19 L 190.38 170.13 L 192.12 171.66 L 193.87 172.82 L 196.64 174.07 L 199.06 174.58 L 200.65 174.58 L 201.91 174.31 L 202.91 173.81 L 203.67 173.06 L 204.08 172.09 L 204.13 170.82 L 202.06 156.38 L 202.06 156.38 L 201.38 154.06 L 200.17 152.10 L 198.51 150.52 L 196.51 149.40 L 194.28 148.83 L 191.86 148.87 L 189.53 149.56 L 187.57 150.76 L 185.99 152.42 L 184.87 154.42 L 184.31 156.66 L 184.34 159.08 L 184.64 160.38 Z" fill="#ffbe9c" fill-rule="evenodd" group-id="2,4,8,23" id="路径-33备份-2" node-id="22" stroke="none" target-height="25.75" target-width="19.820007" target-x="184.31" target-y="148.83"></path><path d="M 284.64 157.24 L 283.69 160.41 L 282.53 163.08 L 281.20 165.31 L 279.60 167.37 L 277.97 169.02 L 276.30 170.29 L 273.63 171.73 L 271.25 172.42 L 269.67 172.53 L 268.39 172.34 L 267.36 171.91 L 266.55 171.22 L 266.07 170.28 L 265.93 169.02 L 266.99 154.47 L 266.99 154.47 L 267.51 152.11 L 268.58 150.06 L 270.12 148.37 L 272.04 147.12 L 274.23 146.40 L 276.65 146.27 L 279.01 146.79 L 281.05 147.85 L 282.75 149.40 L 284.00 151.32 L 284.72 153.50 L 284.85 155.92 L 284.64 157.24 Z" fill="#ffbe9c" fill-rule="evenodd" group-id="2,4,8,24" id="路径-33备份-3" node-id="23" stroke="none" target-height="26.259995" target-width="18.920013" target-x="265.93" target-y="146.27"></path><path d="M 216.86 149.31 L 218.79 147.50 L 220.71 146.31 L 222.64 145.65 L 224.64 145.47 L 226.76 145.78 L 229.07 146.63 L 229.44 146.92 L 229.66 147.31 L 229.72 147.75 L 229.61 148.20 L 229.32 148.58 L 228.93 148.80 L 228.49 148.86 L 228.04 148.74 L 225.94 147.98 L 224.02 147.82 L 222.21 148.21 L 220.43 149.19 L 218.62 150.87 L 218.24 151.15 L 217.81 151.26 L 217.37 151.20 L 216.96 150.97 L 216.68 150.59 L 216.57 150.16 L 216.63 149.72 L 216.86 149.31 Z" fill="#b45b2d" fill-rule="nonzero" group-id="2,4,8,25" id="路径-23" node-id="24" stroke="none" target-height="5.7899933" target-width="13.149994" target-x="216.57" target-y="145.47"></path><path d="M 226.22 156.82 L 226.14 158.00 L 225.82 158.92 L 225.27 159.59 L 224.62 159.84 L 223.95 159.66 L 223.33 159.05 L 222.92 158.17 L 222.71 157.00 L 222.79 155.82 L 223.12 154.90 L 223.66 154.23 L 224.31 153.98 L 224.99 154.16 L 225.60 154.77 L 226.02 155.65 L 226.22 156.82 Z" fill="#b45b2d" fill-rule="nonzero" group-id="2,4,8,26" id="椭圆形" node-id="25" stroke="none" target-height="5.8600006" target-width="3.5099945" target-x="222.71" target-y="153.98"></path><path d="M 261.90 145.64 L 261.62 146.01 L 261.24 146.24 L 260.80 146.32 L 260.34 146.21 L 260.05 146.08 L 259.51 145.83 L 259.01 145.63 L 258.56 145.45 L 258.36 145.37 L 257.99 145.25 L 257.23 145.07 L 255.94 145.10 L 254.18 145.59 L 253.76 145.79 L 252.93 146.19 L 252.84 146.23 L 252.38 146.32 L 251.94 146.23 L 251.57 145.98 L 251.31 145.59 L 251.29 144.76 L 251.82 144.12 L 253.02 143.55 L 253.25 143.44 L 254.41 143.03 L 255.65 142.77 L 257.38 142.72 L 258.38 142.92 L 260.05 143.51 L 260.66 143.78 L 261.33 144.08 L 261.71 144.36 L 261.94 144.74 L 262.01 145.18 L 261.90 145.64 Z" fill="#b45b2d" fill-rule="nonzero" group-id="2,4,8,27" id="路径-23备份" node-id="26" stroke="none" target-height="3.600006" target-width="10.7200165" target-x="251.29" target-y="142.72"></path><path d="M 259.85 153.85 L 259.84 155.03 L 259.59 155.97 L 259.09 156.68 L 258.46 156.97 L 257.77 156.84 L 257.12 156.27 L 256.64 155.42 L 256.35 154.27 L 256.35 153.09 L 256.61 152.15 L 257.11 151.44 L 257.74 151.15 L 258.43 151.28 L 259.08 151.85 L 259.56 152.70 L 259.85 153.85 Z" fill="#b45b2d" fill-rule="nonzero" group-id="2,4,8,28" id="椭圆形备份-7" node-id="27" stroke="none" target-height="5.8200073" target-width="3.5" target-x="256.35" target-y="151.15"></path><path d="M 242.03 155.04 L 242.84 154.85 L 243.57 155.24 L 243.66 155.35 L 247.21 160.56 L 247.75 161.86 L 247.76 163.20 L 247.27 164.45 L 246.28 165.46 L 245.97 165.65 L 245.81 165.73 L 243.20 166.97 L 242.74 167.09 L 242.30 167.02 L 241.92 166.79 L 241.63 166.42 L 241.57 165.58 L 242.07 164.92 L 242.19 164.85 L 244.81 163.61 L 244.96 163.52 L 245.44 162.83 L 245.35 162.01 L 245.27 161.89 L 241.72 156.67 L 241.54 156.24 L 241.54 155.80 L 241.71 155.38 L 242.03 155.04 Z" fill="#b45b2d" fill-rule="nonzero" group-id="2,4,8" id="路径-24备份" node-id="28" stroke="none" target-height="12.23999" target-width="6.220001" target-x="241.54" target-y="154.85"></path><path d="M 209.21 853.76 L 209.21 906.45 L 179.99 907.45 L 177.92 852.46 Z" fill="#ffbe9c" fill-rule="evenodd" group-id="2,5,9,29" id="路径-136备份" node-id="31" stroke="none" target-height="54.98999" target-width="31.290009" target-x="177.92" target-y="852.46"></path><path d="M 180.87 892.61 L 184.45 896.38 L 187.45 898.91 L 189.97 900.49 L 192.09 901.32 L 193.91 901.57 L 195.61 901.36 L 197.68 900.66 L 200.22 899.31 L 203.33 897.14 L 207.13 893.92 L 208.46 893.01 L 209.85 892.51 L 211.35 892.39 L 212.84 892.64 L 214.18 893.27 L 215.42 894.29 L 216.40 895.76 L 216.90 897.45 L 221.01 927.29 L 221.01 927.29 L 122.40 927.29 L 167.98 891.40 L 170.09 890.15 L 172.34 889.50 L 174.67 889.43 L 176.94 889.93 L 179.04 890.99 L 180.87 892.61 Z" fill="#243762" fill-rule="evenodd" group-id="2,5,9,30,39" id="路径-42" node-id="33" stroke="none" target-height="37.859985" target-width="98.60999" target-x="122.4" target-y="889.43"></path><path d="M 164.87 898.58 L 165.15 899.96 L 165.90 901.07 L 167.01 901.82 L 168.39 902.10 L 169.77 901.82 L 170.88 901.07 L 171.63 899.96 L 171.91 898.58 L 171.63 897.19 L 170.88 896.09 L 169.77 895.33 L 168.39 895.05 L 167.01 895.33 L 165.90 896.09 L 165.15 897.19 L 164.87 898.58 Z" fill="#ffffff" fill-rule="evenodd" group-id="2,5,9,30" id="椭圆形" node-id="34" stroke="none" target-height="7.049988" target-width="7.0400085" target-x="164.87" target-y="895.05"></path><path d="M 266.90 853.76 L 266.90 906.45 L 296.11 907.45 L 298.19 852.46 Z" fill="#ffbe9c" fill-rule="evenodd" group-id="2,5,10,31" id="路径-136备份" node-id="36" stroke="none" target-height="54.98999" target-width="31.290009" target-x="266.9" target-y="852.46"></path><path d="M 295.23 892.61 L 291.65 896.38 L 288.65 898.91 L 286.14 900.49 L 284.02 901.32 L 282.19 901.57 L 280.49 901.36 L 278.42 900.66 L 275.89 899.31 L 272.77 897.14 L 268.98 893.92 L 267.65 893.01 L 266.25 892.51 L 264.75 892.39 L 263.27 892.64 L 261.92 893.27 L 260.68 894.29 L 259.70 895.76 L 259.20 897.45 L 255.10 927.29 L 255.10 927.29 L 353.70 927.29 L 308.12 891.40 L 306.01 890.15 L 303.76 889.50 L 301.43 889.43 L 299.16 889.93 L 297.07 890.99 L 295.23 892.61 Z" fill="#243762" fill-rule="evenodd" group-id="2,5,10,32,40" id="路径-42" node-id="38" stroke="none" target-height="37.859985" target-width="98.600006" target-x="255.1" target-y="889.43"></path><path d="M 311.24 898.58 L 310.95 899.96 L 310.20 901.07 L 309.10 901.82 L 307.72 902.10 L 306.34 901.82 L 305.23 901.07 L 304.48 899.96 L 304.20 898.58 L 304.48 897.19 L 305.23 896.09 L 306.34 895.33 L 307.72 895.05 L 309.10 895.33 L 310.20 896.09 L 310.95 897.19 L 311.24 898.58 Z" fill="#ffffff" fill-rule="evenodd" group-id="2,5,10,32" id="椭圆形" node-id="39" stroke="none" target-height="7.049988" target-width="7.039978" target-x="304.2" target-y="895.05"></path><path d="M 163.21 443.90 L 164.82 875.26 L 198.26 875.63 L 219.42 875.74 L 225.00 875.58 L 225.56 875.45 L 224.80 875.26 L 227.63 828.91 L 229.70 786.39 L 231.09 747.47 L 231.84 711.95 L 232.01 679.61 L 232.24 660.35 L 233.20 630.83 L 235.18 587.96 L 238.51 528.20 L 242.67 601.48 L 244.98 649.81 L 245.98 679.61 L 247.07 716.90 L 248.81 761.44 L 251.32 814.08 L 254.70 875.76 L 317.28 875.26 L 315.02 741.49 L 312.78 640.94 L 310.63 567.60 L 308.60 516.06 L 306.73 481.50 L 305.07 459.70 L 303.63 447.06 L 302.45 440.57 L 301.54 437.80 L 300.88 436.97 L 300.33 437.00 L 298.61 437.94 L 295.37 439.20 L 289.89 440.89 L 284.41 442.22 L 277.14 443.56 L 267.71 444.89 L 258.28 445.79 L 246.89 446.38 L 233.29 446.57 L 206.11 446.11 L 182.89 445.19 L 163.21 443.90 Z" fill="#243762" fill-rule="evenodd" group-id="2,5,11,33,41,47" node-id="225" stroke="none" target-height="438.79" target-width="154.06999" target-x="163.21" target-y="436.97"></path><g clip-path="url(#mask-4_3)" group-id="2,5,11,33,41,48" node-id="228"><path d="M 177.55 443.74 L 176.49 459.75 L 175.13 472.29 L 173.56 481.91 L 171.86 489.11 L 170.11 494.34 L 168.34 498.01 L 166.61 500.47 L 164.91 502.00 L 163.21 502.83 L 161.74 503.01 L 160.45 502.62 L 159.26 501.61 L 158.11 499.74 L 157.05 496.66 L 156.15 491.89 L 155.56 484.88 L 155.42 475.01 L 155.91 461.56 L 157.25 443.74 L 177.55 443.74 Z" fill="#061738" fill-rule="evenodd" group-id="2,5,11,33,41,48" id="路径-170" node-id="46" stroke="none" target-height="59.27002" target-width="22.130005" target-x="155.42" target-y="443.74"></path></g><g clip-path="url(#mask-4_4)" group-id="2,5,11,33,41,49" node-id="232"><path d="M 281.70 439.76 L 287.53 459.65 L 292.52 474.79 L 296.78 485.98 L 300.39 493.97 L 303.42 499.43 L 305.96 502.95 L 308.08 505.03 L 309.86 506.08 L 311.43 506.39 L 312.93 506.15 L 314.26 505.44 L 315.47 504.19 L 316.59 502.23 L 317.56 499.34 L 318.32 495.23 L 318.77 489.57 L 318.78 481.99 L 318.21 472.08 L 316.90 459.39 L 311.81 450.43 L 307.58 443.99 L 304.09 439.57 L 301.21 436.71 L 298.85 435.03 L 296.56 434.10 L 294.16 433.77 L 291.56 434.06 L 288.68 435.04 L 285.42 436.87 L 281.70 439.76 Z" fill="#061738" fill-rule="evenodd" group-id="2,5,11,33,41,49" id="路径-171" node-id="47" stroke="none" target-height="72.620026" target-width="37.079987" target-x="281.7" target-y="433.77"></path></g><path d="M 163.47 866.66 L 228.77 866.66 L 227.85 880.75 L 163.47 880.75 Z" fill="#061738" fill-rule="evenodd" group-id="2,5,11,33" id="矩形" node-id="48" stroke="none" target-height="14.090027" target-width="65.3" target-x="163.47" target-y="866.66"></path><path d="M 319.11 866.66 L 253.81 866.66 L 254.73 880.75 L 319.11 880.75 Z" fill="#061738" fill-rule="evenodd" group-id="2,5,11,33,42" id="矩形备份-39" node-id="49" stroke="none" target-height="14.090027" target-width="65.29999" target-x="253.81" target-y="866.66"></path><path d="M 435.22 299.44 L 437.38 297.52 L 447.44 288.09 L 451.68 272.04 L 453.07 271.32 L 454.08 271.32 L 454.93 271.92 L 455.68 273.34 L 456.20 275.66 L 456.43 279.36 L 456.20 284.95 L 476.18 281.82 L 489.04 280.18 L 496.71 279.58 L 500.17 279.63 L 501.96 279.99 L 502.75 280.48 L 502.99 281.05 L 502.74 281.85 L 501.71 283.07 L 499.29 284.95 L 502.91 285.72 L 504.36 286.42 L 504.71 287.03 L 504.44 287.76 L 503.10 289.03 L 499.70 291.19 L 502.73 292.39 L 504.30 293.36 L 504.95 294.13 L 505.06 294.79 L 504.73 295.46 L 503.73 296.25 L 499.58 298.32 L 495.15 299.83 L 497.46 301.00 L 498.39 301.88 L 498.55 302.57 L 498.16 303.26 L 496.85 304.08 L 493.92 305.06 L 488.36 306.15 L 485.10 306.82 L 481.93 307.69 L 475.71 309.72 L 472.63 310.68 L 469.58 311.46 L 465.21 312.09 L 457.93 312.46 L 448.36 323.90 L 439.30 333.84 L 430.73 342.40 L 422.62 349.71 L 414.93 355.88 L 407.65 361.01 L 400.73 365.19 L 394.15 368.51 L 387.88 371.04 L 381.87 372.86 L 376.10 374.02 L 370.52 374.56 L 365.10 374.50 L 359.82 373.87 L 355.51 372.81 L 350.36 370.90 L 344.24 367.95 L 336.97 363.75 L 328.39 358.07 L 318.33 350.64 L 306.59 341.18 L 292.97 329.39 L 277.25 314.96 L 295.95 290.91 L 304.96 279.70 L 308.43 275.72 L 308.85 275.62 L 309.57 276.09 L 310.91 277.80 L 315.58 285.47 L 322.37 296.70 L 326.49 302.93 L 331.23 309.45 L 336.40 315.76 L 342.07 321.69 L 346.15 325.35 L 350.40 328.57 L 354.84 331.39 L 358.33 333.20 L 361.92 334.66 L 365.63 335.76 L 369.45 336.51 L 373.46 336.76 L 377.59 336.49 L 381.89 335.68 L 386.11 334.46 L 390.37 332.86 L 394.69 330.87 L 400.96 327.45 L 407.03 323.58 L 412.84 319.41 L 418.09 315.29 L 423.00 311.13 L 427.02 307.51 L 433.01 301.72 L 435.22 299.44 Z" fill="#ffbe9c" fill-rule="evenodd" group-id="2,6,12,34,43" id="路径-158" node-id="54" stroke="none" target-height="103.23999" target-width="227.81" target-x="277.25" target-y="271.32"></path><path d="M 464.49 286.61 L 465.54 289.48 L 465.89 291.77 L 465.68 293.63 L 465.00 295.17 L 463.82 296.48 L 462.04 297.60 L 459.46 298.48 L 455.86 299.06" fill="none" group-id="2,6,12,34,43" id="路径-159" node-id="55" stroke="#243762" stroke-linecap="round" stroke-width="1.1741855" target-height="12.450012" target-width="10.030029" target-x="455.86" target-y="286.61"></path><path d="M 474.59 285.98 L 476.68 287.89 L 478.35 290.14 L 479.63 292.77 L 480.51 295.86 L 480.96 299.50 L 480.91 303.77" fill="none" group-id="2,6,12,34,43" id="路径-160" node-id="56" stroke="#243762" stroke-linecap="round" stroke-width="1.1741855" target-height="17.789978" target-width="6.369995" target-x="474.59" target-y="285.98"></path><path d="M 481.00 301.86 L 495.15 299.83" fill="none" group-id="2,6,12,34,43" id="路径-161" node-id="57" stroke="#243762" stroke-linecap="round" stroke-width="1.1741855" target-height="2.0299988" target-width="14.149994" target-x="481" target-y="299.83"></path><path d="M 481.00 295.45 L 500.07 291.60" fill="none" group-id="2,6,12,34,43" id="路径-162" node-id="58" stroke="#243762" stroke-linecap="round" stroke-width="1.1741855" target-height="3.850006" target-width="19.070007" target-x="481" target-y="291.6"></path><path d="M 477.80 288.48 L 499.29 284.95" fill="none" group-id="2,6,12,34,43" id="路径-163" node-id="59" stroke="#243762" stroke-linecap="round" stroke-width="1.1741855" target-height="3.5299988" target-width="21.49002" target-x="477.8" target-y="284.95"></path><path d="M 198.20 235.00 L 196.27 233.89 L 193.96 233.23 L 191.15 233.06 L 188.30 233.31 L 185.18 233.89 L 181.77 234.84 L 176.76 236.66 L 171.73 238.88 L 166.87 241.34 L 162.64 243.72 L 158.78 246.10 L 156.15 247.89 L 152.65 250.83 L 146.93 256.53 L 138.14 266.23 L 125.28 281.38 L 159.52 318.38 L 191.90 275.23 L 195.90 265.96 L 198.64 258.40 L 200.36 252.30 L 201.26 247.43 L 201.50 243.58 L 201.23 240.57 L 200.55 238.22 L 199.54 236.40 L 198.20 235.00 Z" fill="#007edf" fill-rule="evenodd" group-id="2,6,12,34" id="路径-120" node-id="60" stroke="none" target-height="85.32001" target-width="76.22" target-x="125.28" target-y="233.06"></path><path d="M 290.45 240.07 L 292.91 241.62 L 295.78 244.21 L 299.12 248.16 L 303.03 253.82 L 307.58 261.63 L 312.85 272.02 L 318.93 285.52 L 325.92 302.67 L 287.44 341.11 L 276.04 321.28 L 267.21 305.04 L 260.59 291.92 L 255.81 281.47 L 252.53 273.28 L 250.47 266.98 L 249.36 262.22 L 248.97 258.70 L 249.12 256.01 L 249.63 253.55 L 250.50 251.29 L 251.74 249.18 L 253.83 246.64 L 256.36 244.39 L 259.38 242.42 L 262.63 240.81 L 266.09 239.52 L 269.78 238.55 L 273.54 237.93 L 277.23 237.65 L 280.84 237.72 L 284.41 238.16 L 287.60 238.95 L 290.45 240.07 Z" fill="#007edf" fill-rule="evenodd" group-id="2,6,12,34" id="路径-134" node-id="61" stroke="none" target-height="103.45999" target-width="76.95001" target-x="248.97" target-y="237.65"></path><path d="M 289.94 239.92 L 291.10 241.28 L 292.41 244.08 L 293.85 249.05 L 295.36 257.10 L 296.88 269.31 L 298.31 286.93 L 299.56 311.36 L 300.51 344.16 L 301.04 387.05 L 301.01 441.92 L 301.01 441.92 L 300.84 443.14 L 300.41 444.19 L 299.73 445.12 L 298.84 445.85 L 297.81 446.34 L 296.61 446.58 L 266.71 448.30 L 245.62 449.17 L 231.42 449.41 L 217.22 449.16 L 196.49 448.29 L 167.48 446.57 L 167.48 446.57 L 165.82 446.15 L 164.47 445.21 L 163.53 443.87 L 163.10 442.21 L 161.21 410.78 L 160.06 383.05 L 159.55 358.71 L 159.62 337.45 L 160.19 319.01 L 161.18 303.11 L 162.53 289.51 L 164.18 277.95 L 166.07 268.23 L 168.14 260.11 L 170.37 253.42 L 172.69 247.95 L 175.10 243.55 L 177.56 240.06 L 180.07 237.35 L 182.63 235.31 L 185.88 233.40 L 191.55 230.63 L 200.60 226.73 L 203.94 230.20 L 207.58 233.11 L 211.53 235.50 L 215.85 237.39 L 220.56 238.76 L 225.73 239.62 L 231.42 239.92 L 235.02 239.62 L 238.90 238.70 L 243.10 237.07 L 247.70 234.62 L 252.75 231.23 L 258.30 226.73 L 277.87 234.24 L 286.85 238.15 L 289.94 239.92 Z" fill="#007edf" fill-rule="evenodd" group-id="2,6,12,34,44" id="路径-36" node-id="62" stroke="none" target-height="222.68001" target-width="141.49" target-x="159.55" target-y="226.73"></path><path d="M 156.35 314.59 L 121.33 356.88 L 120.65 357.98 L 120.31 359.11 L 120.27 360.32 L 120.53 361.49 L 121.08 362.54 L 121.95 363.50 L 122.70 364.00 L 123.54 364.36 L 203.02 389.36 L 210.75 391.84 L 213.41 392.10 L 219.89 392.73 L 228.81 393.93 L 239.56 395.79 L 250.32 397.93 L 259.67 400.16 L 263.59 401.30 L 266.22 402.25 L 267.79 403.03 L 268.43 403.59 L 268.57 404.00 L 268.21 404.82 L 267.32 405.47 L 265.61 405.94 L 262.63 406.09 L 257.80 405.69 L 250.45 404.45 L 251.28 405.82 L 251.53 406.87 L 251.37 407.74 L 250.81 408.50 L 249.72 409.20 L 248.38 410.02 L 247.88 410.62 L 247.69 411.28 L 247.71 411.86 L 247.73 412.42 L 247.56 412.92 L 246.96 413.44 L 246.26 413.66 L 244.78 414.02 L 244.11 414.48 L 243.89 414.85 L 243.74 415.69 L 243.58 416.10 L 243.07 416.61 L 242.37 416.91 L 241.76 416.93 L 240.67 416.97 L 240.30 417.31 L 239.95 418.36 L 239.65 418.85 L 238.97 419.25 L 237.70 419.51 L 235.61 419.59 L 232.91 419.40 L 227.46 418.50 L 224.94 417.86 L 223.21 417.28 L 221.10 416.49 L 218.10 415.61 L 212.04 414.02 L 209.39 412.97 L 204.53 410.21 L 180.45 408.00 L 160.01 405.56 L 142.83 402.95 L 128.53 400.21 L 116.77 397.41 L 107.22 394.56 L 99.58 391.73 L 93.57 388.92 L 88.94 386.17 L 85.45 383.48 L 82.92 380.85 L 81.18 378.26 L 80.14 375.72 L 79.55 372.69 L 79.49 369.08 L 80.04 364.75 L 81.34 359.57 L 83.57 353.37 L 86.91 346.00 L 91.56 337.29 L 97.78 327.04 L 105.80 315.05 L 115.90 301.12 L 128.37 285.01 L 156.35 314.59 Z" fill="#ffbe9c" fill-rule="evenodd" group-id="2,6,12,34,45" id="路径-38" node-id="63" stroke="none" target-height="134.57999" target-width="189.08002" target-x="79.49" target-y="285.01"></path><path d="M 201.26 407.95 L 206.11 391.04 L 206.77 389.79 L 207.79 388.93 L 209.07 388.51 L 210.47 388.63 L 210.47 388.63 L 211.72 389.28 L 212.58 390.30 L 213.00 391.58 L 212.89 392.98 L 208.04 409.90 L 207.39 411.15 L 206.36 412.01 L 205.08 412.42 L 203.68 412.31 L 203.68 412.31 L 202.43 411.66 L 201.57 410.63 L 201.15 409.36 L 201.26 407.95 Z" fill="#243762" fill-rule="evenodd" group-id="2,6,12,34,46" id="矩形" node-id="65" stroke="none" target-height="23.910004" target-width="11.850006" target-x="201.15" target-y="388.51"></path><path d="M 209.18 393.14 L 210.92 393.90 L 212.33 395.04 L 213.40 396.49 L 214.06 398.17 L 214.28 399.96 L 214.01 401.85 L 213.24 403.59 L 212.11 405.00 L 210.65 406.06 L 208.98 406.73 L 207.18 406.95 L 205.30 406.67 L 203.55 405.91 L 202.14 404.77 L 201.08 403.32 L 200.41 401.64 L 200.19 399.85 L 200.46 397.96 L 201.23 396.22 L 202.37 394.81 L 203.82 393.75 L 205.49 393.08 L 207.29 392.86 L 209.18 393.14 Z" fill="#243762" fill-rule="evenodd" group-id="2,6,12,34,46" id="椭圆形" node-id="66" stroke="none" target-height="14.090027" target-width="14.089996" target-x="200.19" target-y="392.86"></path><path d="M 204.82 399.82 L 204.82 399.82 L 205.10 399.47 L 205.54 399.42 L 207.80 400.07 L 208.15 400.35 L 208.20 400.79 L 208.20 400.79 L 207.92 401.14 L 207.48 401.19 L 205.22 400.55 L 204.87 400.27 L 204.82 399.82 Z" fill="#516aa3" fill-rule="evenodd" group-id="2,6,12,34,46" id="矩形" node-id="67" stroke="none" target-height="1.769989" target-width="3.3799896" target-x="204.82" target-y="399.42"></path><path d="M 207.77 397.62 L 208.18 397.79 L 208.35 398.21 L 208.31 400.56 L 208.13 400.97 L 207.71 401.13 L 207.71 401.13 L 207.30 400.96 L 207.13 400.54 L 207.18 398.19 L 207.35 397.78 L 207.77 397.62 L 207.77 397.62 Z" fill="#516aa3" fill-rule="evenodd" group-id="2,6,12,34,46,50" id="矩形" node-id="68" stroke="none" target-height="3.5100098" target-width="1.2200012" target-x="207.13" target-y="397.62"></path><path d="M 126.32 282.09 L 159.52 317.47 L 174.43 299.88" fill="none" group-id="2,6,12,34" id="路径-142" node-id="69" stroke="#243762" stroke-linecap="round" stroke-width="1.1741855" target-height="35.380005" target-width="48.109993" target-x="126.32" target-y="282.09"></path><path d="M 301.10 360.03 L 298.24 291.99" fill="none" group-id="2,6,12,34" id="路径-143" node-id="70" stroke="#243762" stroke-linecap="round" stroke-width="1.1741855" target-height="68.04001" target-width="2.8600159" target-x="298.24" target-y="291.99"></path><path d="M 490.33 193.21 L 819.67 193.21 L 822.90 193.43 L 825.94 194.05 L 828.82 195.06 L 831.55 196.43 L 834.04 198.11 L 836.30 200.10 L 838.29 202.36 L 839.97 204.85 L 841.34 207.58 L 842.35 210.46 L 842.97 213.50 L 843.19 216.73 L 843.19 886.98 L 842.97 890.21 L 842.35 893.25 L 841.34 896.13 L 839.97 898.86 L 838.29 901.35 L 836.30 903.61 L 834.04 905.60 L 831.55 907.28 L 828.82 908.65 L 825.94 909.66 L 822.90 910.28 L 819.67 910.50 L 490.33 910.50 L 487.10 910.28 L 484.06 909.66 L 481.18 908.65 L 478.45 907.28 L 475.96 905.60 L 473.70 903.61 L 471.71 901.35 L 470.03 898.86 L 468.66 896.13 L 467.65 893.25 L 467.03 890.21 L 466.81 886.98 L 466.81 216.73 L 467.03 213.50 L 467.65 210.46 L 468.66 207.58 L 470.03 204.85 L 471.71 202.36 L 473.70 200.10 L 475.96 198.11 L 478.45 196.43 L 481.18 195.06 L 484.06 194.05 L 487.10 193.43 L 490.33 193.21 Z" fill="#99cbf2" fill-rule="evenodd" group-id="3,7" id="矩形" node-id="73" stroke="none" target-height="717.29" target-width="376.38" target-x="466.81" target-y="193.21"></path><path d="M 513.86 252.00 L 796.14 252.00 L 799.37 252.23 L 802.42 252.85 L 805.30 253.85 L 808.03 255.22 L 810.52 256.90 L 812.78 258.89 L 814.77 261.15 L 816.45 263.64 L 817.82 266.37 L 818.83 269.25 L 819.44 272.30 L 819.67 275.53 L 819.67 816.42 L 819.44 819.65 L 818.83 822.70 L 817.82 825.58 L 816.45 828.31 L 814.77 830.80 L 812.78 833.06 L 810.52 835.05 L 808.03 836.72 L 805.30 838.10 L 802.42 839.10 L 799.37 839.72 L 796.14 839.95 L 513.86 839.95 L 510.63 839.72 L 507.58 839.10 L 504.70 838.10 L 501.97 836.72 L 499.48 835.05 L 497.22 833.06 L 495.23 830.80 L 493.55 828.31 L 492.18 825.58 L 491.17 822.70 L 490.56 819.65 L 490.33 816.42 L 490.33 275.53 L 490.56 272.30 L 491.17 269.25 L 492.18 266.37 L 493.55 263.64 L 495.23 261.15 L 497.22 258.89 L 499.48 256.90 L 501.97 255.22 L 504.70 253.85 L 507.58 252.85 L 510.63 252.23 L 513.86 252.00 Z" fill="#e5f2fb" fill-rule="evenodd" group-id="3,7,13,35" node-id="286" stroke="none" target-height="587.95" target-width="329.34" target-x="490.33" target-y="252"></path><g clip-path="url(#mask-6)" group-id="3,7,13,36" node-id="289"><path d="M 502.49 839.95 L 525.13 822.37 L 546.27 805.28 L 565.98 788.67 L 584.32 772.53 L 601.36 756.83 L 617.14 741.56 L 631.73 726.72 L 645.19 712.30 L 657.56 698.26 L 668.89 684.61 L 679.24 671.33 L 688.66 658.40 L 697.18 645.82 L 704.86 633.55 L 711.73 621.60 L 718.66 608.35 L 725.82 593.31 L 733.22 576.34 L 740.84 557.29 L 748.70 535.97 L 756.79 512.23 L 765.11 485.89 L 773.65 456.75 L 782.42 424.64 L 791.41 389.35 L 800.61 350.68 L 810.04 308.43 L 819.67 262.37 L 819.67 839.95 L 502.49 839.95 Z" fill="#ffffff" fill-rule="evenodd" group-id="3,7,13,36" id="路径-52" node-id="78" stroke="none" target-height="577.58" target-width="317.18" target-x="502.49" target-y="262.37"></path></g><path d="M 678.52 875.22 L 678.30 878.45 L 677.68 881.50 L 676.68 884.38 L 675.30 887.11 L 673.63 889.59 L 671.63 891.85 L 669.37 893.84 L 666.89 895.52 L 664.16 896.89 L 661.27 897.90 L 658.23 898.52 L 655.00 898.74 L 651.77 898.52 L 648.73 897.90 L 645.84 896.89 L 643.11 895.52 L 640.63 893.84 L 638.37 891.85 L 636.37 889.59 L 634.70 887.11 L 633.32 884.38 L 632.32 881.50 L 631.70 878.45 L 631.48 875.22 L 631.70 871.99 L 632.32 868.95 L 633.32 866.07 L 634.70 863.34 L 636.37 860.85 L 638.37 858.59 L 640.63 856.60 L 643.11 854.93 L 645.84 853.55 L 648.73 852.55 L 651.77 851.93 L 655.00 851.71 L 658.23 851.93 L 661.27 852.55 L 664.16 853.55 L 666.89 854.93 L 669.37 856.60 L 671.63 858.59 L 673.63 860.85 L 675.30 863.34 L 676.68 866.07 L 677.68 868.95 L 678.30 871.99 L 678.52 875.22 Z" fill="#e5f2fb" fill-rule="evenodd" group-id="3,7" id="椭圆形" node-id="79" stroke="none" target-height="47.02997" target-width="47.04004" target-x="631.48" target-y="851.71"></path><path d="M 637.36 216.73 L 696.17 216.73 L 697.76 216.95 L 699.13 217.52 L 700.33 218.45 L 701.25 219.64 L 701.82 221.01 L 702.05 222.61 L 702.05 222.61 L 701.82 224.20 L 701.25 225.57 L 700.33 226.76 L 699.13 227.69 L 697.76 228.26 L 696.17 228.48 L 637.36 228.48 L 635.76 228.26 L 634.39 227.69 L 633.20 226.76 L 632.27 225.57 L 631.70 224.20 L 631.48 222.61 L 631.48 222.61 L 631.70 221.01 L 632.27 219.64 L 633.20 218.45 L 634.39 217.52 L 635.76 216.95 L 637.36 216.73 Z" fill="#ffffff" fill-rule="evenodd" group-id="3,7" id="矩形" node-id="80" stroke="none" target-height="11.75" target-width="70.57001" target-x="631.48" target-y="216.73"></path><path d="M 619.71 222.61 L 619.49 224.20 L 618.92 225.57 L 617.99 226.76 L 616.80 227.69 L 615.43 228.26 L 613.83 228.48 L 612.24 228.26 L 610.87 227.69 L 609.67 226.76 L 608.75 225.57 L 608.18 224.20 L 607.95 222.61 L 608.18 221.01 L 608.75 219.64 L 609.67 218.45 L 610.87 217.52 L 612.24 216.95 L 613.83 216.73 L 615.43 216.95 L 616.80 217.52 L 617.99 218.45 L 618.92 219.64 L 619.49 221.01 L 619.71 222.61 Z" fill="#ffffff" fill-rule="evenodd" group-id="3,7" id="椭圆形" node-id="81" stroke="none" target-height="11.75" target-width="11.76001" target-x="607.95" target-y="216.73"></path><path d="M 418.91 515.93 L 626.49 515.93 L 628.57 516.13 L 630.48 516.65 L 632.24 517.49 L 633.84 518.62 L 635.20 519.98 L 636.33 521.58 L 637.18 523.35 L 637.70 525.26 L 637.89 527.34 L 637.89 734.88 L 637.70 736.96 L 637.18 738.87 L 636.33 740.64 L 635.20 742.24 L 633.84 743.60 L 632.24 744.73 L 630.48 745.57 L 628.57 746.09 L 626.49 746.29 L 418.91 746.29 L 416.82 746.09 L 414.92 745.57 L 413.15 744.73 L 411.55 743.60 L 410.19 742.24 L 409.06 740.64 L 408.21 738.87 L 407.69 736.96 L 407.50 734.88 L 407.50 527.34 L 407.69 525.26 L 408.21 523.35 L 409.06 521.58 L 410.19 519.98 L 411.55 518.62 L 413.15 517.49 L 414.92 516.65 L 416.82 516.13 L 418.91 515.93 Z" fill="#cce5f9" fill-rule="evenodd" group-id="3,7" id="矩形" node-id="82" stroke="none" target-height="230.35999" target-width="230.39001" target-x="407.5" target-y="515.93"></path><path d="M 437.22 550.14 L 608.17 550.14 L 610.68 550.38 L 612.98 551.00 L 615.11 552.02 L 617.04 553.39 L 618.68 555.02 L 620.05 556.95 L 621.06 559.08 L 621.69 561.38 L 621.92 563.89 L 621.92 716.57 L 621.69 719.08 L 621.06 721.38 L 620.05 723.51 L 618.68 725.44 L 617.04 727.08 L 615.11 728.44 L 612.98 729.46 L 610.68 730.09 L 608.17 730.32 L 437.22 730.32 L 434.71 730.09 L 432.41 729.46 L 430.28 728.44 L 428.35 727.08 L 426.71 725.44 L 425.35 723.51 L 424.33 721.38 L 423.70 719.08 L 423.47 716.57 L 423.47 563.89 L 423.70 561.38 L 424.33 559.08 L 425.35 556.95 L 426.71 555.02 L 428.35 553.39 L 430.28 552.02 L 432.41 551.00 L 434.71 550.38 L 437.22 550.14 Z" fill="#ffffff" fill-rule="evenodd" group-id="3,7" id="矩形" node-id="83" stroke="none" target-height="180.18" target-width="198.44998" target-x="423.47" target-y="550.14"></path><path d="M 683.51 515.93 L 891.09 515.93 L 893.18 516.13 L 895.08 516.65 L 896.85 517.49 L 898.45 518.62 L 899.81 519.98 L 900.94 521.58 L 901.79 523.35 L 902.31 525.26 L 902.50 527.34 L 902.50 734.88 L 902.31 736.96 L 901.79 738.87 L 900.94 740.64 L 899.81 742.24 L 898.45 743.60 L 896.85 744.73 L 895.08 745.57 L 893.18 746.09 L 891.09 746.29 L 683.51 746.29 L 681.43 746.09 L 679.52 745.57 L 677.76 744.73 L 676.16 743.60 L 674.80 742.24 L 673.67 740.64 L 672.82 738.87 L 672.30 736.96 L 672.11 734.88 L 672.11 527.34 L 672.30 525.26 L 672.82 523.35 L 673.67 521.58 L 674.80 519.98 L 676.16 518.62 L 677.76 517.49 L 679.52 516.65 L 681.43 516.13 L 683.51 515.93 Z" fill="#cce5f9" fill-rule="evenodd" group-id="3,7" id="矩形备份-34" node-id="84" stroke="none" target-height="230.35999" target-width="230.39001" target-x="672.11" target-y="515.93"></path><path d="M 701.83 550.14 L 872.78 550.14 L 875.29 550.38 L 877.59 551.00 L 879.72 552.02 L 881.65 553.39 L 883.29 555.02 L 884.65 556.95 L 885.67 559.08 L 886.30 561.38 L 886.53 563.89 L 886.53 716.57 L 886.30 719.08 L 885.67 721.38 L 884.65 723.51 L 883.29 725.44 L 881.65 727.08 L 879.72 728.44 L 877.59 729.46 L 875.29 730.09 L 872.78 730.32 L 701.83 730.32 L 699.32 730.09 L 697.02 729.46 L 694.89 728.44 L 692.96 727.08 L 691.32 725.44 L 689.95 723.51 L 688.94 721.38 L 688.31 719.08 L 688.08 716.57 L 688.08 563.89 L 688.31 561.38 L 688.94 559.08 L 689.95 556.95 L 691.32 555.02 L 692.96 553.39 L 694.89 552.02 L 697.02 551.00 L 699.32 550.38 L 701.83 550.14 Z" fill="#ffffff" fill-rule="evenodd" group-id="3,7" id="矩形备份-35" node-id="85" stroke="none" target-height="180.18" target-width="198.45001" target-x="688.08" target-y="550.14"></path><path d="M 437.15 533.04 L 436.89 534.90 L 436.23 536.49 L 435.15 537.88 L 433.76 538.95 L 432.17 539.62 L 430.31 539.88 L 428.45 539.62 L 426.86 538.95 L 425.47 537.88 L 424.40 536.49 L 423.73 534.90 L 423.47 533.04 L 423.73 531.18 L 424.40 529.59 L 425.47 528.20 L 426.86 527.12 L 428.45 526.46 L 430.31 526.20 L 432.17 526.46 L 433.76 527.12 L 435.15 528.20 L 436.23 529.59 L 436.89 531.18 L 437.15 533.04 Z" fill="#99cbf2" fill-rule="evenodd" group-id="3,7" id="椭圆形" node-id="86" stroke="none" target-height="13.679993" target-width="13.679993" target-x="423.47" target-y="526.2"></path><path d="M 701.76 533.04 L 701.50 534.90 L 700.83 536.49 L 699.76 537.88 L 698.37 538.95 L 696.78 539.62 L 694.92 539.88 L 693.06 539.62 L 691.47 538.95 L 690.08 537.88 L 689.00 536.49 L 688.34 534.90 L 688.08 533.04 L 688.34 531.18 L 689.00 529.59 L 690.08 528.20 L 691.47 527.12 L 693.06 526.46 L 694.92 526.20 L 696.78 526.46 L 698.37 527.12 L 699.76 528.20 L 700.83 529.59 L 701.50 531.18 L 701.76 533.04 Z" fill="#99cbf2" fill-rule="evenodd" group-id="3,7" id="椭圆形备份-63" node-id="87" stroke="none" target-height="13.679993" target-width="13.679993" target-x="688.08" target-y="526.2"></path><path d="M 462.25 533.04 L 461.98 534.90 L 461.32 536.49 L 460.24 537.88 L 458.85 538.95 L 457.26 539.62 L 455.40 539.88 L 453.54 539.62 L 451.95 538.95 L 450.56 537.88 L 449.49 536.49 L 448.82 534.90 L 448.56 533.04 L 448.82 531.18 L 449.49 529.59 L 450.56 528.20 L 451.95 527.12 L 453.54 526.46 L 455.40 526.20 L 457.26 526.46 L 458.85 527.12 L 460.24 528.20 L 461.32 529.59 L 461.98 531.18 L 462.25 533.04 Z" fill="#99cbf2" fill-rule="evenodd" group-id="3,7" id="椭圆形备份-61" node-id="88" stroke="none" target-height="13.679993" target-width="13.690002" target-x="448.56" target-y="526.2"></path><path d="M 726.85 533.04 L 726.59 534.90 L 725.93 536.49 L 724.85 537.88 L 723.46 538.95 L 721.87 539.62 L 720.01 539.88 L 718.15 539.62 L 716.56 538.95 L 715.17 537.88 L 714.10 536.49 L 713.43 534.90 L 713.17 533.04 L 713.43 531.18 L 714.10 529.59 L 715.17 528.20 L 716.56 527.12 L 718.15 526.46 L 720.01 526.20 L 721.87 526.46 L 723.46 527.12 L 724.85 528.20 L 725.93 529.59 L 726.59 531.18 L 726.85 533.04 Z" fill="#99cbf2" fill-rule="evenodd" group-id="3,7" id="椭圆形备份-64" node-id="89" stroke="none" target-height="13.679993" target-width="13.679993" target-x="713.17" target-y="526.2"></path><path d="M 487.34 533.04 L 487.08 534.90 L 486.41 536.49 L 485.33 537.88 L 483.95 538.95 L 482.35 539.62 L 480.50 539.88 L 478.64 539.62 L 477.04 538.95 L 475.66 537.88 L 474.58 536.49 L 473.92 534.90 L 473.65 533.04 L 473.92 531.18 L 474.58 529.59 L 475.66 528.20 L 477.04 527.12 L 478.64 526.46 L 480.50 526.20 L 482.35 526.46 L 483.95 527.12 L 485.33 528.20 L 486.41 529.59 L 487.08 531.18 L 487.34 533.04 Z" fill="#99cbf2" fill-rule="evenodd" group-id="3,7" id="椭圆形备份-62" node-id="90" stroke="none" target-height="13.679993" target-width="13.690002" target-x="473.65" target-y="526.2"></path><path d="M 751.95 533.04 L 751.68 534.90 L 751.02 536.49 L 749.94 537.88 L 748.55 538.95 L 746.96 539.62 L 745.10 539.88 L 743.25 539.62 L 741.65 538.95 L 740.26 537.88 L 739.19 536.49 L 738.52 534.90 L 738.26 533.04 L 738.52 531.18 L 739.19 529.59 L 740.26 528.20 L 741.65 527.12 L 743.25 526.46 L 745.10 526.20 L 746.96 526.46 L 748.56 527.12 L 749.94 528.20 L 751.02 529.59 L 751.68 531.18 L 751.95 533.04 Z" fill="#99cbf2" fill-rule="evenodd" group-id="3,7" id="椭圆形备份-66" node-id="91" stroke="none" target-height="13.679993" target-width="13.690002" target-x="738.26" target-y="526.2"></path><path d="M 455.97 593.48 L 455.97 593.48 L 457.74 593.64 L 459.36 594.08 L 460.87 594.80 L 462.83 596.32 L 464.34 598.28 L 465.06 599.78 L 465.50 601.40 L 465.67 603.17 L 465.67 704.66 L 465.50 706.43 L 465.06 708.05 L 464.34 709.56 L 462.83 711.52 L 460.87 713.03 L 459.36 713.75 L 457.74 714.19 L 455.97 714.36 L 455.97 714.36 L 454.20 714.19 L 452.58 713.75 L 451.08 713.03 L 449.12 711.52 L 447.60 709.56 L 446.89 708.05 L 446.44 706.43 L 446.28 704.66 L 446.28 603.17 L 446.44 601.40 L 446.89 599.78 L 447.60 598.28 L 449.12 596.32 L 451.08 594.80 L 452.58 594.08 L 454.20 593.64 L 455.97 593.48 Z" fill="#e5f2fb" fill-rule="evenodd" group-id="3,7" id="矩形" node-id="92" stroke="none" target-height="120.880005" target-width="19.390015" target-x="446.28" target-y="593.48"></path><path d="M 500.46 617.43 L 500.46 617.43 L 502.22 617.59 L 503.85 618.03 L 505.35 618.75 L 507.31 620.26 L 508.83 622.23 L 509.54 623.73 L 509.99 625.35 L 510.15 627.12 L 510.15 704.66 L 509.99 706.43 L 509.54 708.05 L 508.83 709.56 L 507.31 711.52 L 505.35 713.03 L 503.85 713.75 L 502.22 714.19 L 500.46 714.36 L 500.46 714.36 L 498.69 714.19 L 497.06 713.75 L 495.56 713.03 L 493.60 711.52 L 492.08 709.56 L 491.37 708.05 L 490.93 706.43 L 490.76 704.66 L 490.76 627.12 L 490.93 625.35 L 491.37 623.73 L 492.08 622.23 L 493.60 620.26 L 495.56 618.75 L 497.06 618.03 L 498.69 617.59 L 500.46 617.43 Z" fill="#cce5f9" fill-rule="evenodd" group-id="3,7" id="矩形备份-36" node-id="93" stroke="none" target-height="96.92999" target-width="19.389984" target-x="490.76" target-y="617.43"></path><path d="M 589.42 653.92 L 589.42 653.92 L 591.19 654.08 L 592.81 654.52 L 594.31 655.24 L 596.27 656.76 L 597.79 658.72 L 598.51 660.22 L 598.95 661.84 L 599.11 663.61 L 599.11 704.66 L 598.95 706.43 L 598.51 708.05 L 597.79 709.56 L 596.27 711.52 L 594.31 713.03 L 592.81 713.75 L 591.19 714.19 L 589.42 714.36 L 589.42 714.36 L 587.65 714.19 L 586.03 713.75 L 584.53 713.03 L 582.56 711.52 L 581.05 709.56 L 580.33 708.05 L 579.89 706.43 L 579.72 704.66 L 579.72 663.61 L 579.89 661.84 L 580.33 660.22 L 581.05 658.72 L 582.56 656.76 L 584.53 655.24 L 586.03 654.52 L 587.65 654.08 L 589.42 653.92 Z" fill="#e5f2fb" fill-rule="evenodd" group-id="3,7" id="矩形备份-38" node-id="94" stroke="none" target-height="60.440002" target-width="19.390015" target-x="579.72" target-y="653.92"></path><path d="M 544.94 570.67 L 544.94 570.67 L 546.71 570.84 L 548.33 571.28 L 549.83 571.99 L 551.79 573.51 L 553.31 575.47 L 554.02 576.97 L 554.47 578.60 L 554.63 580.37 L 554.63 704.66 L 554.47 706.43 L 554.02 708.05 L 553.31 709.56 L 551.79 711.52 L 549.83 713.03 L 548.33 713.75 L 546.71 714.19 L 544.94 714.36 L 544.94 714.36 L 543.17 714.19 L 541.55 713.75 L 540.04 713.03 L 538.08 711.52 L 536.57 709.56 L 535.85 708.05 L 535.41 706.43 L 535.24 704.66 L 535.24 580.37 L 535.41 578.60 L 535.85 576.97 L 536.57 575.47 L 538.08 573.51 L 540.04 571.99 L 541.55 571.28 L 543.17 570.84 L 544.94 570.67 Z" fill="#cce5f9" fill-rule="evenodd" group-id="3,7" id="矩形备份-37" node-id="95" stroke="none" target-height="143.69" target-width="19.390015" target-x="535.24" target-y="570.67"></path><path d="M 722.30 642.51 L 722.55 637.10 L 723.25 631.85 L 724.39 626.74 L 725.98 621.74 L 728.00 616.89 L 730.40 612.29 L 733.19 607.91 L 736.38 603.74 L 739.91 599.86 L 743.76 596.31 L 747.96 593.08 L 752.52 590.16 L 757.33 587.67 L 762.23 585.65 L 767.23 584.08 L 772.35 582.96 L 777.55 582.29 L 782.74 582.06 L 787.93 582.29 L 793.14 582.96 L 798.26 584.08 L 803.25 585.65 L 808.15 587.67 L 812.96 590.16 L 817.52 593.08 L 821.72 596.31 L 825.58 599.86 L 829.11 603.74 L 832.30 607.91 L 835.08 612.29 L 837.48 616.89 L 839.50 621.74 L 841.09 626.74 L 842.23 631.85 L 842.93 637.10 L 843.18 642.51 L 842.93 647.92 L 842.23 653.18 L 841.09 658.29 L 839.50 663.28 L 837.48 668.13 L 835.08 672.74 L 832.30 677.12 L 829.11 681.29 L 825.58 685.16 L 821.72 688.71 L 817.52 691.94 L 812.96 694.86 L 808.15 697.35 L 803.25 699.38 L 798.26 700.94 L 793.14 702.06 L 787.93 702.74 L 782.74 702.96 L 777.55 702.74 L 772.35 702.06 L 767.23 700.94 L 762.23 699.38 L 757.33 697.35 L 752.52 694.86 L 747.96 691.94 L 743.76 688.71 L 739.91 685.16 L 736.38 681.29 L 733.19 677.12 L 730.40 672.74 L 728.00 668.13 L 725.98 663.28 L 724.39 658.29 L 723.25 653.18 L 722.55 647.92 L 722.30 642.51 L 767.63 642.51 L 767.88 645.20 L 768.55 647.70 L 769.66 650.07 L 771.15 652.21 L 772.98 654.05 L 775.19 655.60 L 777.63 656.73 L 780.14 657.40 L 782.74 657.63 L 785.34 657.40 L 787.85 656.73 L 790.30 655.60 L 792.50 654.05 L 794.33 652.21 L 795.83 650.07 L 796.93 647.70 L 797.61 645.20 L 797.85 642.51 L 797.61 639.83 L 796.93 637.32 L 795.83 634.96 L 794.33 632.82 L 792.50 630.98 L 790.30 629.42 L 787.85 628.29 L 785.34 627.62 L 782.74 627.40 L 780.14 627.62 L 777.63 628.29 L 775.19 629.42 L 772.98 630.98 L 771.15 632.82 L 769.66 634.96 L 768.55 637.32 L 767.88 639.83 L 767.63 642.51 L 722.30 642.51 Z" fill="#455a64" fill-opacity="0.002" fill-rule="evenodd" group-id="3,7,14" id="Base-plate" node-id="96" stroke="none" target-height="120.900024" target-width="120.880005" target-x="722.3" target-y="582.06"></path><path d="M 722.30 642.52 L 722.55 637.11 L 723.25 631.85 L 724.39 626.74 L 725.98 621.75 L 728.00 616.90 L 730.40 612.29 L 733.19 607.91 L 736.38 603.74 L 739.90 599.87 L 743.76 596.32 L 747.96 593.09 L 752.52 590.17 L 757.33 587.68 L 762.23 585.66 L 767.23 584.09 L 772.35 582.97 L 777.55 582.29 L 782.74 582.07 L 787.93 582.29 L 793.14 582.97 L 798.25 584.09 L 803.25 585.66 L 808.15 587.68 L 812.96 590.17 L 816.55 592.41 L 819.96 594.89 L 823.18 597.60 L 826.21 600.52 L 829.03 603.65 L 831.64 606.99 L 794.96 633.63 L 793.19 631.61 L 791.17 629.97 L 788.89 628.71 L 786.42 627.86 L 783.86 627.45 L 781.16 627.49 L 778.52 628.01 L 776.10 628.94 L 773.86 630.29 L 771.89 632.00 L 770.25 634.02 L 768.94 636.37 L 768.21 638.36 L 767.78 640.40 L 767.63 642.52 L 722.30 642.52 Z" fill="#e5f2fb" fill-rule="evenodd" group-id="3,7,15" id="Segment-40" node-id="97" stroke="none" target-height="60.450012" target-width="109.34003" target-x="722.3" target-y="582.07"></path><path d="M 840.22 661.19 L 838.31 666.26 L 836.03 671.04 L 833.36 675.55 L 830.31 679.80 L 826.89 683.79 L 823.18 687.43 L 819.18 690.74 L 814.86 693.72 L 810.30 696.31 L 805.54 698.49 L 800.55 700.27 L 795.31 701.64 L 789.96 702.52 L 784.68 702.93 L 779.44 702.87 L 774.23 702.35 L 769.07 701.39 L 764.06 700.00 L 759.20 698.18 L 754.46 695.93 L 749.93 693.28 L 745.66 690.25 L 741.63 686.81 L 737.83 682.96 L 734.27 678.60 L 731.17 674.03 L 728.53 669.23 L 726.32 664.17 L 724.57 658.93 L 723.33 653.59 L 722.57 648.12 L 722.30 642.51 L 767.63 642.51 L 767.88 645.19 L 768.55 647.70 L 769.66 650.06 L 771.15 652.21 L 772.98 654.04 L 775.19 655.60 L 777.63 656.73 L 780.14 657.40 L 782.74 657.62 L 785.34 657.40 L 787.85 656.73 L 790.30 655.60 L 792.57 653.99 L 794.48 652.02 L 796.01 649.73 L 797.11 647.18 L 840.22 661.19 Z" fill="#cce5f9" fill-rule="evenodd" group-id="3,7,16" id="Segment-45" node-id="98" stroke="none" target-height="60.419983" target-width="117.91998" target-x="722.3" target-y="642.51"></path><path d="M 853.69 603.17 L 856.42 607.25 L 858.79 611.45 L 860.79 615.78 L 862.44 620.26 L 863.74 624.86 L 864.67 629.50 L 865.23 634.20 L 865.43 638.97 L 865.25 643.74 L 864.69 648.47 L 863.75 653.19 L 862.42 657.91 L 818.58 643.76 L 819.14 641.39 L 819.33 639.03 L 819.14 636.66 L 818.58 634.35 L 817.67 632.16 L 816.39 630.08 L 853.69 603.17 Z" fill="#99cbf2" fill-rule="evenodd" group-id="3,7,17" id="Segment-15" node-id="99" stroke="none" target-height="54.73999" target-width="49.039978" target-x="816.39" target-y="603.17"></path><path d="M 785.40 328.70 L 786.27 327.96 L 787.30 327.62 L 788.38 327.70 L 789.40 328.20 L 790.14 329.07 L 790.48 330.10 L 790.41 331.18 L 789.90 332.20 L 786.74 335.83 L 783.15 339.16 L 779.10 342.22 L 774.54 345.00 L 769.44 347.50 L 763.73 349.70 L 757.37 351.59 L 750.28 353.13 L 742.39 354.29 L 733.64 355.04 L 723.95 355.32 L 722.97 355.32 L 714.97 355.63 L 707.33 356.50 L 700.04 357.91 L 693.05 359.86 L 686.21 362.37 L 679.61 365.39 L 673.22 368.92 L 667.03 372.99 L 660.95 377.64 L 655.12 382.74 L 649.54 388.32 L 644.29 394.23 L 639.14 400.67 L 634.08 407.69 L 633.40 408.66 L 630.76 412.19 L 628.05 415.16 L 625.29 417.61 L 622.46 419.61 L 619.55 421.17 L 615.64 422.64 L 611.49 423.52 L 607.06 423.82 L 602.28 423.49 L 597.08 422.59 L 596.47 422.45 L 595.84 422.29 L 595.20 422.13 L 594.56 421.95 L 593.91 421.77 L 593.25 421.57 L 592.59 421.37 L 591.91 421.15 L 591.22 420.92 L 590.52 420.68 L 589.81 420.42 L 589.08 420.15 L 588.33 419.87 L 587.57 419.57 L 586.78 419.26 L 585.98 418.93 L 585.15 418.59 L 584.30 418.23 L 582.98 417.66 L 581.60 417.05 L 579.66 416.18 L 577.59 415.23 L 575.39 414.21 L 572.44 412.81 L 569.24 411.28 L 565.82 409.63 L 562.04 408.10 L 558.43 407.24 L 554.96 406.99 L 551.57 407.32 L 548.21 408.23 L 544.85 409.76 L 541.90 411.64 L 538.87 414.13 L 535.75 417.30 L 532.53 421.26 L 529.18 426.11 L 525.73 431.99 L 524.99 432.86 L 524.03 433.35 L 522.95 433.46 L 521.86 433.12 L 520.99 432.38 L 520.49 431.42 L 520.39 430.34 L 520.72 429.25 L 524.54 422.81 L 528.30 417.43 L 532.01 413.00 L 535.66 409.40 L 539.27 406.55 L 542.86 404.36 L 546.31 402.82 L 549.76 401.81 L 553.25 401.30 L 556.82 401.30 L 560.49 401.80 L 564.30 402.85 L 568.29 404.49 L 573.41 406.95 L 576.27 408.32 L 579.43 409.79 L 581.37 410.69 L 582.30 411.11 L 584.07 411.91 L 585.34 412.46 L 586.15 412.81 L 587.32 413.31 L 588.45 413.78 L 589.53 414.21 L 590.58 414.61 L 591.58 414.99 L 592.56 415.34 L 593.50 415.66 L 594.12 415.86 L 595.02 416.14 L 595.61 416.31 L 596.20 416.48 L 596.77 416.63 L 597.34 416.78 L 597.91 416.92 L 598.48 417.05 L 599.04 417.17 L 599.88 417.34 L 600.44 417.44 L 601.00 417.54 L 601.86 417.67 L 602.72 417.79 L 603.01 417.83 L 606.98 418.12 L 610.64 417.88 L 614.05 417.16 L 617.23 415.97 L 620.16 414.31 L 623.04 412.06 L 625.88 409.14 L 628.69 405.45 L 634.04 397.96 L 639.49 391.08 L 645.06 384.76 L 650.99 378.79 L 657.21 373.33 L 663.73 368.34 L 670.18 364.10 L 676.84 360.40 L 683.73 357.23 L 690.86 354.58 L 698.15 352.50 L 705.74 350.98 L 713.68 350.01 L 721.98 349.63 L 722.97 349.62 L 731.65 349.42 L 739.49 348.86 L 741.10 348.69 L 749.54 347.45 L 756.97 345.79 L 763.49 343.74 L 769.20 341.35 L 774.17 338.64 L 778.49 335.63 L 782.22 332.32 L 785.40 328.70 Z" fill="#cce5f9" fill-rule="evenodd" group-id="3,7" id="路径" node-id="100" stroke="none" target-height="105.84" target-width="270.08997" target-x="520.39" target-y="327.62"></path><path d="M 787.65 293.87 L 788.77 294.10 L 789.67 294.70 L 790.28 295.60 L 790.50 296.72 L 790.28 297.84 L 789.67 298.73 L 788.77 299.34 L 787.65 299.57 L 782.91 299.83 L 778.49 300.59 L 774.37 301.83 L 770.51 303.55 L 766.88 305.71 L 763.36 308.39 L 759.93 311.62 L 756.57 315.46 L 756.29 315.81 L 755.74 316.52 L 755.19 317.24 L 754.65 317.96 L 754.11 318.70 L 753.58 319.44 L 753.06 320.20 L 752.80 320.59 L 752.28 321.36 L 751.76 322.16 L 751.25 322.97 L 750.74 323.79 L 750.23 324.64 L 749.72 325.50 L 749.21 326.38 L 748.95 326.83 L 748.44 327.75 L 748.18 328.22 L 747.67 329.17 L 747.15 330.15 L 746.62 331.15 L 746.10 332.18 L 745.57 333.24 L 744.76 334.89 L 744.21 336.02 L 743.66 337.19 L 742.81 339.01 L 742.23 340.26 L 741.35 342.21 L 740.44 344.25 L 739.50 346.38 L 738.54 348.59 L 737.20 351.71 L 733.43 360.59 L 732.29 363.24 L 731.19 365.79 L 730.12 368.23 L 729.42 369.80 L 728.73 371.33 L 728.05 372.81 L 727.39 374.26 L 726.73 375.67 L 726.08 377.04 L 725.43 378.38 L 724.79 379.68 L 724.16 380.95 L 723.85 381.57 L 723.22 382.79 L 722.59 383.99 L 721.97 385.16 L 721.35 386.30 L 720.73 387.42 L 720.10 388.51 L 719.48 389.59 L 719.17 390.12 L 718.54 391.16 L 717.90 392.19 L 717.59 392.70 L 716.94 393.70 L 716.62 394.20 L 715.97 395.18 L 715.64 395.67 L 714.98 396.64 L 714.31 397.60 L 713.62 398.55 L 713.28 399.02 L 709.67 403.62 L 705.95 407.70 L 702.11 411.31 L 698.14 414.46 L 693.90 417.27 L 689.43 419.65 L 684.71 421.61 L 679.74 423.15 L 673.49 424.58 L 667.64 425.59 L 662.17 426.20 L 657.03 426.44 L 651.80 426.33 L 646.82 425.86 L 642.07 425.06 L 637.53 423.91 L 631.82 421.97 L 626.41 419.54 L 621.12 416.57 L 615.28 412.73 L 613.94 411.79 L 612.58 410.80 L 611.19 409.77 L 604.87 405.01 L 603.11 403.70 L 601.85 402.78 L 597.28 399.66 L 593.28 397.32 L 589.29 395.44 L 585.52 394.18 L 581.68 393.43 L 577.68 393.18 L 573.61 393.46 L 569.89 394.32 L 566.47 395.72 L 563.30 397.69 L 560.34 400.27 L 557.57 403.53 L 555.00 407.56 L 552.81 412.10 L 550.82 417.55 L 549.07 424.07 L 547.62 431.78 L 546.51 440.84 L 545.83 451.44 L 545.56 452.55 L 544.92 453.42 L 544.00 453.99 L 542.87 454.18 L 541.76 453.91 L 540.89 453.26 L 540.32 452.34 L 540.13 451.22 L 540.73 441.46 L 541.71 432.86 L 543.01 425.30 L 544.59 418.68 L 546.41 412.92 L 548.46 407.92 L 550.69 403.60 L 553.27 399.68 L 556.05 396.39 L 559.02 393.67 L 562.21 391.47 L 565.63 389.76 L 569.32 388.52 L 573.32 387.75 L 577.68 387.48 L 582.29 387.75 L 586.65 388.57 L 590.91 389.94 L 595.31 391.94 L 599.69 394.44 L 604.57 397.71 L 605.83 398.62 L 607.17 399.61 L 613.65 404.50 L 614.58 405.19 L 615.94 406.19 L 616.60 406.68 L 617.91 407.61 L 623.60 411.40 L 628.64 414.27 L 633.77 416.61 L 639.13 418.44 L 644.70 419.76 L 650.67 420.54 L 657.09 420.74 L 663.51 420.36 L 670.55 419.34 L 678.31 417.63 L 682.77 416.24 L 687.01 414.48 L 691.05 412.33 L 694.89 409.78 L 698.47 406.91 L 701.96 403.63 L 705.36 399.88 L 708.68 395.64 L 709.34 394.74 L 709.98 393.83 L 710.62 392.91 L 711.25 391.98 L 711.87 391.04 L 712.49 390.08 L 713.41 388.62 L 714.01 387.62 L 714.32 387.11 L 714.92 386.09 L 715.52 385.04 L 715.82 384.51 L 716.42 383.42 L 716.72 382.87 L 717.32 381.75 L 717.62 381.19 L 718.23 380.03 L 718.83 378.84 L 719.45 377.62 L 720.06 376.37 L 721.00 374.43 L 721.96 372.41 L 722.60 371.02 L 723.26 369.59 L 723.92 368.11 L 724.94 365.83 L 725.64 364.25 L 726.71 361.79 L 732.32 348.62 L 733.34 346.25 L 734.33 343.97 L 735.29 341.79 L 736.22 339.70 L 737.13 337.70 L 738.02 335.78 L 738.60 334.54 L 739.17 333.34 L 740.02 331.60 L 740.85 329.92 L 741.40 328.84 L 741.94 327.79 L 742.48 326.77 L 743.02 325.77 L 743.55 324.79 L 744.09 323.84 L 744.62 322.91 L 745.15 322.00 L 745.69 321.11 L 746.22 320.24 L 746.76 319.38 L 747.30 318.54 L 747.57 318.13 L 748.12 317.31 L 748.40 316.91 L 748.95 316.11 L 749.51 315.32 L 750.08 314.55 L 750.65 313.78 L 751.24 313.02 L 751.53 312.64 L 752.13 311.89 L 755.89 307.59 L 759.78 303.95 L 763.80 300.91 L 767.98 298.43 L 772.42 296.47 L 777.15 295.05 L 782.21 294.17 L 787.65 293.87 Z" fill="#66b2ec" fill-rule="evenodd" group-id="3,7" id="路径" node-id="101" stroke="none" target-height="160.31" target-width="250.37" target-x="540.13" target-y="293.87"></path><path d="M 732.56 369.97 L 732.34 371.51 L 731.78 372.84 L 730.89 374.00 L 729.73 374.89 L 728.40 375.45 L 726.85 375.67 L 725.31 375.45 L 723.98 374.89 L 722.82 374.00 L 721.93 372.84 L 721.37 371.51 L 721.15 369.97 L 721.37 368.42 L 721.93 367.09 L 722.82 365.93 L 723.98 365.04 L 725.31 364.48 L 726.85 364.26 L 728.40 364.48 L 729.73 365.04 L 730.89 365.93 L 731.78 367.09 L 732.34 368.42 L 732.56 369.97 Z" fill="#ffffff" fill-rule="evenodd" group-id="3,7" id="椭圆形" node-id="102" stroke="none" target-height="11.410004" target-width="11.409973" target-x="721.15" target-y="364.26"></path><path d="M 726.85 361.41 L 724.56 361.72 L 722.54 362.58 L 720.81 363.92 L 719.47 365.65 L 718.61 367.67 L 718.30 369.97 L 718.61 372.26 L 719.47 374.28 L 720.81 376.01 L 722.54 377.35 L 724.56 378.21 L 726.85 378.52 L 729.15 378.21 L 731.17 377.35 L 732.90 376.01 L 734.24 374.28 L 735.10 372.26 L 735.41 369.97 L 735.10 367.67 L 734.24 365.65 L 732.90 363.92 L 731.17 362.58 L 729.15 361.72 L 726.85 361.41 Z M 726.85 367.11 L 727.97 367.34 L 728.87 367.95 L 729.48 368.85 L 729.71 369.97 L 729.48 371.08 L 728.87 371.98 L 727.97 372.59 L 726.85 372.82 L 725.74 372.59 L 724.84 371.98 L 724.23 371.08 L 724.00 369.97 L 724.23 368.85 L 724.84 367.95 L 725.74 367.34 L 726.85 367.11 Z" fill="#66b2ec" fill-rule="evenodd" group-id="3,7" id="椭圆形备份-68" node-id="103" stroke="none" target-height="17.109985" target-width="17.109985" target-x="718.3" target-y="361.41"></path><path d="M 578.58 391.63 L 578.36 393.18 L 577.81 394.51 L 576.91 395.66 L 575.76 396.56 L 574.43 397.12 L 572.88 397.33 L 571.33 397.12 L 570.00 396.56 L 568.85 395.66 L 567.95 394.51 L 567.40 393.18 L 567.18 391.63 L 567.40 390.08 L 567.95 388.76 L 568.85 387.60 L 570.00 386.70 L 571.33 386.15 L 572.88 385.93 L 574.43 386.15 L 575.76 386.70 L 576.91 387.60 L 577.81 388.76 L 578.36 390.08 L 578.58 391.63 Z" fill="#ffffff" fill-rule="evenodd" group-id="3,7" id="椭圆形" node-id="104" stroke="none" target-height="11.399994" target-width="11.400024" target-x="567.18" target-y="385.93"></path><path d="M 572.88 383.08 L 570.59 383.39 L 568.56 384.25 L 566.83 385.58 L 565.49 387.32 L 564.64 389.34 L 564.33 391.63 L 564.64 393.92 L 565.49 395.95 L 566.83 397.68 L 568.56 399.02 L 570.59 399.87 L 572.88 400.19 L 575.17 399.87 L 577.20 399.02 L 578.93 397.68 L 580.27 395.95 L 581.12 393.92 L 581.43 391.63 L 581.12 389.34 L 580.27 387.32 L 578.93 385.58 L 577.20 384.25 L 575.17 383.39 L 572.88 383.08 Z M 572.88 388.78 L 574.00 389.01 L 574.90 389.62 L 575.50 390.51 L 575.73 391.63 L 575.50 392.75 L 574.90 393.65 L 574.00 394.26 L 572.88 394.48 L 571.76 394.26 L 570.86 393.65 L 570.26 392.75 L 570.03 391.63 L 570.26 390.51 L 570.86 389.62 L 571.76 389.01 L 572.88 388.78 Z" fill="#66b2ec" fill-rule="evenodd" group-id="3,7" id="椭圆形备份-68" node-id="105" stroke="none" target-height="17.110016" target-width="17.099976" target-x="564.33" target-y="383.08"></path><path d="M 684.65 363.12 L 684.44 364.67 L 683.88 366.00 L 682.98 367.16 L 681.83 368.05 L 680.50 368.61 L 678.95 368.83 L 677.40 368.61 L 676.08 368.05 L 674.92 367.16 L 674.02 366.00 L 673.47 364.67 L 673.25 363.12 L 673.47 361.57 L 674.02 360.25 L 674.92 359.09 L 676.08 358.19 L 677.40 357.64 L 678.95 357.42 L 680.50 357.64 L 681.83 358.19 L 682.98 359.09 L 683.88 360.25 L 684.44 361.57 L 684.65 363.12 Z" fill="#ffffff" fill-rule="evenodd" group-id="3,7" id="椭圆形备份-59" node-id="106" stroke="none" target-height="11.409973" target-width="11.400024" target-x="673.25" target-y="357.42"></path><path d="M 678.95 354.57 L 676.66 354.88 L 674.63 355.74 L 672.90 357.08 L 671.57 358.81 L 670.71 360.83 L 670.40 363.12 L 670.71 365.41 L 671.57 367.44 L 672.90 369.17 L 674.63 370.51 L 676.66 371.37 L 678.95 371.68 L 681.24 371.37 L 683.27 370.51 L 685.00 369.17 L 686.34 367.44 L 687.20 365.41 L 687.51 363.12 L 687.20 360.83 L 686.34 358.81 L 685.00 357.08 L 683.27 355.74 L 681.24 354.88 L 678.95 354.57 Z M 678.95 360.27 L 680.07 360.50 L 680.97 361.11 L 681.58 362.01 L 681.80 363.12 L 681.58 364.24 L 680.97 365.14 L 680.07 365.75 L 678.95 365.97 L 677.83 365.75 L 676.94 365.14 L 676.33 364.24 L 676.10 363.12 L 676.33 362.01 L 676.94 361.11 L 677.83 360.50 L 678.95 360.27 Z" fill="#cce5f9" fill-rule="evenodd" group-id="3,7" id="椭圆形备份-59" node-id="107" stroke="none" target-height="17.109985" target-width="17.109985" target-x="670.4" target-y="354.57"></path><path d="M 599.11 419.00 L 598.89 420.55 L 598.34 421.88 L 597.44 423.03 L 596.29 423.93 L 594.96 424.48 L 593.41 424.70 L 591.86 424.48 L 590.53 423.93 L 589.38 423.03 L 588.48 421.88 L 587.93 420.55 L 587.71 419.00 L 587.93 417.45 L 588.48 416.13 L 589.38 414.97 L 590.53 414.07 L 591.86 413.52 L 593.41 413.30 L 594.96 413.52 L 596.29 414.07 L 597.44 414.97 L 598.34 416.13 L 598.89 417.45 L 599.11 419.00 Z" fill="#ffffff" fill-rule="evenodd" group-id="3,7,18" id="椭圆形备份-59" node-id="109" stroke="none" target-height="11.400024" target-width="11.399963" target-x="587.71" target-y="413.3"></path><path d="M 593.41 410.45 L 591.12 410.76 L 589.09 411.62 L 587.36 412.95 L 586.02 414.68 L 585.17 416.71 L 584.86 419.00 L 585.17 421.29 L 586.02 423.32 L 587.36 425.05 L 589.09 426.39 L 591.12 427.24 L 593.41 427.55 L 595.70 427.24 L 597.73 426.39 L 599.46 425.05 L 600.80 423.32 L 601.65 421.29 L 601.96 419.00 L 601.65 416.71 L 600.80 414.68 L 599.46 412.95 L 597.73 411.62 L 595.70 410.76 L 593.41 410.45 Z M 593.41 416.15 L 594.53 416.38 L 595.43 416.99 L 596.03 417.88 L 596.26 419.00 L 596.03 420.12 L 595.43 421.02 L 594.53 421.62 L 593.41 421.85 L 592.29 421.62 L 591.39 421.02 L 590.79 420.12 L 590.56 419.00 L 590.79 417.88 L 591.39 416.99 L 592.29 416.38 L 593.41 416.15 Z" fill="#cce5f9" fill-rule="evenodd" group-id="3,7,18" id="椭圆形备份-59" node-id="110" stroke="none" target-height="17.099976" target-width="17.100037" target-x="584.86" target-y="410.45"></path></svg>