<?xml version="1.0" standalone="no"?><!DOCTYPE svg PUBLIC "-//W3C//DTD SVG 1.1//EN" "http://www.w3.org/Graphics/SVG/1.1/DTD/svg11.dtd"><svg t="1692255605510" class="icon" viewBox="0 0 1024 1024" version="1.1" xmlns="http://www.w3.org/2000/svg" p-id="41591" width="200" height="200" xmlns:xlink="http://www.w3.org/1999/xlink"><path d="M54.857143 65.865143v201.142857h65.334857c19.584 0 32.621714 13.147429 32.621714 32.877714 0 19.748571-13.037714 32.877714-32.621714 32.877715H54.857143V497.371429h65.334857c19.584 0 32.621714 13.129143 32.621714 32.877714s-13.037714 32.877714-32.621714 32.877714H54.857143v164.699429h65.334857c19.584 0 32.621714 13.129143 32.621714 32.877714s-13.037714 32.859429-32.621714 32.859429H54.857143v164.589714C54.857143 994.340571 84.297143 1024 120.192 1024h653.056V0H120.192C84.187429 0 54.857143 29.677714 54.857143 65.865143zM903.808 0h-65.334857v1024h65.334857C939.702857 1024 969.142857 994.322286 969.142857 958.134857V65.865143C969.142857 29.659429 939.812571 0 903.808 0z" fill="#1296db" p-id="41592" data-spm-anchor-id="a313x.search_index.0.i9.27763a81j8Aitm" class=""></path><path d="M466.029714 786.596571c-19.474286 0-34.688-15.323429-34.688-34.962285v-66.304h-106.276571c-19.474286 0-34.688-15.323429-34.688-34.962286 0-19.638857 15.213714-34.980571 34.688-34.980571h106.276571V564.662857h-106.276571c-19.474286 0-34.688-15.323429-34.688-34.962286 0-19.638857 15.213714-34.980571 34.688-34.980571h102.436571l-108.342857-109.202286a33.956571 33.956571 0 0 1-10.386286-24.594285c0-9.819429 3.821714-18.870857 10.496-24.722286l0.109715-0.109714 0.109714-0.109715a33.499429 33.499429 0 0 1 23.954286-10.038857c9.764571 0 18.724571 3.858286 24.539428 10.477714l0.109715 0.219429 97.828571 97.846857 97.298286-98.944c7.003429-7.058286 14.994286-10.477714 24.411428-10.477714 9.837714 0 18.706286 3.858286 24.502857 10.587428l0.109715 0.109715 0.109714 0.109714c6.582857 6.838857 10.185143 16 9.965714 25.270857-0.219429 9.033143-3.84 17.426286-10.404571 23.497143l-0.219429 0.219429-107.355428 109.641142h102.656c19.474286 0 34.688 15.341714 34.688 34.980572s-15.213714 34.962286-34.688 34.962286h-106.258286v50.742857h106.258286c19.474286 0 34.688 15.341714 34.688 34.980571s-15.213714 34.962286-34.688 34.962286h-106.258286v66.304c0 19.529143-15.542857 35.181714-34.706286 35.181714z" fill="#ffffff" p-id="41593" data-spm-anchor-id="a313x.search_index.0.i10.27763a81j8Aitm" class="selected"></path></svg>