<?xml version="1.0" standalone="no"?><!DOCTYPE svg PUBLIC "-//W3C//DTD SVG 1.1//EN" "http://www.w3.org/Graphics/SVG/1.1/DTD/svg11.dtd"><svg height="800" node-id="1" sillyvg="true" template-height="800" template-width="800" version="1.1" viewBox="0 0 800 800" width="800" xmlns="http://www.w3.org/2000/svg" xmlns:xlink="http://www.w3.org/1999/xlink"><defs node-id="165"><linearGradient gradientUnits="userSpaceOnUse" id="SVGID_1_" node-id="15" spreadMethod="pad" x1="401.85" x2="401.85" y1="159.6539" y2="715.1456"><stop offset="0.00000009590021" stop-color="#f4f2fb"></stop><stop offset="1" stop-color="#e1eef5"></stop></linearGradient><linearGradient gradientUnits="userSpaceOnUse" id="SVGID_2_" node-id="19" spreadMethod="pad" x1="451.0797" x2="600.8154" y1="600.9677" y2="341.6179"><stop offset="0.3619" stop-color="#b4c9db"></stop><stop offset="0.8978" stop-color="#ecf0f9"></stop></linearGradient><linearGradient gradientUnits="userSpaceOnUse" id="SVGID_3_" node-id="24" spreadMethod="pad" x1="116.9318" x2="116.9318" y1="541.0431" y2="403.8685"><stop offset="0.2267" stop-color="#d0dceb"></stop><stop offset="0.7893" stop-color="#ecf1fb"></stop></linearGradient><linearGradient gradientUnits="userSpaceOnUse" id="SVGID_4_" node-id="29" spreadMethod="pad" x1="116.9336" x2="116.9336" y1="419.1002" y2="570.2335"><stop offset="0" stop-color="#ecf1fb"></stop><stop offset="0.818" stop-color="#b6c9dd"></stop></linearGradient><linearGradient gradientUnits="userSpaceOnUse" id="SVGID_5_" node-id="34" spreadMethod="pad" x1="618.0606" x2="618.0606" y1="449.5211" y2="361.1967"><stop offset="0.2267" stop-color="#d0dceb"></stop><stop offset="0.7893" stop-color="#ecf1fb"></stop></linearGradient><linearGradient gradientUnits="userSpaceOnUse" id="SVGID_6_" node-id="39" spreadMethod="pad" x1="618.0618" x2="618.0618" y1="371.0041" y2="468.3164"><stop offset="0" stop-color="#ecf1fb"></stop><stop offset="0.818" stop-color="#b6c9dd"></stop></linearGradient><linearGradient gradientUnits="userSpaceOnUse" id="SVGID_7_" node-id="44" spreadMethod="pad" x1="674.7705" x2="674.7705" y1="545.0675" y2="510.7365"><stop offset="0.2267" stop-color="#d0dceb"></stop><stop offset="0.7893" stop-color="#ecf1fb"></stop></linearGradient><linearGradient gradientUnits="userSpaceOnUse" id="SVGID_8_" node-id="48" spreadMethod="pad" x1="674.8311" x2="674.8311" y1="515.0713" y2="570.3348"><stop offset="0" stop-color="#ecf1fb"></stop><stop offset="0.818" stop-color="#b6c9dd"></stop></linearGradient><linearGradient gradientUnits="userSpaceOnUse" id="SVGID_9_" node-id="52" spreadMethod="pad" x1="463.9787" x2="429.2244" y1="86.9145" y2="147.1107"><stop offset="0" stop-color="#ffdb80"></stop><stop offset="1" stop-color="#ffbb24"></stop></linearGradient><linearGradient gradientUnits="userSpaceOnUse" id="SVGID_10_" node-id="56" spreadMethod="pad" x1="421.6415" x2="421.6415" y1="117.3807" y2="174.8347"><stop offset="0" stop-color="#f9fafe"></stop><stop offset="1" stop-color="#e5edf7"></stop></linearGradient><linearGradient gradientUnits="userSpaceOnUse" id="SVGID_11_" node-id="61" spreadMethod="pad" x1="604.9028" x2="180.5468" y1="555.4647" y2="310.4627"><stop offset="0.15" stop-color="#afc5d8"></stop><stop offset="1" stop-color="#dfe8f9"></stop></linearGradient><linearGradient gradientUnits="userSpaceOnUse" id="SVGID_12_" node-id="65" spreadMethod="pad" x1="558.6197" x2="217.2994" y1="607.5993" y2="266.2791"><stop offset="0.15" stop-color="#b6cadc"></stop><stop offset="1" stop-color="#dfe8f9"></stop></linearGradient><linearGradient gradientUnits="userSpaceOnUse" id="SVGID_13_" node-id="69" spreadMethod="pad" x1="359.1888" x2="242.028" y1="538.9403" y2="538.9403"><stop offset="0.15" stop-color="#afc5d8"></stop><stop offset="1" stop-color="#dfe8f9"></stop></linearGradient><linearGradient gradientUnits="userSpaceOnUse" id="SVGID_14_" node-id="73" spreadMethod="pad" x1="356.0627" x2="242.028" y1="541.0836" y2="541.0836"><stop offset="0" stop-color="#ebf2fa"></stop><stop offset="0.5247" stop-color="#fdfeff"></stop></linearGradient><linearGradient gradientUnits="userSpaceOnUse" id="SVGID_15_" node-id="77" spreadMethod="pad" x1="392.1888" x2="242.028" y1="486.5231" y2="486.5231"><stop offset="0.15" stop-color="#afc5d8"></stop><stop offset="1" stop-color="#dfe8f9"></stop></linearGradient><linearGradient gradientUnits="userSpaceOnUse" id="SVGID_16_" node-id="81" spreadMethod="pad" x1="388.0627" x2="242.028" y1="488.6664" y2="488.6664"><stop offset="0" stop-color="#ebf2fa"></stop><stop offset="0.5247" stop-color="#fdfeff"></stop></linearGradient><linearGradient gradientUnits="userSpaceOnUse" id="SVGID_17_" node-id="85" spreadMethod="pad" x1="605.0538" x2="452.4749" y1="602.1349" y2="449.556"><stop offset="0.15" stop-color="#afc5d8"></stop><stop offset="1" stop-color="#dfe8f9"></stop></linearGradient><linearGradient gradientUnits="userSpaceOnUse" id="SVGID_18_" node-id="89" spreadMethod="pad" x1="597.0788" x2="450.2782" y1="600.3316" y2="453.5311"><stop offset="0" stop-color="#c3d1e0"></stop><stop offset="1" stop-color="#e8eff8"></stop></linearGradient><linearGradient gradientUnits="userSpaceOnUse" id="SVGID_19_" node-id="93" spreadMethod="pad" x1="354.3274" x2="252.6977" y1="421.2413" y2="319.6116"><stop offset="0.15" stop-color="#afc5d8"></stop><stop offset="1" stop-color="#cfdcee"></stop></linearGradient><linearGradient gradientUnits="userSpaceOnUse" id="SVGID_20_" node-id="100" spreadMethod="pad" x1="524.0151" x2="524.0151" y1="384.1348" y2="304.966"><stop offset="0" stop-color="#fad96e"></stop><stop offset="1" stop-color="#ffb32c"></stop></linearGradient><linearGradient gradientUnits="userSpaceOnUse" id="SVGID_21_" node-id="104" spreadMethod="pad" x1="525.113" x2="525.113" y1="291.4637" y2="316.5439"><stop offset="0" stop-color="#f4ae98"></stop><stop offset="1" stop-color="#fad1bb"></stop></linearGradient><linearGradient gradientTransform="matrix(0.9901 -0.1406 0.1406 0.9901 447.8171 -582.3776)" gradientUnits="userSpaceOnUse" id="SVGID_22_" node-id="108" spreadMethod="pad" x1="-87.334" x2="-75.0755" y1="974.6929" y2="888.3802"><stop offset="0" stop-color="#fad96e"></stop><stop offset="1" stop-color="#ffa91f"></stop></linearGradient><linearGradient gradientTransform="matrix(-0.9901 -0.1406 -0.1406 0.9901 -8006.876 -582.3776)" gradientUnits="userSpaceOnUse" id="SVGID_23_" node-id="112" spreadMethod="pad" x1="-8607.319" x2="-8595.061" y1="-235.3456" y2="-321.6582"><stop offset="0" stop-color="#fad96e"></stop><stop offset="1" stop-color="#ffa91f"></stop></linearGradient><linearGradient gradientUnits="userSpaceOnUse" id="SVGID_24_" node-id="116" spreadMethod="pad" x1="524.0151" x2="524.0151" y1="355.5437" y2="405.8543"><stop offset="0" stop-color="#275c89"></stop><stop offset="1" stop-color="#013f7c"></stop></linearGradient><linearGradient gradientUnits="userSpaceOnUse" id="SVGID_25_" node-id="122" spreadMethod="pad" x1="8217.262" x2="8199.451" y1="427.567" y2="427.567"><stop offset="0" stop-color="#f4b9a4"></stop><stop offset="0.652" stop-color="#fad1bb"></stop></linearGradient><linearGradient gradientUnits="userSpaceOnUse" id="SVGID_26_" node-id="126" spreadMethod="pad" x1="499.8661" x2="591.7476" y1="407.9369" y2="407.9369"><stop offset="0" stop-color="#18264b"></stop><stop offset="0.652" stop-color="#2d3c65"></stop></linearGradient><linearGradient gradientUnits="userSpaceOnUse" id="SVGID_27_" node-id="130" spreadMethod="pad" x1="479.1492" x2="479.1492" y1="437.8206" y2="418.9145"><stop offset="0" stop-color="#4673bc"></stop><stop offset="0.652" stop-color="#6a94e0"></stop></linearGradient><linearGradient gradientUnits="userSpaceOnUse" id="SVGID_28_" node-id="136" spreadMethod="pad" x1="544.2583" x2="562.069" y1="427.567" y2="427.567"><stop offset="0" stop-color="#f4b9a4"></stop><stop offset="0.652" stop-color="#fad1bb"></stop></linearGradient><linearGradient gradientUnits="userSpaceOnUse" id="SVGID_29_" node-id="140" spreadMethod="pad" x1="459.6585" x2="551.5399" y1="407.9369" y2="407.9369"><stop offset="0" stop-color="#445677"></stop><stop offset="1" stop-color="#293861"></stop></linearGradient><linearGradient gradientUnits="userSpaceOnUse" id="SVGID_30_" node-id="144" spreadMethod="pad" x1="572.2568" x2="572.2568" y1="437.8206" y2="418.9145"><stop offset="0" stop-color="#4673bc"></stop><stop offset="0.652" stop-color="#6a94e0"></stop></linearGradient><linearGradient gradientUnits="userSpaceOnUse" id="SVGID_31_" node-id="148" spreadMethod="pad" x1="541.5285" x2="508.7519" y1="285.7108" y2="285.7108"><stop offset="0" stop-color="#f4b9a4"></stop><stop offset="0.652" stop-color="#fad1bb"></stop></linearGradient><linearGradient gradientUnits="userSpaceOnUse" id="SVGID_32_" node-id="152" spreadMethod="pad" x1="504.2413" x2="542.2947" y1="273.0413" y2="273.0413"><stop offset="0" stop-color="#4f5c7c"></stop><stop offset="1" stop-color="#274168"></stop></linearGradient></defs><g node-id="464"><g node-id="465"><path d="M 485.11 201.01 C 446.74 231.30 364.37 234.82 303.94 198.79 C 243.51 162.76 131.94 167.41 101.72 233.66 C 71.50 299.91 138.91 364.99 114.50 412.64 C 90.09 460.29 8.74 527.68 64.52 609.04 C 120.30 690.40 191.12 669.66 233.74 661.49 C 317.91 645.36 423.53 777.16 542.36 677.62 C 610.83 620.27 712.80 719.71 752.53 596.26 C 785.31 494.40 666.86 456.76 702.56 388.23 C 740.52 315.35 733.23 228.99 692.10 187.17 C 653.79 148.21 551.35 148.71 485.11 201.01 Z" fill="url(#SVGID_1_)" fill-rule="nonzero" group-id="1,2" node-id="365" stroke="none" target-height="628.94995" target-width="776.57" target-x="8.74" target-y="148.21"></path><path d="M 352.51 544.06 C 357.15 532.13 416.12 385.70 416.12 385.70 L 677.18 385.70 L 624.39 576.60 L 352.51 544.06 Z" fill="url(#SVGID_2_)" fill-rule="nonzero" group-id="1,2" node-id="367" stroke="none" target-height="190.89996" target-width="324.66998" target-x="352.51" target-y="385.7"></path><g node-id="468"><path d="M 117.71 404.11 C 117.71 404.11 117.49 403.54 117.19 404.15 C 114.49 409.64 90.04 469.11 88.10 515.01 C 88.10 515.01 84.02 541.38 118.21 541.03 C 146.75 540.74 145.99 516.43 145.89 508.24 C 145.51 475.02 117.71 404.11 117.71 404.11 Z" fill="url(#SVGID_3_)" fill-rule="nonzero" group-id="1,2,5" node-id="371" stroke="none" target-height="137.84" target-width="62.730003" target-x="84.02" target-y="403.54"></path><g node-id="473"><path d="M 116.93 570.23 C 116.38 570.23 115.93 569.78 115.93 569.23 L 115.93 420.10 C 115.93 419.55 116.38 419.10 116.93 419.10 C 117.48 419.10 117.93 419.55 117.93 420.10 L 117.93 569.23 C 117.93 569.79 117.49 570.23 116.93 570.23 Z" fill="url(#SVGID_4_)" fill-rule="nonzero" group-id="1,2,5,10" node-id="375" stroke="none" target-height="151.12997" target-width="2" target-x="115.93" target-y="419.1"></path></g></g><g node-id="469"><path d="M 618.56 361.35 C 618.56 361.35 618.42 360.98 618.23 361.38 C 616.49 364.91 600.75 403.21 599.50 432.76 C 599.50 432.76 596.87 449.74 618.89 449.52 C 637.27 449.34 636.78 433.68 636.71 428.41 C 636.46 407.01 618.56 361.35 618.56 361.35 Z" fill="url(#SVGID_5_)" fill-rule="nonzero" group-id="1,2,6" node-id="381" stroke="none" target-height="88.75998" target-width="40.400024" target-x="596.87" target-y="360.98"></path><g node-id="474"><path d="M 618.06 468.32 C 617.70 468.32 617.42 468.03 617.42 467.68 L 617.42 371.66 C 617.42 371.30 617.71 371.02 618.06 371.02 C 618.41 371.02 618.70 371.31 618.70 371.66 L 618.70 467.68 C 618.71 468.03 618.42 468.32 618.06 468.32 Z" fill="url(#SVGID_6_)" fill-rule="nonzero" group-id="1,2,6,11" node-id="385" stroke="none" target-height="97.30002" target-width="1.2900391" target-x="617.42" target-y="371.02"></path></g></g><g node-id="470"><path d="M 691.94 527.90 C 691.94 537.38 684.25 545.07 674.77 545.07 C 665.29 545.07 657.60 537.38 657.60 527.90 C 657.60 518.42 665.29 510.73 674.77 510.73 C 684.25 510.73 691.94 518.42 691.94 527.90 Z" fill="url(#SVGID_7_)" fill-rule="nonzero" group-id="1,2,7" node-id="391" stroke="none" target-height="34.339996" target-width="34.340027" target-x="657.6" target-y="510.73"></path><path d="M 674.83 570.33 C 674.54 570.33 674.30 570.09 674.30 569.80 L 674.30 515.60 C 674.30 515.31 674.54 515.07 674.83 515.07 C 675.12 515.07 675.36 515.31 675.36 515.60 L 675.36 569.81 C 675.36 570.10 675.12 570.33 674.83 570.33 Z" fill="url(#SVGID_8_)" fill-rule="nonzero" group-id="1,2,7" node-id="393" stroke="none" target-height="55.26001" target-width="1.0599976" target-x="674.3" target-y="515.07"></path></g><path d="M 481.35 117.01 C 481.35 136.20 465.79 151.76 446.60 151.76 C 427.41 151.76 411.85 136.20 411.85 117.01 C 411.85 97.82 427.41 82.26 446.60 82.26 C 465.79 82.26 481.35 97.82 481.35 117.01 Z" fill="url(#SVGID_9_)" fill-rule="nonzero" group-id="1,2" node-id="396" stroke="none" target-height="69.49999" target-width="69.5" target-x="411.85" target-y="82.26"></path><path d="M 466.38 135.96 L 431.81 135.96 C 429.58 125.35 420.16 117.38 408.88 117.38 C 397.60 117.38 388.19 125.35 385.95 135.96 L 376.90 135.96 C 366.17 135.96 357.46 144.66 357.46 155.40 L 357.46 155.40 C 357.46 166.13 366.16 174.84 376.90 174.84 L 466.37 174.84 C 477.10 174.84 485.81 166.14 485.81 155.40 L 485.81 155.40 C 485.81 144.66 477.11 135.96 466.38 135.96 Z" fill="url(#SVGID_10_)" fill-rule="nonzero" group-id="1,2" node-id="398" stroke="none" target-height="57.46" target-width="128.35" target-x="357.46" target-y="117.38"></path></g><g node-id="466"><path d="M 532.96 609.12 L 252.49 609.12 C 213.32 609.12 181.56 577.37 181.56 538.19 L 181.56 327.73 C 181.56 288.56 213.31 256.80 252.49 256.80 L 532.96 256.80 C 572.13 256.80 603.89 288.55 603.89 327.73 L 603.89 538.20 C 603.88 577.37 572.13 609.12 532.96 609.12 Z" fill="url(#SVGID_11_)" fill-rule="nonzero" group-id="1,3" node-id="403" stroke="none" target-height="352.32" target-width="422.33002" target-x="181.56" target-y="256.8"></path><path d="M 530.75 609.12 L 245.17 609.12 C 210.04 609.12 181.56 580.64 181.56 545.51 L 181.56 328.36 C 181.56 293.23 210.04 264.75 245.17 264.75 L 530.74 264.75 C 565.87 264.75 594.35 293.23 594.35 328.36 L 594.35 545.52 C 594.35 580.65 565.88 609.12 530.75 609.12 Z" fill="url(#SVGID_12_)" fill-rule="nonzero" group-id="1,3" node-id="405" stroke="none" target-height="344.37" target-width="412.78998" target-x="181.56" target-y="264.75"></path><path d="M 343.23 556.66 L 257.98 556.66 C 249.17 556.66 242.03 548.73 242.03 538.94 C 242.03 529.15 249.17 521.22 257.98 521.22 L 343.23 521.22 C 352.04 521.22 359.18 529.15 359.18 538.94 C 359.19 548.73 352.05 556.66 343.23 556.66 Z" fill="url(#SVGID_13_)" fill-rule="nonzero" group-id="1,3" node-id="407" stroke="none" target-height="35.440002" target-width="117.16" target-x="242.03" target-y="521.22"></path><path d="M 340.57 556.57 L 257.51 556.57 C 248.96 556.57 242.02 549.64 242.02 541.08 C 242.02 532.52 248.95 525.59 257.51 525.59 L 340.57 525.59 C 349.12 525.59 356.06 532.52 356.06 541.08 C 356.06 549.64 349.13 556.57 340.57 556.57 Z" fill="url(#SVGID_14_)" fill-rule="nonzero" group-id="1,3" node-id="409" stroke="none" target-height="30.97998" target-width="114.03999" target-x="242.02" target-y="525.59"></path><path d="M 375.23 504.25 L 257.98 504.25 C 249.17 504.25 242.03 496.32 242.03 486.53 C 242.03 476.74 249.17 468.81 257.98 468.81 L 376.23 468.81 C 385.04 468.81 392.18 476.74 392.18 486.53 C 392.19 496.31 384.05 504.25 375.23 504.25 Z" fill="url(#SVGID_15_)" fill-rule="nonzero" group-id="1,3" node-id="411" stroke="none" target-height="35.440002" target-width="150.16" target-x="242.03" target-y="468.81"></path><path d="M 373.57 504.16 L 258.52 504.16 C 248.97 504.16 242.03 497.23 242.03 488.67 C 242.03 480.11 248.96 473.18 257.52 473.18 L 373.58 473.18 C 382.13 473.18 388.07 480.11 388.07 488.67 C 388.07 497.23 381.13 504.16 373.57 504.16 Z" fill="url(#SVGID_16_)" fill-rule="nonzero" group-id="1,3" node-id="413" stroke="none" target-height="30.980011" target-width="146.04001" target-x="242.03" target-y="473.18"></path><path d="M 636.65 525.85 C 636.65 585.44 588.35 633.74 528.76 633.74 C 469.17 633.74 420.87 585.44 420.87 525.85 C 420.87 466.26 469.17 417.96 528.76 417.96 C 588.35 417.96 636.65 466.26 636.65 525.85 Z" fill="url(#SVGID_17_)" fill-rule="nonzero" group-id="1,3" node-id="415" stroke="none" target-height="215.78" target-width="215.78003" target-x="420.87" target-y="417.96"></path><path d="M 627.48 526.93 C 627.48 584.26 581.01 630.73 523.68 630.73 C 466.35 630.73 419.88 584.26 419.88 526.93 C 419.88 469.60 466.35 423.13 523.68 423.13 C 581.01 423.13 627.48 469.60 627.48 526.93 Z" fill="url(#SVGID_18_)" fill-rule="nonzero" group-id="1,3" node-id="417" stroke="none" target-height="207.59998" target-width="207.59998" target-x="419.88" target-y="423.13"></path><path d="M 348.62 388.86 L 319.76 388.86 L 319.76 379.67 L 348.62 379.67 C 357.39 379.67 364.50 372.62 364.50 363.93 C 364.50 355.24 357.39 348.19 348.62 348.19 L 335.57 348.19 L 347.76 335.42 C 353.79 329.11 353.51 319.15 347.14 313.17 C 340.77 307.20 330.72 307.47 324.70 313.79 L 303.48 336.03 L 280.59 313.90 C 274.31 307.83 264.26 307.95 258.14 314.18 C 252.02 320.40 252.14 330.37 258.42 336.43 L 270.58 348.19 L 259.16 348.19 C 250.39 348.19 243.28 355.24 243.28 363.93 C 243.28 372.62 250.39 379.67 259.16 379.67 L 288.02 379.67 L 288.02 388.86 L 259.16 388.86 C 250.39 388.86 243.28 395.91 243.28 404.60 C 243.28 413.29 250.39 420.34 259.16 420.34 L 288.02 420.34 L 288.02 435.28 C 288.02 443.97 295.13 451.02 303.90 451.02 C 312.67 451.02 319.78 443.97 319.78 435.28 L 319.78 420.34 L 348.64 420.34 C 357.41 420.34 364.52 413.29 364.52 404.60 C 364.50 395.90 357.39 388.86 348.62 388.86 Z" fill="url(#SVGID_19_)" fill-rule="nonzero" group-id="1,3" node-id="419" stroke="none" target-height="143.81998" target-width="121.23999" target-x="243.28" target-y="307.2"></path><path d="M 343.04 390.53 L 315.71 390.53 L 315.71 381.75 L 343.04 381.75 C 351.34 381.75 358.08 375.02 358.08 366.71 C 358.08 358.40 351.35 351.67 343.04 351.67 L 330.68 351.67 L 342.22 339.47 C 347.93 333.44 347.66 323.92 341.63 318.21 C 335.60 312.50 326.08 312.77 320.37 318.80 L 300.27 340.05 L 278.59 318.91 C 272.64 313.11 263.12 313.23 257.33 319.18 C 251.53 325.12 251.65 334.64 257.60 340.44 L 269.12 351.67 L 258.31 351.67 C 250.01 351.67 243.27 358.40 243.27 366.71 C 243.27 375.02 250.00 381.75 258.31 381.75 L 285.64 381.75 L 285.64 390.53 L 258.31 390.53 C 250.01 390.53 243.27 397.26 243.27 405.57 C 243.27 413.88 250.00 420.61 258.31 420.61 L 285.64 420.61 L 285.64 434.89 C 285.64 443.19 292.37 449.93 300.68 449.93 C 308.99 449.93 315.72 443.20 315.72 434.89 L 315.72 420.60 L 343.05 420.60 C 351.35 420.60 358.09 413.87 358.09 405.56 C 358.09 397.25 351.35 390.53 343.04 390.53 Z" fill="#ffffff" fill-rule="nonzero" group-id="1,3" node-id="421" stroke="none" target-height="137.43" target-width="114.81999" target-x="243.27" target-y="312.5"></path><path d="M 459.75 515.56 L 489.84 477.19 C 495.29 470.24 505.35 469.02 512.30 474.47 C 519.25 479.92 520.47 489.98 515.02 496.93 L 506.01 508.42 L 580.55 508.42 C 589.39 508.42 596.55 515.58 596.55 524.42 C 596.55 533.26 589.39 540.42 580.55 540.42 L 507.70 540.42 L 517.35 550.99 C 523.31 557.52 522.85 567.64 516.32 573.59 C 513.25 576.39 509.39 577.77 505.54 577.77 C 501.20 577.77 496.87 576.02 493.72 572.56 L 460.53 536.20 C 455.26 530.45 454.93 521.71 459.75 515.56 Z" fill="#ffffff" fill-rule="nonzero" group-id="1,3" node-id="423" stroke="none" target-height="108.75003" target-width="141.62" target-x="454.93" target-y="469.02"></path></g><g node-id="467"><path d="M 515.85 305.34 C 515.85 305.34 496.64 302.68 490.40 311.51 C 484.16 320.34 481.88 342.93 481.88 342.93 L 496.34 342.17 L 495.12 368.49 L 521.80 384.13 L 559.80 363.69 L 554.02 339.84 L 566.16 336.67 C 566.16 336.67 562.54 302.06 545.65 307.17 C 536.98 308.10 534.24 307.94 534.24 307.94 C 534.24 307.94 531.96 315.22 524.12 314.60 C 516.27 313.99 515.85 305.34 515.85 305.34 Z" fill="url(#SVGID_20_)" fill-rule="nonzero" group-id="1,4" node-id="428" stroke="none" target-height="82.07001" target-width="84.27997" target-x="481.88" target-y="302.06"></path><path d="M 517.76 294.46 L 513.77 312.26 C 513.58 313.10 514.02 313.95 514.81 314.27 C 516.87 315.11 521.00 316.54 525.25 316.54 C 529.65 316.54 533.81 314.13 535.72 312.84 C 536.38 312.40 536.65 311.57 536.40 310.82 L 530.30 292.66 C 530.02 291.83 529.18 291.34 528.32 291.49 L 519.17 293.11 C 518.48 293.24 517.92 293.77 517.76 294.46 Z" fill="url(#SVGID_21_)" fill-rule="nonzero" group-id="1,4" node-id="430" stroke="none" target-height="25.200012" target-width="23.070007" target-x="513.58" target-y="291.34"></path><path d="M 493.91 308.42 C 499.50 306.56 507.08 307.81 507.39 320.35 C 507.70 332.89 495.41 352.88 499.81 359.83 C 504.27 366.88 513.81 376.88 519.87 382.58 C 518.46 389.28 514.65 394.91 514.65 394.91 C 514.65 394.91 492.29 384.59 482.55 374.26 C 472.81 363.93 477.73 340.23 482.24 323.37 C 485.65 310.66 493.91 308.42 493.91 308.42 Z" fill="url(#SVGID_22_)" fill-rule="nonzero" group-id="1,4" node-id="432" stroke="none" target-height="88.350006" target-width="47.059998" target-x="472.81" target-y="306.56"></path><path d="M 552.51 308.42 C 546.92 306.56 539.34 307.81 539.03 320.35 C 538.72 332.89 551.01 352.88 546.61 359.83 C 542.15 366.88 532.61 376.88 526.55 382.58 C 527.96 389.28 531.77 394.91 531.77 394.91 C 531.77 394.91 554.13 384.59 563.87 374.26 C 573.61 363.93 568.69 340.23 564.18 323.37 C 560.78 310.66 552.51 308.42 552.51 308.42 Z" fill="url(#SVGID_23_)" fill-rule="nonzero" group-id="1,4" node-id="434" stroke="none" target-height="88.350006" target-width="47.059998" target-x="526.55" target-y="306.56"></path><path d="M 496.63 405.85 L 550.92 405.85 C 553.38 405.85 555.58 403.99 556.43 401.18 L 567.37 365.18 C 568.79 360.51 565.95 355.54 561.86 355.54 L 486.18 355.54 C 482.13 355.54 479.29 360.42 480.64 365.08 L 491.09 401.08 C 491.92 403.94 494.14 405.85 496.63 405.85 Z" fill="url(#SVGID_24_)" fill-rule="nonzero" group-id="1,4" node-id="436" stroke="none" target-height="50.309998" target-width="89.49997" target-x="479.29" target-y="355.54"></path><g node-id="471"><path d="M 494.46 422.41 C 494.46 422.41 493.62 420.56 492.98 420.36 C 492.33 420.16 483.05 419.79 479.66 418.91 C 476.27 418.03 466.51 416.64 462.32 420.60 C 458.68 424.05 457.47 432.11 463.02 436.75 C 465.10 438.56 467.15 439.09 474.86 438.73 C 482.57 438.37 493.75 438.45 496.20 434.88 C 496.12 428.98 494.46 422.41 494.46 422.41 Z" fill="#ffffff" fill-rule="nonzero" group-id="1,4,8" node-id="440" stroke="none" target-height="22.449982" target-width="38.73001" target-x="457.47" target-y="416.64"></path><path d="M 503.08 420.36 C 503.08 420.36 494.12 422.37 490.91 422.08 C 487.70 421.79 490.39 434.70 490.39 434.70 C 490.39 434.70 498.95 435.29 506.52 433.10 C 509.07 423.21 503.08 420.36 503.08 420.36 Z" fill="url(#SVGID_25_)" fill-rule="nonzero" group-id="1,4,8" node-id="442" stroke="none" target-height="14.930023" target-width="21.369995" target-x="487.7" target-y="420.36"></path><path d="M 499.87 419.89 L 504.53 434.38 C 504.53 434.38 604.66 421.19 590.35 388.70 C 578.38 361.54 499.87 419.89 499.87 419.89 Z" fill="url(#SVGID_26_)" fill-rule="nonzero" group-id="1,4,8" node-id="444" stroke="none" target-height="72.84" target-width="104.78998" target-x="499.87" target-y="361.54"></path><path d="M 493.30 421.02 C 493.30 421.02 496.97 422.46 497.43 427.57 C 497.90 432.69 496.38 436.12 488.58 437.07 C 480.78 438.02 478.80 437.66 473.91 437.78 C 469.02 437.90 461.92 438.37 460.87 429.07 C 459.82 419.77 469.33 417.40 479.19 419.77 C 482.29 420.36 493.30 421.02 493.30 421.02 Z" fill="url(#SVGID_27_)" fill-rule="nonzero" group-id="1,4,8" node-id="446" stroke="none" target-height="20.970001" target-width="38.079987" target-x="459.82" target-y="417.4"></path></g><g node-id="472"><path d="M 556.94 422.41 C 556.94 422.41 557.78 420.56 558.42 420.36 C 559.06 420.16 568.35 419.79 571.74 418.91 C 575.13 418.03 584.23 416.57 588.83 420.49 C 593.09 424.13 593.37 432.18 588.52 436.62 C 586.44 438.43 584.25 439.09 576.54 438.73 C 568.83 438.37 557.65 438.45 555.20 434.88 C 555.28 428.98 556.94 422.41 556.94 422.41 Z" fill="#ffffff" fill-rule="nonzero" group-id="1,4,9" node-id="451" stroke="none" target-height="22.519989" target-width="38.169983" target-x="555.2" target-y="416.57"></path><path d="M 548.33 420.36 C 548.33 420.36 557.29 422.37 560.50 422.08 C 563.70 421.78 561.02 434.70 561.02 434.70 C 561.02 434.70 552.46 435.29 544.89 433.10 C 542.33 423.21 548.33 420.36 548.33 420.36 Z" fill="url(#SVGID_28_)" fill-rule="nonzero" group-id="1,4,9" node-id="453" stroke="none" target-height="14.930023" target-width="21.369995" target-x="542.33" target-y="420.36"></path><path d="M 551.54 419.89 L 546.88 434.38 C 546.88 434.38 446.75 421.19 461.06 388.70 C 473.02 361.54 551.54 419.89 551.54 419.89 Z" fill="url(#SVGID_29_)" fill-rule="nonzero" group-id="1,4,9" node-id="455" stroke="none" target-height="72.84" target-width="104.78998" target-x="446.75" target-y="361.54"></path><path d="M 558.11 421.02 C 558.11 421.02 554.44 422.46 553.98 427.57 C 553.51 432.69 555.03 436.12 562.83 437.07 C 570.63 438.02 572.61 437.66 577.50 437.78 C 582.39 437.90 589.49 438.37 590.54 429.07 C 591.59 419.77 582.08 417.40 572.22 419.77 C 569.11 420.36 558.11 421.02 558.11 421.02 Z" fill="url(#SVGID_30_)" fill-rule="nonzero" group-id="1,4,9" node-id="457" stroke="none" target-height="20.970001" target-width="38.080017" target-x="553.51" target-y="417.4"></path></g><path d="M 540.82 287.34 C 541.41 286.49 541.79 284.32 541.31 283.69 C 540.43 282.98 539.60 283.39 538.97 284.01 C 539.11 278.82 538.65 274.51 538.53 273.42 C 538.21 270.24 534.97 264.42 524.40 264.42 C 513.83 264.42 511.78 272.05 511.78 272.05 C 511.78 272.05 511.09 277.45 511.30 284.00 C 510.67 283.40 509.85 283.01 508.98 283.71 C 508.49 284.35 508.87 286.52 509.47 287.36 C 510.06 288.21 510.44 290.22 510.55 291.33 C 510.65 292.39 509.89 295.20 512.67 294.85 C 514.33 301.49 521.05 307.04 525.22 307.04 C 529.79 307.04 535.85 301.46 537.58 294.85 C 540.42 295.24 539.65 292.40 539.75 291.34 C 539.85 290.20 540.23 288.19 540.82 287.34 Z" fill="url(#SVGID_31_)" fill-rule="nonzero" group-id="1,4" node-id="460" stroke="none" target-height="42.619995" target-width="33.299988" target-x="508.49" target-y="264.42"></path><path d="M 532.02 262.14 C 532.02 262.14 529.96 255.64 522.05 257.20 C 514.14 258.75 513.61 262.49 510.50 262.64 C 505.20 262.89 500.97 269.49 507.76 276.48 C 510.79 279.59 508.23 280.93 509.67 283.68 C 511.11 286.43 511.10 289.12 511.10 289.12 C 511.10 289.12 513.63 281.05 511.96 277.61 C 511.10 275.84 514.91 275.35 519.65 275.77 C 524.40 276.19 531.87 274.62 532.47 271.39 C 533.87 278.01 535.27 278.70 537.05 279.71 C 538.83 280.72 538.94 288.71 538.94 288.71 C 538.94 288.71 539.26 282.83 540.50 281.51 C 541.52 279.34 543.53 270.81 541.26 268.74 C 538.99 266.68 540.90 260.04 532.02 262.14 Z" fill="url(#SVGID_32_)" fill-rule="nonzero" group-id="1,4" node-id="462" stroke="none" target-height="33.479996" target-width="42.560028" target-x="500.97" target-y="255.64"></path></g></g></svg>