<?xml version="1.0" standalone="no"?><!DOCTYPE svg PUBLIC "-//W3C//DTD SVG 1.1//EN" "http://www.w3.org/Graphics/SVG/1.1/DTD/svg11.dtd"><svg height="1024" node-id="1" sillyvg="true" template-height="1024" template-width="1024" version="1.1" viewBox="0 0 1024 1024" width="1024" xmlns="http://www.w3.org/2000/svg" xmlns:xlink="http://www.w3.org/1999/xlink"><defs node-id="113"><clipPath id="mask-2" node-id="22"><path d="M 316.23 154.41 L 316.33 166.16 L 316.82 174.33 L 317.56 179.74 L 318.42 183.11 L 319.37 185.18 L 320.73 187.02 L 322.52 188.67 L 324.83 190.13 L 327.73 191.39 L 331.36 192.43 L 332.24 200.38 L 332.47 207.20 L 332.14 213.03 L 331.34 217.99 L 330.13 222.21 L 328.56 225.77 L 326.65 228.77 L 324.40 231.29 L 321.81 233.36 L 318.82 235.03 L 315.39 236.28 L 311.44 237.11 L 306.89 237.45 L 301.63 237.25 L 298.13 236.64 L 294.74 235.52 L 291.43 233.88 L 288.32 231.84 L 285.35 229.47 L 282.52 226.73 L 278.70 222.24 L 275.38 217.42 L 272.59 212.37 L 270.49 207.53 L 269.40 204.23 L 268.70 201.29 L 268.34 198.67 L 268.32 196.04 L 268.70 194.00 L 269.40 192.43 L 270.03 191.84 L 271.52 190.89 L 273.23 189.77 L 275.52 187.91 L 277.78 185.59 L 280.35 182.06 L 281.36 179.84 L 282.42 175.80 L 283.44 169.14 L 284.32 158.91 L 284.95 144.00 L 285.18 123.18 L 316.23 154.41 Z" fill="#000000" fill-rule="evenodd" node-id="118" stroke="none" target-height="114.27" target-width="64.149994" target-x="268.32" target-y="123.18"></path></clipPath><clipPath id="mask-4" node-id="66"><path d="M 770.56 161.34 L 770.31 167.19 L 769.63 172.82 L 768.51 178.28 L 766.97 183.58 L 765.01 188.76 L 762.69 193.69 L 760.02 198.39 L 756.98 202.88 L 753.60 207.13 L 749.94 211.08 L 745.99 214.73 L 741.74 218.11 L 737.24 221.14 L 732.54 223.82 L 727.60 226.13 L 722.41 228.09 L 717.11 229.63 L 711.65 230.75 L 706.01 231.43 L 700.16 231.68 L 694.31 231.43 L 688.67 230.75 L 683.21 229.63 L 677.91 228.09 L 672.72 226.13 L 667.78 223.82 L 663.08 221.14 L 658.58 218.11 L 654.33 214.73 L 650.38 211.08 L 646.72 207.13 L 643.34 202.88 L 640.30 198.39 L 637.63 193.69 L 635.31 188.76 L 633.35 183.58 L 631.81 178.28 L 630.69 172.82 L 630.01 167.19 L 629.76 161.34 L 629.76 161.34 L 629.76 113.98 L 770.56 113.98 Z" fill="#000000" fill-rule="evenodd" node-id="125" stroke="none" target-height="117.69999" target-width="140.79999" target-x="629.76" target-y="113.98"></path></clipPath><clipPath id="mask-6" node-id="72"><path d="M 629.76 326.34 L 630.01 320.49 L 630.69 314.86 L 631.81 309.40 L 633.35 304.10 L 635.31 298.92 L 637.63 293.99 L 640.30 289.29 L 643.34 284.80 L 646.72 280.55 L 650.38 276.60 L 654.33 272.95 L 658.58 269.57 L 663.08 266.54 L 667.78 263.86 L 672.72 261.55 L 677.91 259.59 L 683.21 258.05 L 688.67 256.93 L 694.31 256.25 L 700.16 256.00 L 706.01 256.25 L 711.65 256.93 L 717.11 258.05 L 722.41 259.59 L 727.60 261.55 L 732.54 263.86 L 737.24 266.54 L 741.74 269.57 L 745.99 272.95 L 749.94 276.60 L 753.60 280.55 L 756.98 284.80 L 760.02 289.29 L 762.69 293.99 L 765.01 298.92 L 766.97 304.10 L 768.51 309.40 L 769.63 314.86 L 770.31 320.49 L 770.56 326.34 L 770.56 326.34 L 770.56 373.70 L 629.76 373.70 Z" fill="#000000" fill-rule="evenodd" node-id="132" stroke="none" target-height="117.70001" target-width="140.79999" target-x="629.76" target-y="256"></path></clipPath></defs><g node-id="275"><path d="M 0.00 0.00 L 1024.00 0.00 L 1024.00 1024.00 L 0.00 1024.00 Z" fill="#f15454" fill-opacity="0" fill-rule="evenodd" group-id="1" id="矩形备份" node-id="9" stroke="none" target-height="1024" target-width="1024" target-x="0" target-y="0"></path></g><path d="M 461.85 51.24 C 237.30 55.32 158.62 196.05 254.94 370.01 C 351.25 543.97 147.20 554.68 147.20 752.35 C 147.20 950.02 656.31 1129.19 827.53 752.35 C 998.74 375.51 686.39 47.15 461.85 51.24 Z" fill="#f2f8fd" fill-rule="evenodd" id="路径-102" node-id="10" stroke="none" target-height="1082.0399" target-width="851.54" target-x="147.2" target-y="47.15"></path><path d="M 317.80 466.72 L 325.83 524.56 L 331.49 569.35 L 335.21 603.22 L 337.39 628.11 L 338.40 645.77 L 338.55 657.75 L 338.11 661.69 L 337.07 669.69 L 335.73 680.19 L 334.40 691.65 L 333.37 702.51 L 332.96 711.22 L 333.10 719.06 L 333.51 728.71 L 334.98 750.09 L 337.05 773.50 L 339.43 797.04 L 341.81 818.84 L 343.91 837.02 L 345.41 849.70 L 346.02 855.00 L 345.83 857.04 L 344.71 861.16 L 342.00 868.53 L 347.42 874.47 L 351.60 878.33 L 354.77 880.62 L 357.16 881.78 L 358.96 882.15 L 362.95 883.07 L 371.12 885.21 L 381.36 887.75 L 391.56 889.87 L 396.20 890.54 L 399.61 890.75 L 401.73 890.58 L 402.86 890.16 L 403.39 889.58 L 403.36 889.17 L 402.90 888.45 L 401.60 887.18 L 399.34 885.36 L 395.73 882.79 L 386.51 876.76 L 382.91 874.16 L 379.73 871.22 L 376.95 867.94 L 374.57 864.35 L 372.67 860.54 L 371.21 856.49 L 370.24 852.29 L 369.79 847.99 L 369.86 843.55 L 384.04 662.25 L 384.04 662.25 L 386.56 636.43 L 387.99 619.00 L 388.64 607.94 L 389.83 572.57 L 390.35 543.00 L 390.29 518.56 L 389.85 499.64 L 389.13 484.11 L 388.19 471.53 L 387.10 461.51 L 385.67 452.28 L 384.20 445.56 L 382.74 440.83 L 381.33 437.65 L 380.00 435.63 L 377.99 433.59 L 375.79 432.11 L 373.36 431.14 L 370.65 430.66 L 367.57 430.72 L 364.03 431.38 L 359.94 432.78 L 355.20 435.06 L 349.70 438.39 L 343.33 442.99 L 335.97 449.08 L 327.51 456.90 L 317.80 466.72 Z" fill="#ffbe9c" fill-rule="evenodd" group-id="2,5,10" id="路径-136备份-3" node-id="13" stroke="none" target-height="460.09" target-width="85.59003" target-x="317.8" target-y="430.66"></path><path d="M 241.30 452.00 L 243.31 501.55 L 244.51 542.79 L 245.04 576.71 L 245.00 604.23 L 244.51 626.20 L 243.67 643.43 L 242.57 656.65 L 241.30 666.54 L 239.58 676.33 L 237.93 683.98 L 236.07 690.99 L 234.26 696.52 L 232.23 701.63 L 230.20 705.94 L 228.00 710.05 L 225.68 714.02 L 220.62 722.54 L 217.95 727.35 L 214.93 733.28 L 211.95 739.77 L 208.55 748.02 L 205.24 756.78 L 201.92 766.11 L 195.03 786.76 L 186.92 811.85 L 176.64 843.28 L 175.76 844.98 L 174.27 846.70 L 170.24 850.13 L 167.94 852.03 L 165.50 854.26 L 164.46 855.55 L 163.19 857.77 L 161.64 861.27 L 200.74 889.58 L 208.70 886.28 L 211.81 884.63 L 212.58 883.91 L 212.49 883.57 L 210.90 882.23 L 208.75 880.06 L 204.23 874.73 L 199.86 868.69 L 197.98 865.68 L 196.60 863.10 L 195.62 860.65 L 195.37 859.09 L 195.69 857.14 L 196.64 854.02 L 198.55 849.26 L 201.91 841.99 L 206.74 832.42 L 212.14 822.26 L 218.56 810.58 L 232.59 785.77 L 247.45 760.01 L 261.75 735.33 L 274.09 713.74 L 283.08 697.27 L 284.50 694.12 L 286.85 687.81 L 289.22 680.48 L 291.98 670.56 L 294.52 659.82 L 296.97 647.05 L 298.33 638.28 L 299.47 628.88 L 300.35 618.81 L 301.13 603.24 L 301.66 580.14 L 301.82 547.42 L 301.44 502.74 L 300.35 443.50 L 241.30 452.00 Z" fill="#ffbe9c" fill-rule="evenodd" group-id="2,5" id="路径-11" node-id="14" stroke="none" target-height="446.08002" target-width="140.18001" target-x="161.64" target-y="443.5"></path><path d="M 393.91 881.50 L 391.34 882.47 L 387.93 883.23 L 383.49 883.71 L 377.79 883.81 L 374.71 883.46 L 370.78 882.39 L 365.81 880.38 L 359.57 877.17 L 351.83 872.47 L 342.32 865.95 L 340.02 867.85 L 338.19 870.01 L 336.81 872.48 L 335.85 875.29 L 335.34 878.13 L 335.06 881.95 L 335.09 886.98 L 335.53 893.47 L 337.66 904.08 L 348.11 904.26 L 349.97 898.46 L 351.38 895.48 L 352.43 894.23 L 353.24 893.93 L 355.15 894.43 L 361.93 897.19 L 378.60 904.80 L 436.19 905.80 L 393.91 881.50 Z" fill="#243762" fill-rule="evenodd" group-id="2,5,11" id="路径-42备份" node-id="15" stroke="none" target-height="39.849976" target-width="101.130005" target-x="335.06" target-y="865.95"></path><path d="M 210.61 881.02 L 207.87 880.96 L 204.42 880.39 L 200.13 879.17 L 194.80 877.13 L 192.20 875.86 L 189.10 873.92 L 186.02 871.53 L 182.65 868.32 L 179.47 864.62 L 176.20 859.94 L 175.05 857.76 L 173.63 854.16 L 171.86 848.64 L 170.78 848.23 L 169.42 848.34 L 167.58 849.17 L 165.06 851.07 L 161.64 854.51 L 160.06 856.64 L 158.72 859.33 L 157.62 862.68 L 156.83 866.83 L 156.41 871.91 L 156.44 878.09 L 157.03 885.54 L 168.20 891.14 L 171.75 886.23 L 173.99 883.89 L 175.35 883.09 L 176.20 883.10 L 177.84 884.33 L 183.60 889.81 L 197.84 904.39 L 242.76 904.39 L 210.61 881.02 Z" fill="#243762" fill-rule="evenodd" group-id="2,5,12" id="路径-42备份-2" node-id="16" stroke="none" target-height="56.160034" target-width="86.34999" target-x="156.41" target-y="848.23"></path><path d="M 236.50 406.14 L 232.42 415.92 L 229.49 423.72 L 227.53 429.86 L 226.34 434.60 L 224.14 446.62 L 222.60 458.03 L 221.67 468.85 L 221.20 479.73 L 221.13 490.11 L 221.43 500.01 L 222.36 514.73 L 223.64 528.56 L 226.34 554.94 L 228.17 574.07 L 229.98 590.72 L 231.90 606.42 L 233.66 619.05 L 235.49 630.52 L 236.97 638.34 L 238.14 643.27 L 238.97 645.85 L 239.53 646.99 L 240.43 647.62 L 242.88 648.35 L 248.08 649.09 L 257.59 649.72 L 273.30 650.06 L 297.49 649.91 L 332.76 649.04 L 382.07 647.19 L 382.07 647.19 L 383.36 646.96 L 384.47 646.47 L 385.45 645.72 L 386.22 644.75 L 386.72 643.65 L 386.96 642.36 L 388.20 616.90 L 389.01 590.89 L 389.39 564.34 L 389.31 537.23 L 388.79 509.55 L 387.95 488.47 L 386.69 469.83 L 385.06 453.41 L 383.12 439.03 L 380.91 426.49 L 378.47 415.63 L 375.85 406.28 L 375.85 406.28 L 375.12 404.95 L 373.99 404.04 L 372.60 403.61 L 371.08 403.75 L 361.51 406.36 L 351.55 408.52 L 341.18 410.23 L 330.38 411.47 L 319.11 412.23 L 307.36 412.49 L 296.29 412.18 L 285.61 411.28 L 275.28 409.81 L 265.29 407.77 L 255.61 405.17 L 246.21 402.01 L 246.21 402.01 L 244.27 401.57 L 242.36 401.62 L 240.54 402.14 L 238.90 403.10 L 237.53 404.43 L 236.50 406.14 Z" fill="#243762" fill-rule="evenodd" group-id="2,5" id="路径-9备份" node-id="17" stroke="none" target-height="248.48999" target-width="168.26001" target-x="221.13" target-y="401.57"></path><path d="M 262.31 94.15 L 259.01 197.61 L 267.28 193.80 L 277.26 189.92 L 285.38 187.25 L 290.70 185.90 L 295.18 185.15 L 298.95 184.91 L 303.87 185.23 L 310.29 186.34 L 318.55 188.44 L 329.01 191.81 L 342.06 196.72 L 342.06 94.15 L 262.31 94.15 Z" fill="#3d2423" fill-rule="evenodd" group-id="2,6,13" id="路径-183备份-2" node-id="20" stroke="none" target-height="103.46" target-width="83.04999" target-x="259.01" target-y="94.15"></path><path d="M 316.23 154.41 L 316.33 166.16 L 316.82 174.33 L 317.56 179.74 L 318.42 183.11 L 319.37 185.18 L 320.73 187.02 L 322.52 188.67 L 324.83 190.13 L 327.73 191.39 L 331.36 192.43 L 332.24 200.38 L 332.47 207.20 L 332.14 213.03 L 331.34 217.99 L 330.13 222.21 L 328.56 225.77 L 326.65 228.77 L 324.40 231.29 L 321.81 233.36 L 318.82 235.03 L 315.39 236.28 L 311.44 237.11 L 306.89 237.45 L 301.63 237.25 L 298.13 236.64 L 294.74 235.52 L 291.43 233.88 L 288.32 231.84 L 285.35 229.47 L 282.52 226.73 L 278.70 222.24 L 275.38 217.42 L 272.59 212.37 L 270.49 207.53 L 269.40 204.23 L 268.70 201.29 L 268.34 198.67 L 268.32 196.04 L 268.70 194.00 L 269.40 192.43 L 270.03 191.84 L 271.52 190.89 L 273.23 189.77 L 275.52 187.91 L 277.78 185.59 L 280.35 182.06 L 281.36 179.84 L 282.42 175.80 L 283.44 169.14 L 284.32 158.91 L 284.95 144.00 L 285.18 123.18 L 316.23 154.41 Z" fill="#ffbe9c" fill-rule="evenodd" group-id="2,6,13,23,40" node-id="165" stroke="none" target-height="114.27" target-width="64.149994" target-x="268.32" target-y="123.18"></path><g clip-path="url(#mask-2)" group-id="2,6,13,23,41" node-id="168"><path d="M 318.06 173.48 L 284.07 158.42 L 325.17 159.56 Z" fill="#e28453" fill-rule="evenodd" group-id="2,6,13,23,41" id="路径-50" node-id="25" stroke="none" target-height="15.059998" target-width="41.100006" target-x="284.07" target-y="158.42"></path></g><path d="M 339.34 87.84 L 340.19 100.58 L 340.38 111.66 L 340.01 121.24 L 339.15 129.49 L 337.88 136.56 L 336.25 142.57 L 334.32 147.65 L 332.11 151.93 L 329.67 155.50 L 326.99 158.44 L 324.08 160.83 L 320.90 162.70 L 317.42 164.10 L 313.59 165.01 L 309.36 165.41 L 304.65 165.27 L 299.39 164.50 L 293.50 163.03 L 286.89 160.76 L 285.14 159.83 L 283.40 158.49 L 281.67 156.67 L 279.93 154.28 L 277.99 150.95 L 276.12 147.00 L 274.33 142.37 L 272.07 135.20 L 270.12 127.37 L 268.55 119.40 L 267.36 111.64 L 266.51 104.04 L 266.08 97.53 L 266.01 91.49 L 266.32 87.40 L 267.19 83.05 L 268.58 79.19 L 270.48 75.73 L 272.89 72.64 L 275.85 69.87 L 279.08 67.65 L 282.96 65.67 L 287.60 63.98 L 293.10 62.59 L 299.60 61.57 L 304.54 61.29 L 309.34 61.59 L 314.05 62.45 L 318.68 63.88 L 323.26 65.92 L 327.84 68.60 L 327.84 68.60 L 330.94 71.00 L 333.58 73.76 L 335.79 76.90 L 337.51 80.33 L 338.69 83.97 L 339.34 87.84 Z" fill="#ffbe9c" fill-rule="evenodd" group-id="2,6,13,24" id="路径-31备份" node-id="26" stroke="none" target-height="104.12" target-width="74.369995" target-x="266.01" target-y="61.29"></path><path d="M 320.47 136.41 L 299.67 136.80 L 300.30 140.47 L 301.22 143.32 L 302.38 145.50 L 303.76 147.14 L 305.34 148.32 L 307.18 149.10 L 309.33 149.47 L 311.44 149.38 L 313.31 148.80 L 315.01 147.73 L 316.59 146.11 L 318.04 143.80 L 319.35 140.64 L 320.47 136.41 Z" fill="#ffffff" fill-rule="evenodd" group-id="2,6,13,25" id="路径-60备份-5" node-id="27" stroke="none" target-height="13.059998" target-width="20.799988" target-x="299.67" target-y="136.41"></path><path d="M 252.95 123.40 L 254.13 126.48 L 255.46 129.05 L 256.94 131.19 L 258.68 133.12 L 260.42 134.65 L 262.17 135.80 L 264.93 137.05 L 267.34 137.56 L 268.93 137.56 L 270.19 137.29 L 271.19 136.79 L 271.95 136.04 L 272.36 135.07 L 272.41 133.81 L 270.34 119.41 L 270.34 119.41 L 269.66 117.09 L 268.45 115.13 L 266.80 113.55 L 264.80 112.44 L 262.57 111.87 L 260.15 111.91 L 257.83 112.59 L 255.87 113.80 L 254.29 115.45 L 253.18 117.45 L 252.61 119.68 L 252.65 122.10 L 252.95 123.40 Z" fill="#ffbe9c" fill-rule="evenodd" group-id="2,6,13,26" id="路径-33备份-2" node-id="28" stroke="none" target-height="25.689995" target-width="19.800003" target-x="252.61" target-y="111.87"></path><path d="M 352.78 120.27 L 351.83 123.43 L 350.67 126.09 L 349.35 128.32 L 347.74 130.37 L 346.12 132.01 L 344.45 133.28 L 341.78 134.72 L 339.41 135.40 L 337.83 135.51 L 336.56 135.33 L 335.53 134.90 L 334.71 134.20 L 334.24 133.27 L 334.10 132.01 L 335.16 117.50 L 335.16 117.50 L 335.68 115.14 L 336.74 113.10 L 338.28 111.41 L 340.20 110.16 L 342.38 109.44 L 344.80 109.31 L 347.16 109.83 L 349.20 110.89 L 350.89 112.43 L 352.14 114.35 L 352.86 116.54 L 352.99 118.95 L 352.78 120.27 Z" fill="#ffbe9c" fill-rule="evenodd" group-id="2,6,13,27" id="路径-33备份-3" node-id="29" stroke="none" target-height="26.199997" target-width="18.889984" target-x="334.1" target-y="109.31"></path><path d="M 285.12 112.35 L 287.04 110.55 L 288.95 109.36 L 290.88 108.70 L 292.88 108.52 L 295.00 108.83 L 297.30 109.69 L 297.67 109.97 L 297.89 110.36 L 297.96 110.80 L 297.84 111.25 L 297.55 111.63 L 297.17 111.85 L 296.72 111.91 L 296.27 111.79 L 294.18 111.03 L 292.27 110.87 L 290.46 111.26 L 288.68 112.24 L 286.87 113.91 L 286.49 114.19 L 286.06 114.30 L 285.62 114.24 L 285.22 114.01 L 284.93 113.63 L 284.82 113.20 L 284.88 112.76 L 285.12 112.35 Z" fill="#b45b2d" fill-rule="nonzero" group-id="2,6,13,28" id="路径-23" node-id="30" stroke="none" target-height="5.7800064" target-width="13.139984" target-x="284.82" target-y="108.52"></path><path d="M 294.46 119.84 L 294.38 121.02 L 294.06 121.94 L 293.51 122.61 L 292.86 122.86 L 292.19 122.68 L 291.58 122.07 L 291.16 121.19 L 290.95 120.03 L 291.04 118.85 L 291.36 117.93 L 291.90 117.26 L 292.55 117.01 L 293.23 117.19 L 293.84 117.80 L 294.25 118.68 L 294.46 119.84 Z" fill="#b45b2d" fill-rule="nonzero" group-id="2,6,13,29" id="椭圆形" node-id="31" stroke="none" target-height="5.8499985" target-width="3.5099792" target-x="290.95" target-y="117.01"></path><path d="M 330.08 108.69 L 329.80 109.07 L 329.42 109.30 L 328.98 109.37 L 328.52 109.27 L 327.92 108.99 L 327.37 108.76 L 326.87 108.56 L 326.44 108.40 L 325.41 108.13 L 324.13 108.16 L 322.37 108.65 L 322.12 108.77 L 321.41 109.11 L 321.12 109.25 L 321.03 109.29 L 320.57 109.37 L 320.14 109.28 L 319.77 109.04 L 319.50 108.65 L 319.48 107.82 L 320.01 107.18 L 321.30 106.57 L 321.44 106.50 L 322.59 106.09 L 323.83 105.84 L 325.56 105.79 L 326.45 105.95 L 327.85 106.42 L 328.47 106.68 L 328.80 106.82 L 329.50 107.14 L 329.88 107.42 L 330.11 107.80 L 330.18 108.24 L 330.08 108.69 Z" fill="#b45b2d" fill-rule="nonzero" group-id="2,6,13,30" id="路径-23备份" node-id="32" stroke="none" target-height="3.5800018" target-width="10.699982" target-x="319.48" target-y="105.79"></path><path d="M 328.03 116.88 L 328.02 118.06 L 327.77 119.00 L 327.27 119.71 L 326.64 120.00 L 325.96 119.87 L 325.30 119.30 L 324.83 118.45 L 324.54 117.31 L 324.54 116.13 L 324.80 115.19 L 325.29 114.48 L 325.93 114.19 L 326.61 114.32 L 327.26 114.89 L 327.74 115.73 L 328.03 116.88 Z" fill="#b45b2d" fill-rule="nonzero" group-id="2,6,13,31" id="椭圆形备份-7" node-id="33" stroke="none" target-height="5.8099976" target-width="3.4899902" target-x="324.54" target-y="114.19"></path><path d="M 310.24 118.07 L 311.05 117.88 L 311.78 118.27 L 311.87 118.38 L 315.41 123.58 L 315.96 124.88 L 315.96 126.21 L 315.47 127.46 L 314.49 128.46 L 314.26 128.61 L 314.02 128.73 L 311.41 129.97 L 310.95 130.09 L 310.51 130.02 L 310.13 129.79 L 309.84 129.42 L 309.78 128.59 L 310.27 127.93 L 310.40 127.86 L 313.01 126.62 L 313.17 126.53 L 313.64 125.84 L 313.55 125.03 L 313.48 124.90 L 309.93 119.70 L 309.75 119.27 L 309.75 118.82 L 309.92 118.41 L 310.24 118.07 Z" fill="#b45b2d" fill-rule="nonzero" group-id="2,6,13" id="路径-24备份" node-id="34" stroke="none" target-height="12.209999" target-width="6.2099915" target-x="309.75" target-y="117.88"></path><path d="M 318.35 80.22 L 316.06 83.27 L 313.50 85.89 L 310.64 88.10 L 307.47 89.94 L 303.95 91.40 L 300.04 92.49 L 295.67 93.16 L 290.80 93.40 L 287.75 93.74 L 285.09 94.59 L 282.74 95.96 L 280.65 97.76 L 278.80 99.87 L 277.16 102.34 L 275.16 106.34 L 273.61 110.56 L 272.43 114.84 L 271.63 118.66 L 270.77 124.64 L 270.59 126.56 L 270.30 125.20 L 268.69 120.34 L 264.24 108.32 L 263.00 102.60 L 262.39 97.23 L 262.38 92.17 L 262.92 87.37 L 264.00 82.78 L 265.63 78.39 L 267.81 74.14 L 270.59 70.03 L 273.27 67.01 L 276.34 64.36 L 279.84 62.08 L 283.59 60.21 L 287.60 58.70 L 291.87 57.55 L 296.24 56.79 L 300.67 56.39 L 305.17 56.35 L 309.67 56.67 L 314.02 57.35 L 318.24 58.38 L 322.34 59.77 L 326.11 61.50 L 329.56 63.54 L 332.36 65.73 L 334.81 68.32 L 336.92 71.33 L 338.70 74.81 L 340.14 78.83 L 341.21 83.47 L 341.87 88.80 L 342.05 94.93 L 341.69 101.95 L 340.71 109.98 L 332.20 97.29 L 327.37 90.42 L 324.39 86.60 L 321.39 83.22 L 318.35 80.22 Z" fill="#3d2423" fill-rule="evenodd" group-id="2,6,13" id="路径-182" node-id="35" stroke="none" target-height="70.21" target-width="79.66998" target-x="262.38" target-y="56.35"></path><path d="M 388.44 250.95 L 398.37 270.40 L 407.74 287.79 L 416.56 303.26 L 424.86 316.96 L 432.67 329.02 L 440.02 339.58 L 449.12 351.94 L 458.31 363.94 L 467.58 375.58 L 476.40 386.18 L 485.15 396.18 L 492.90 404.47 L 498.13 409.69 L 502.61 413.81 L 506.41 416.98 L 508.91 418.62 L 511.03 419.54 L 513.16 420.05 L 515.15 420.23 L 519.18 420.17 L 521.25 420.21 L 523.51 420.49 L 530.66 421.83 L 535.33 422.95 L 537.13 423.66 L 538.76 424.58 L 540.32 425.75 L 542.19 427.45 L 546.86 432.30 L 548.71 434.51 L 549.38 435.70 L 549.49 436.38 L 549.32 436.77 L 548.90 437.00 L 547.95 437.05 L 546.42 436.77 L 542.95 435.60 L 539.94 434.13 L 537.57 432.99 L 536.79 432.93 L 536.47 433.37 L 536.55 434.33 L 537.04 435.58 L 538.10 437.24 L 540.02 439.65 L 542.52 442.52 L 547.60 448.55 L 549.77 451.72 L 551.22 454.67 L 551.76 456.67 L 551.76 458.49 L 551.27 460.20 L 550.42 461.28 L 548.99 462.15 L 546.73 462.76 L 544.37 462.97 L 541.39 462.84 L 537.68 462.27 L 534.06 461.39 L 529.95 460.03 L 525.29 458.13 L 519.24 455.12 L 513.02 451.53 L 506.93 447.63 L 501.05 443.56 L 490.36 435.54 L 481.91 428.80 L 476.70 424.66 L 471.98 420.67 L 462.92 412.52 L 450.96 401.37 L 437.52 388.43 L 424.03 374.88 L 417.62 368.13 L 411.92 361.89 L 406.34 355.27 L 400.41 347.52 L 394.11 338.54 L 387.44 328.20 L 380.35 316.37 L 372.85 302.94 L 364.90 287.75 L 388.44 250.95 Z" fill="#ffbe9c" fill-rule="evenodd" group-id="2,7,14,32" id="路径-37" node-id="38" stroke="none" target-height="212.02" target-width="186.86002" target-x="364.9" target-y="250.95"></path><path d="M 516.51 431.64 L 517.91 432.55 L 519.82 433.23 L 522.39 433.63 L 525.80 433.65 L 530.25 433.18" fill="none" group-id="2,7,14" id="路径-145" node-id="39" stroke="#243762" stroke-linecap="round" stroke-width="1.28" target-height="2.0099792" target-width="13.73999" target-x="516.51" target-y="431.64"></path><path d="M 528.30 455.16 L 542.58 462.33" fill="none" group-id="2,7,14" id="路径-146" node-id="40" stroke="#243762" stroke-linecap="round" stroke-width="1.28" target-height="7.169983" target-width="14.280029" target-x="528.3" target-y="455.16"></path><path d="M 533.30 451.28 L 547.70 462.33" fill="none" group-id="2,7,14" id="路径-147" node-id="41" stroke="#243762" stroke-linecap="round" stroke-width="1.28" target-height="11.049988" target-width="14.400024" target-x="533.3" target-y="451.28"></path><path d="M 538.54 447.01 L 551.27 460.20" fill="none" group-id="2,7,14" id="路径-148" node-id="42" stroke="#243762" stroke-linecap="round" stroke-width="1.28" target-height="13.190002" target-width="12.7300415" target-x="538.54" target-y="447.01"></path><path d="M 369.59 208.36 L 371.95 209.82 L 374.61 212.15 L 377.61 215.58 L 380.99 220.38 L 384.82 226.84 L 389.14 235.31 L 393.98 246.16 L 399.41 259.78 L 405.47 276.61 L 426.06 318.82 L 507.71 414.34 L 488.81 437.25 L 465.40 416.49 L 446.75 399.38 L 432.19 385.46 L 421.10 374.28 L 410.41 362.75 L 396.91 347.35 L 380.13 327.37 L 359.54 301.98 L 359.43 295.50 L 358.96 290.10 L 358.19 285.63 L 357.17 281.97 L 355.95 279.00 L 354.55 276.61 L 347.97 267.30 L 342.36 259.67 L 332.89 246.78 L 329.22 241.30 L 326.70 236.83 L 325.41 233.85 L 324.65 231.15 L 324.34 228.68 L 324.50 225.75 L 325.06 223.07 L 326.01 220.60 L 327.36 218.30 L 329.64 215.53 L 332.40 213.08 L 335.69 210.93 L 339.24 209.17 L 343.01 207.77 L 347.04 206.71 L 351.15 206.03 L 355.16 205.73 L 359.10 205.81 L 363.01 206.29 L 366.48 207.15 L 369.59 208.36 Z" fill="#f8c340" fill-rule="evenodd" group-id="2,7" id="路径-134" node-id="43" stroke="none" target-height="231.52" target-width="183.37" target-x="324.34" target-y="205.73"></path><path d="M 369.03 208.20 L 369.98 209.34 L 370.92 211.48 L 371.77 215.12 L 372.43 220.84 L 372.74 227.95 L 372.71 237.43 L 372.21 249.75 L 370.85 269.00 L 368.46 293.63 L 367.30 301.15 L 365.54 308.98 L 361.24 325.22 L 359.15 333.73 L 357.38 342.76 L 356.50 348.88 L 355.97 355.29 L 355.79 362.00 L 356.12 366.77 L 357.09 371.78 L 358.73 377.10 L 361.12 382.77 L 364.36 388.82 L 368.54 395.32 L 373.77 402.30 L 373.77 402.30 L 374.49 403.50 L 374.85 404.74 L 374.87 406.06 L 374.56 407.34 L 373.95 408.47 L 372.98 409.49 L 372.00 410.12 L 370.89 410.50 L 357.14 413.27 L 343.59 415.40 L 330.23 416.91 L 317.05 417.81 L 304.03 418.10 L 291.05 417.81 L 277.90 416.91 L 264.58 415.41 L 251.06 413.29 L 237.34 410.54 L 237.34 410.54 L 236.03 410.04 L 234.97 409.30 L 234.14 408.29 L 233.58 407.10 L 233.35 405.83 L 233.46 404.43 L 233.86 403.28 L 234.53 402.26 L 240.03 395.22 L 244.42 388.69 L 247.82 382.62 L 250.35 376.97 L 252.10 371.68 L 253.14 366.71 L 253.55 362.00 L 253.43 354.85 L 252.86 347.88 L 251.86 341.07 L 249.78 331.00 L 247.27 321.29 L 242.02 302.60 L 239.83 293.56 L 238.34 284.97 L 237.83 279.26 L 237.87 273.73 L 238.44 268.34 L 241.40 252.57 L 244.46 239.26 L 247.57 228.14 L 250.70 218.94 L 253.82 211.43 L 256.91 205.38 L 259.96 200.59 L 262.95 196.86 L 265.89 194.05 L 268.80 192.00 L 275.74 195.83 L 282.45 198.97 L 288.95 201.47 L 295.27 203.36 L 301.42 204.68 L 307.43 205.46 L 313.32 205.72 L 316.89 205.43 L 320.00 204.60 L 322.73 203.26 L 325.15 201.41 L 327.30 198.97 L 329.17 195.88 L 330.76 192.00 L 350.38 199.67 L 361.46 204.32 L 366.91 206.91 L 369.03 208.20 Z" fill="#f8c340" fill-rule="evenodd" group-id="2,7,15" id="路径-36" node-id="44" stroke="none" target-height="226.1" target-width="141.51999" target-x="233.35" target-y="192"></path><path d="M 354.29 249.29 L 358.43 256.61 L 361.74 263.37 L 364.30 269.62 L 366.19 275.39 L 367.48 280.75 L 368.22 285.72 L 368.46 290.36 L 368.22 295.76 L 367.44 301.88 L 366.07 308.83 L 363.99 316.68 L 361.13 325.53 L 357.38 335.50" fill="none" group-id="2,7" id="路径-8" node-id="45" stroke="#243762" stroke-linecap="round" stroke-width="1.28" target-height="86.21001" target-width="14.169983" target-x="354.29" target-y="249.29"></path><path d="M 271.43 235.24 L 243.12 279.46 L 225.46 307.98 L 215.44 325.09 L 210.55 334.34 L 209.56 336.91 L 208.57 340.50 L 207.63 345.39 L 206.60 353.01 L 205.73 362.52 L 205.11 372.54 L 204.66 383.68 L 204.21 406.80 L 204.21 429.82 L 204.44 450.67 L 204.73 467.28 L 204.88 477.59 L 205.09 478.08 L 205.93 479.10 L 208.24 481.73 L 209.47 483.37 L 210.55 485.22 L 211.53 487.60 L 212.19 490.02 L 212.55 492.45 L 212.58 494.57 L 212.30 496.53 L 211.75 497.89 L 211.16 498.61 L 210.68 498.87 L 210.25 498.81 L 209.59 498.32 L 208.86 497.27 L 207.53 494.64 L 206.22 492.27 L 205.51 491.58 L 204.88 491.51 L 204.84 491.86 L 204.99 493.90 L 205.50 499.74 L 205.86 507.37 L 205.82 511.37 L 205.53 515.10 L 204.91 518.60 L 203.97 521.25 L 202.95 522.74 L 201.80 523.67 L 200.49 524.13 L 199.05 524.24 L 197.48 524.04 L 195.73 523.50 L 193.19 522.32 L 190.62 520.76 L 188.18 519.02 L 186.10 517.35 L 183.11 514.68 L 182.24 513.56 L 181.49 511.97 L 180.89 509.78 L 180.37 506.29 L 180.13 502.04 L 180.15 497.63 L 180.35 493.04 L 181.06 484.36 L 181.78 477.58 L 182.02 474.27 L 181.08 467.62 L 180.11 458.84 L 178.44 438.65 L 177.06 415.62 L 176.05 391.70 L 175.47 368.83 L 175.39 348.95 L 175.58 340.38 L 175.89 334.00 L 176.44 328.49 L 177.02 325.91 L 180.25 317.93 L 186.24 304.60 L 196.09 283.91 L 211.12 253.56 L 232.80 210.89 L 271.43 235.24 Z" fill="#ffbe9c" fill-rule="evenodd" group-id="2,7,16,33" id="路径-38" node-id="47" stroke="none" target-height="313.34998" target-width="96.03999" target-x="175.39" target-y="210.89"></path><path d="M 268.80 192.00 L 260.28 194.01 L 252.80 196.34 L 246.25 198.94 L 240.55 201.80 L 235.61 204.88 L 231.36 208.18 L 227.73 211.70 L 224.66 215.45 L 222.13 219.44 L 220.11 223.69 L 217.40 229.98 L 213.63 238.10 L 204.69 256.47 L 194.69 277.08 L 189.70 287.75 L 184.99 298.26 L 180.62 308.69 L 176.98 318.30 L 174.83 324.71 L 173.20 330.42 L 172.03 335.50 L 171.10 341.78 L 170.46 350.13 L 170.23 360.98 L 170.53 374.80 L 171.48 392.10 L 173.23 413.43 L 175.93 439.37 L 179.76 470.56 L 207.36 470.56 L 206.12 446.51 L 205.55 425.33 L 205.57 406.77 L 206.11 390.60 L 207.10 376.60 L 208.47 364.55 L 210.15 354.25 L 212.37 344.34 L 215.13 334.86 L 218.42 325.77 L 222.24 317.06 L 226.60 308.70 L 231.49 300.66 L 236.92 292.94 L 242.92 285.52 L 279.64 301.98 L 305.45 223.84 L 268.80 192.00 Z" fill="#f8c340" fill-rule="evenodd" group-id="2,7" id="路径-153" node-id="48" stroke="none" target-height="278.56" target-width="135.22002" target-x="170.23" target-y="192"></path><path d="M 205.66 502.33 L 205.58 509.31 L 205.13 514.50 L 204.42 518.24 L 203.55 520.84 L 202.57 522.59 L 201.51 523.69 L 200.64 524.11 L 199.98 524.00 L 199.37 523.33 L 198.80 521.73 L 198.37 518.55 L 198.25 512.96 L 198.67 503.94" fill="none" group-id="2,7" id="路径-27" node-id="49" stroke="#243762" stroke-linecap="round" stroke-width="1.28" target-height="21.779999" target-width="7.4100037" target-x="198.25" target-y="502.33"></path><path d="M 199.39 524.13 L 195.22 523.87 L 193.81 523.48 L 193.40 522.60 L 192.57 518.14 L 191.07 505.24" fill="none" group-id="2,7" id="路径-22" node-id="50" stroke="#243762" stroke-linecap="round" stroke-width="1.28" target-height="18.890015" target-width="8.319992" target-x="191.07" target-y="505.24"></path><path d="M 193.12 522.62 L 191.87 522.38 L 190.87 521.97 L 189.62 521.16 L 188.48 520.02 L 187.38 518.22 L 186.40 515.42 L 185.57 511.24 L 185.02 505.24" fill="none" group-id="2,7" id="路径-25" node-id="51" stroke="#243762" stroke-linecap="round" stroke-width="1.28" target-height="17.380005" target-width="8.099991" target-x="185.02" target-y="505.24"></path><path d="M 188.12 520.15 L 184.62 516.06 L 182.25 512.68 L 180.77 509.89 L 179.99 507.58 L 179.76 505.65" fill="none" group-id="2,7" id="路径-26" node-id="52" stroke="#243762" stroke-linecap="round" stroke-width="1.28" target-height="14.5000305" target-width="8.360001" target-x="179.76" target-y="505.65"></path><path d="M 268.80 192.00 L 330.76 192.00 L 331.66 199.41 L 331.92 205.85 L 331.65 211.42 L 330.90 216.23 L 329.75 220.38 L 328.22 223.96 L 326.34 227.03 L 324.11 229.67 L 321.52 231.90 L 318.53 233.76 L 315.08 235.25 L 311.12 236.35 L 306.56 237.03 L 302.35 237.13 L 298.44 236.64 L 294.78 235.59 L 291.32 233.99 L 288.01 231.78 L 284.84 228.91 L 281.79 225.31 L 278.86 220.87 L 276.06 215.46 L 273.43 208.95 L 271.00 201.18 L 268.80 192.00 Z" fill="#ffbe9c" fill-rule="evenodd" group-id="2,7" id="路径-16" node-id="53" stroke="none" target-height="45.130005" target-width="63.120026" target-x="268.8" target-y="192"></path><path d="M 267.31 192.00 L 276.98 195.90 L 284.84 198.59 L 291.17 200.29 L 296.20 201.19 L 300.16 201.46 L 304.16 201.17 L 308.90 200.23 L 314.51 198.50 L 321.14 195.81 L 328.93 192.00 L 332.97 193.25 L 335.15 194.36 L 336.13 195.31 L 336.41 196.16 L 336.36 210.30 L 335.99 216.43 L 335.15 221.48 L 334.20 224.62 L 332.86 227.38 L 331.14 229.80 L 329.02 231.87 L 326.25 233.72 L 322.70 235.36 L 318.96 236.53 L 314.19 237.51 L 308.21 238.24 L 301.25 238.58 L 295.16 238.34 L 289.82 237.60 L 285.16 236.41 L 281.08 234.81 L 277.51 232.82 L 274.40 230.45 L 272.00 228.01 L 269.93 225.22 L 268.20 222.06 L 266.79 218.48 L 265.74 214.43 L 265.06 209.83 L 264.81 204.63 L 265.05 198.73 L 265.57 196.43 L 267.31 192.00 Z" fill="#f8c340" fill-rule="evenodd" group-id="2,7" id="路径-4" node-id="54" stroke="none" target-height="46.58" target-width="71.600006" target-x="264.81" target-y="192"></path><path d="M 267.31 192.00 L 264.93 192.84 L 263.23 193.95 L 262.07 195.31 L 261.36 196.96 L 261.12 199.00 L 261.42 201.55 L 262.03 202.91 L 263.52 204.59 L 266.33 206.70 L 271.02 209.34 L 278.25 212.63 L 288.79 216.67 L 303.50 221.61 L 304.88 221.84 L 306.17 221.73 L 307.40 221.27 L 308.49 220.53 L 309.32 219.54 L 309.93 218.28 L 310.11 217.52 L 311.98 204.06 L 312.20 200.14 L 312.01 199.62 L 307.08 198.86 L 267.31 192.00 Z" fill="#ffffff" fill-rule="evenodd" group-id="2,7" id="路径-12" node-id="55" stroke="none" target-height="29.839996" target-width="51.080017" target-x="261.12" target-y="192"></path><path d="M 312.82 199.67 L 328.93 192.00 L 332.63 193.13 L 335.34 194.45 L 337.26 195.92 L 338.55 197.53 L 339.32 199.31 L 339.60 201.32 L 339.34 203.65 L 338.52 206.21 L 337.13 208.81 L 335.10 211.48 L 332.30 214.25 L 328.61 217.14 L 327.36 217.78 L 326.10 218.06 L 324.78 218.00 L 323.53 217.61 L 322.43 216.92 L 321.47 215.90 L 321.14 215.35 L 312.82 199.67 L 312.82 199.67 Z" fill="#ffffff" fill-rule="evenodd" group-id="2,7" id="路径-13" node-id="56" stroke="none" target-height="26.059998" target-width="26.779999" target-x="312.82" target-y="192"></path><path d="M 311.72 199.77 L 311.69 208.36 L 311.20 214.16 L 310.44 217.88 L 309.53 220.10 L 308.56 221.30 L 307.54 221.83 L 305.91 221.92 L 302.84 221.49 L 297.59 220.17 L 289.27 217.50 L 276.83 212.93" fill="none" group-id="2,7,17" id="路径-14" node-id="57" stroke="#243762" stroke-linecap="round" stroke-width="1.28" target-height="22.149994" target-width="34.890015" target-x="276.83" target-y="199.77"></path><path d="M 328.93 192.00 L 333.17 194.21 L 336.13 196.27 L 338.10 198.21 L 339.29 200.04 L 339.86 201.82 L 339.90 203.60 L 339.39 205.46 L 338.25 207.49 L 334.92 211.85 L 332.13 214.90 L 329.81 216.91 L 327.88 218.12" fill="none" group-id="2,7" id="路径-15" node-id="58" stroke="#243762" stroke-linecap="round" stroke-width="1.28" target-height="26.119995" target-width="12.019989" target-x="327.88" target-y="192"></path><path d="M 257.69 262.87 L 239.44 290.63 L 247.77 322.46" fill="none" group-id="2,7" id="路径-49" node-id="59" stroke="#243762" stroke-linecap="round" stroke-width="1.28" target-height="59.589996" target-width="18.25" target-x="239.44" target-y="262.87"></path><path d="M 903.68 241.92 C 903.68 355.03 811.99 446.72 698.88 446.72 C 585.77 446.72 494.08 355.03 494.08 241.92 C 494.08 128.81 585.77 37.12 698.88 37.12 C 811.99 37.12 903.68 128.81 903.68 241.92 Z" fill="#e5f2fb" fill-rule="evenodd" id="椭圆形" node-id="60" stroke="none" target-height="409.6" target-width="409.6" target-x="494.08" target-y="37.12"></path><path d="M 615.68 96.00 L 784.64 96.00 L 787.04 96.33 L 789.16 97.22 L 790.98 98.62 L 792.38 100.44 L 793.27 102.56 L 793.60 104.96 L 793.60 104.96 L 793.27 107.36 L 792.38 109.48 L 790.98 111.30 L 789.16 112.70 L 787.04 113.59 L 784.64 113.92 L 615.68 113.92 L 613.28 113.59 L 611.16 112.70 L 609.34 111.30 L 607.94 109.48 L 607.04 107.36 L 606.72 104.96 L 606.72 104.96 L 607.04 102.56 L 607.94 100.44 L 609.34 98.62 L 611.16 97.22 L 613.28 96.33 L 615.68 96.00 Z" fill="#66b2ec" fill-rule="evenodd" group-id="3,8" id="矩形" node-id="63" stroke="none" target-height="17.919998" target-width="186.88" target-x="606.72" target-y="96"></path><path d="M 782.08 158.72 L 781.79 165.52 L 780.99 172.09 L 779.70 178.45 L 777.90 184.61 L 775.62 190.65 L 772.92 196.39 L 769.81 201.87 L 766.27 207.10 L 762.34 212.05 L 758.09 216.65 L 753.49 220.90 L 748.54 224.83 L 743.31 228.37 L 737.83 231.48 L 732.09 234.18 L 726.05 236.46 L 719.89 238.26 L 713.53 239.55 L 706.96 240.35 L 700.16 240.64 L 693.36 240.35 L 686.79 239.55 L 680.43 238.26 L 674.27 236.46 L 668.23 234.18 L 662.49 231.48 L 657.01 228.37 L 651.78 224.83 L 646.83 220.90 L 642.23 216.65 L 637.98 212.05 L 634.05 207.10 L 630.51 201.87 L 627.40 196.39 L 624.70 190.65 L 622.42 184.61 L 620.62 178.45 L 619.33 172.09 L 618.53 165.52 L 618.24 158.72 L 618.24 158.72 L 618.24 113.92 L 782.08 113.92 Z" fill="#e5f2fb" fill-rule="evenodd" group-id="3,8" id="形状结合" node-id="64" stroke="none" target-height="126.72" target-width="163.84003" target-x="618.24" target-y="113.92"></path><path d="M 770.56 161.34 L 770.31 167.19 L 769.63 172.82 L 768.51 178.28 L 766.97 183.58 L 765.01 188.76 L 762.69 193.69 L 760.02 198.39 L 756.98 202.88 L 753.60 207.13 L 749.94 211.08 L 745.99 214.73 L 741.74 218.11 L 737.24 221.14 L 732.54 223.82 L 727.60 226.13 L 722.41 228.09 L 717.11 229.63 L 711.65 230.75 L 706.01 231.43 L 700.16 231.68 L 694.31 231.43 L 688.67 230.75 L 683.21 229.63 L 677.91 228.09 L 672.72 226.13 L 667.78 223.82 L 663.08 221.14 L 658.58 218.11 L 654.33 214.73 L 650.38 211.08 L 646.72 207.13 L 643.34 202.88 L 640.30 198.39 L 637.63 193.69 L 635.31 188.76 L 633.35 183.58 L 631.81 178.28 L 630.69 172.82 L 630.01 167.19 L 629.76 161.34 L 629.76 161.34 L 629.76 113.98 L 770.56 113.98 Z" fill="#cce5f9" fill-rule="evenodd" group-id="3,8,18,34" node-id="256" stroke="none" target-height="117.69999" target-width="140.79999" target-x="629.76" target-y="113.98"></path><g clip-path="url(#mask-4)" group-id="3,8,18,35" node-id="259"><path d="M 614.53 192.44 L 620.37 186.88 L 626.03 182.28 L 631.55 178.55 L 636.93 175.62 L 642.21 173.41 L 647.41 171.88 L 652.57 170.98 L 657.72 170.69 L 662.90 171.01 L 668.14 171.96 L 673.47 173.55 L 678.94 175.83 L 684.56 178.86 L 690.37 182.71 L 696.13 186.54 L 701.78 189.63 L 707.34 192.03 L 712.83 193.79 L 718.29 194.94 L 723.74 195.51 L 729.22 195.49 L 734.74 194.89 L 740.34 193.69 L 746.06 191.86 L 751.91 189.37 L 757.93 186.15 L 764.14 182.14 L 770.56 177.28 L 777.51 231.68 L 740.01 232.20 L 709.51 232.16 L 685.09 231.68 L 660.42 230.66 L 625.18 228.69 L 576.74 225.45 L 614.53 192.44 Z" fill="#99cbf2" fill-rule="evenodd" group-id="3,8,18,35" id="路径-108" node-id="69" stroke="none" target-height="61.509995" target-width="200.77002" target-x="576.74" target-y="170.69"></path></g><path d="M 618.24 328.96 L 618.53 322.16 L 619.33 315.59 L 620.62 309.23 L 622.42 303.07 L 624.70 297.03 L 627.40 291.29 L 630.51 285.81 L 634.05 280.58 L 637.98 275.63 L 642.23 271.03 L 646.83 266.78 L 651.78 262.85 L 657.01 259.31 L 662.49 256.20 L 668.23 253.50 L 674.27 251.22 L 680.43 249.42 L 686.79 248.13 L 693.36 247.33 L 700.16 247.04 L 706.96 247.33 L 713.53 248.13 L 719.89 249.42 L 726.05 251.22 L 732.09 253.50 L 737.83 256.20 L 743.31 259.31 L 748.54 262.85 L 753.49 266.78 L 758.09 271.03 L 762.34 275.63 L 766.27 280.58 L 769.81 285.81 L 772.92 291.29 L 775.62 297.03 L 777.90 303.07 L 779.70 309.23 L 780.99 315.59 L 781.79 322.16 L 782.08 328.96 L 782.08 328.96 L 782.08 373.76 L 618.24 373.76 Z" fill="#e5f2fb" fill-rule="evenodd" group-id="3,8,19" id="形状结合" node-id="70" stroke="none" target-height="126.72002" target-width="163.84003" target-x="618.24" target-y="247.04"></path><path d="M 629.76 326.34 L 630.01 320.49 L 630.69 314.86 L 631.81 309.40 L 633.35 304.10 L 635.31 298.92 L 637.63 293.99 L 640.30 289.29 L 643.34 284.80 L 646.72 280.55 L 650.38 276.60 L 654.33 272.95 L 658.58 269.57 L 663.08 266.54 L 667.78 263.86 L 672.72 261.55 L 677.91 259.59 L 683.21 258.05 L 688.67 256.93 L 694.31 256.25 L 700.16 256.00 L 706.01 256.25 L 711.65 256.93 L 717.11 258.05 L 722.41 259.59 L 727.60 261.55 L 732.54 263.86 L 737.24 266.54 L 741.74 269.57 L 745.99 272.95 L 749.94 276.60 L 753.60 280.55 L 756.98 284.80 L 760.02 289.29 L 762.69 293.99 L 765.01 298.92 L 766.97 304.10 L 768.51 309.40 L 769.63 314.86 L 770.31 320.49 L 770.56 326.34 L 770.56 326.34 L 770.56 373.70 L 629.76 373.70 Z" fill="#cce5f9" fill-rule="evenodd" group-id="3,8,20,36" node-id="270" stroke="none" target-height="117.70001" target-width="140.79999" target-x="629.76" target-y="256"></path><g clip-path="url(#mask-6)" group-id="3,8,20,37" node-id="273"><path d="M 629.76 407.04 L 630.00 401.30 L 630.68 395.76 L 631.77 390.40 L 633.28 385.19 L 635.21 380.10 L 637.49 375.25 L 640.11 370.63 L 643.10 366.22 L 646.41 362.04 L 650.00 358.16 L 653.88 354.57 L 658.06 351.26 L 662.47 348.27 L 667.09 345.65 L 671.94 343.37 L 677.03 341.44 L 682.24 339.93 L 687.60 338.84 L 693.14 338.16 L 698.88 337.92 L 704.62 338.16 L 710.16 338.84 L 715.52 339.93 L 720.73 341.44 L 725.82 343.37 L 730.67 345.65 L 735.29 348.27 L 739.70 351.26 L 743.88 354.57 L 747.76 358.16 L 751.35 362.04 L 754.66 366.22 L 757.65 370.63 L 760.27 375.25 L 762.55 380.10 L 764.48 385.19 L 765.99 390.40 L 767.08 395.76 L 767.76 401.30 L 768.00 407.04 L 767.76 412.78 L 767.08 418.32 L 765.99 423.68 L 764.48 428.89 L 762.55 433.98 L 760.27 438.83 L 757.65 443.45 L 754.66 447.86 L 751.35 452.04 L 747.76 455.92 L 743.88 459.51 L 739.70 462.82 L 735.29 465.81 L 730.67 468.43 L 725.82 470.71 L 720.73 472.64 L 715.52 474.15 L 710.16 475.24 L 704.62 475.92 L 698.88 476.16 L 693.14 475.92 L 687.60 475.24 L 682.24 474.15 L 677.03 472.64 L 671.94 470.71 L 667.09 468.43 L 662.47 465.81 L 658.06 462.82 L 653.88 459.51 L 650.00 455.92 L 646.41 452.04 L 643.10 447.86 L 640.11 443.45 L 637.49 438.83 L 635.21 433.98 L 633.28 428.89 L 631.77 423.68 L 630.68 418.32 L 630.00 412.78 L 629.76 407.04 Z" fill="#99cbf2" fill-rule="evenodd" group-id="3,8,20,37" id="椭圆形" node-id="75" stroke="none" target-height="138.23999" target-width="138.23999" target-x="629.76" target-y="337.92"></path></g><path d="M 615.68 372.48 L 784.64 372.48 L 787.04 372.81 L 789.16 373.70 L 790.98 375.10 L 792.38 376.92 L 793.27 379.04 L 793.60 381.44 L 793.60 381.44 L 793.27 383.84 L 792.38 385.96 L 790.98 387.78 L 789.16 389.18 L 787.04 390.07 L 784.64 390.40 L 615.68 390.40 L 613.28 390.07 L 611.16 389.18 L 609.34 387.78 L 607.94 385.96 L 607.04 383.84 L 606.72 381.44 L 606.72 381.44 L 607.04 379.04 L 607.94 376.92 L 609.34 375.10 L 611.16 373.70 L 613.28 372.81 L 615.68 372.48 Z" fill="#66b2ec" fill-rule="evenodd" group-id="3,8" id="矩形备份-40" node-id="76" stroke="none" target-height="17.919983" target-width="186.88" target-x="606.72" target-y="372.48"></path><path d="M 686.08 232.96 L 714.24 232.96 L 714.24 254.72 L 686.08 254.72 Z" fill="#e5f2fb" fill-rule="evenodd" group-id="3,8" id="矩形" node-id="77" stroke="none" target-height="21.759995" target-width="28.159973" target-x="686.08" target-y="232.96"></path><path d="M 700.16 224.00 L 700.16 224.00 L 701.67 224.31 L 702.88 225.12 L 703.69 226.33 L 704.00 227.84 L 704.00 291.84 L 703.69 293.35 L 702.88 294.56 L 701.67 295.37 L 700.16 295.68 L 700.16 295.68 L 698.65 295.37 L 697.44 294.56 L 696.63 293.35 L 696.32 291.84 L 696.32 227.84 L 696.63 226.33 L 697.44 225.12 L 698.65 224.31 L 700.16 224.00 Z" fill="#99cbf2" fill-rule="evenodd" group-id="3,8" id="矩形" node-id="78" stroke="none" target-height="71.67999" target-width="7.6799927" target-x="696.32" target-y="224"></path><path d="M 698.88 316.16 L 701.44 316.16 L 702.44 316.36 L 703.25 316.91 L 703.80 317.72 L 704.00 318.72 L 704.00 318.72 L 703.80 319.72 L 703.25 320.53 L 702.44 321.08 L 701.44 321.28 L 698.88 321.28 L 697.88 321.08 L 697.07 320.53 L 696.52 319.72 L 696.32 318.72 L 696.32 318.72 L 696.52 317.72 L 697.07 316.91 L 697.88 316.36 L 698.88 316.16 Z" fill="#99cbf2" fill-rule="evenodd" group-id="3,8" id="矩形" node-id="79" stroke="none" target-height="5.119995" target-width="7.6799927" target-x="696.32" target-y="316.16"></path><path d="M 700.16 298.24 L 700.16 298.24 L 701.67 298.55 L 702.88 299.36 L 703.69 300.57 L 704.00 302.08 L 704.00 302.08 L 703.69 303.59 L 702.88 304.80 L 701.67 305.61 L 700.16 305.92 L 700.16 305.92 L 698.65 305.61 L 697.44 304.80 L 696.63 303.59 L 696.32 302.08 L 696.32 302.08 L 696.63 300.57 L 697.44 299.36 L 698.65 298.55 L 700.16 298.24 Z" fill="#99cbf2" fill-rule="evenodd" group-id="3,8" id="矩形备份-43" node-id="80" stroke="none" target-height="7.680023" target-width="7.6799927" target-x="696.32" target-y="298.24"></path><path d="M 698.88 308.48 L 701.44 308.48 L 702.44 308.68 L 703.25 309.23 L 703.80 310.04 L 704.00 311.04 L 704.00 311.04 L 703.80 312.04 L 703.25 312.85 L 702.44 313.40 L 701.44 313.60 L 698.88 313.60 L 697.88 313.40 L 697.07 312.85 L 696.52 312.04 L 696.32 311.04 L 696.32 311.04 L 696.52 310.04 L 697.07 309.23 L 697.88 308.68 L 698.88 308.48 Z" fill="#99cbf2" fill-rule="evenodd" group-id="3,8" id="矩形备份-44" node-id="81" stroke="none" target-height="5.119995" target-width="7.6799927" target-x="696.32" target-y="308.48"></path><path d="M 698.24 323.84 L 702.08 323.84 L 702.83 323.99 L 703.44 324.40 L 703.85 325.01 L 704.00 325.76 L 704.00 325.76 L 703.85 326.51 L 703.44 327.12 L 702.83 327.53 L 702.08 327.68 L 698.24 327.68 L 697.49 327.53 L 696.88 327.12 L 696.47 326.51 L 696.32 325.76 L 696.32 325.76 L 696.47 325.01 L 696.88 324.40 L 697.49 323.99 L 698.24 323.84 Z" fill="#99cbf2" fill-rule="evenodd" group-id="3,8" id="矩形备份-41" node-id="82" stroke="none" target-height="3.8399963" target-width="7.6799927" target-x="696.32" target-y="323.84"></path><path d="M 697.60 330.24 L 702.72 330.24 L 703.22 330.34 L 703.63 330.61 L 703.90 331.02 L 704.00 331.52 L 704.00 331.52 L 703.90 332.02 L 703.63 332.43 L 703.22 332.70 L 702.72 332.80 L 697.60 332.80 L 697.10 332.70 L 696.69 332.43 L 696.42 332.02 L 696.32 331.52 L 696.32 331.52 L 696.42 331.02 L 696.69 330.61 L 697.10 330.34 L 697.60 330.24 Z" fill="#99cbf2" fill-rule="evenodd" group-id="3,8" id="矩形备份-42" node-id="83" stroke="none" target-height="2.5599976" target-width="7.6799927" target-x="696.32" target-y="330.24"></path><path d="M 865.28 696.32 C 865.28 788.22 790.78 862.72 698.88 862.72 C 606.98 862.72 532.48 788.22 532.48 696.32 C 532.48 604.42 606.98 529.92 698.88 529.92 C 790.78 529.92 865.28 604.42 865.28 696.32 Z" fill="#e5f2fb" fill-rule="evenodd" id="椭圆形备份" node-id="84" stroke="none" target-height="332.8" target-width="332.80005" target-x="532.48" target-y="529.92"></path><path d="M 614.95 634.33 L 739.29 540.63 L 741.22 539.45 L 743.21 538.65 L 745.28 538.23 L 747.40 538.17 L 749.46 538.46 L 751.48 539.10 L 753.36 540.08 L 755.06 541.39 L 756.58 543.06 L 808.57 612.06 L 809.76 613.98 L 810.55 615.97 L 810.97 618.04 L 811.03 620.17 L 810.75 622.22 L 810.10 624.25 L 809.12 626.12 L 807.81 627.82 L 806.14 629.34 L 681.80 723.04 L 679.87 724.22 L 677.89 725.02 L 675.81 725.44 L 673.69 725.50 L 671.63 725.21 L 669.61 724.57 L 667.73 723.59 L 666.04 722.28 L 664.52 720.61 L 612.53 651.61 L 611.34 649.69 L 610.54 647.70 L 610.12 645.63 L 610.06 643.50 L 610.35 641.45 L 610.99 639.42 L 611.97 637.55 L 613.28 635.85 L 614.95 634.33 Z" fill="#b7c0c7" fill-rule="evenodd" group-id="4,9,21,38" id="矩形" node-id="89" stroke="none" target-height="187.33002" target-width="200.97003" target-x="610.06" target-y="538.17"></path><path d="M 655.89 677.59 L 702.29 642.63 L 703.46 642.07 L 704.69 642.00 L 705.86 642.40 L 706.83 643.26 L 706.83 643.26 L 707.39 644.44 L 707.45 645.67 L 707.05 646.83 L 706.19 647.81 L 659.79 682.77 L 658.62 683.33 L 657.39 683.39 L 656.22 682.99 L 655.25 682.13 L 655.25 682.13 L 654.69 680.96 L 654.63 679.73 L 655.03 678.56 L 655.89 677.59 Z" fill="#cccccc" fill-rule="evenodd" group-id="4,9,21,38" id="矩形" node-id="90" stroke="none" target-height="41.390015" target-width="52.820007" target-x="654.63" target-y="642"></path><path d="M 664.67 689.25 L 724.91 643.85 L 726.08 643.29 L 727.31 643.23 L 728.48 643.63 L 729.45 644.49 L 729.45 644.49 L 730.01 645.66 L 730.07 646.89 L 729.67 648.06 L 728.81 649.03 L 668.57 694.43 L 667.40 694.99 L 666.17 695.05 L 665.00 694.65 L 664.03 693.79 L 664.03 693.79 L 663.47 692.62 L 663.41 691.39 L 663.81 690.22 L 664.67 689.25 Z" fill="#cccccc" fill-rule="evenodd" group-id="4,9,21,38" id="矩形备份-45" node-id="91" stroke="none" target-height="51.820007" target-width="66.660034" target-x="663.41" target-y="643.23"></path><path d="M 673.45 700.90 L 733.69 655.51 L 734.87 654.95 L 736.10 654.89 L 737.26 655.29 L 738.24 656.15 L 738.24 656.15 L 738.79 657.32 L 738.86 658.55 L 738.46 659.71 L 737.60 660.69 L 677.36 706.08 L 676.18 706.64 L 674.95 706.70 L 673.79 706.30 L 672.81 705.44 L 672.81 705.44 L 672.26 704.27 L 672.19 703.04 L 672.59 701.87 L 673.45 700.90 Z" fill="#cccccc" fill-rule="evenodd" group-id="4,9,21,38" id="矩形备份-46" node-id="92" stroke="none" target-height="51.809998" target-width="66.66998" target-x="672.19" target-y="654.89"></path><path d="M 777.40 616.82 L 778.68 618.89 L 779.53 621.03 L 779.99 623.27 L 780.06 625.55 L 779.74 627.77 L 779.05 629.95 L 778.00 631.97 L 776.59 633.79 L 774.78 635.43 L 772.71 636.71 L 770.57 637.57 L 768.34 638.02 L 766.05 638.09 L 763.84 637.78 L 761.66 637.08 L 759.63 636.03 L 757.81 634.62 L 756.17 632.82 L 754.89 630.74 L 754.04 628.60 L 753.58 626.37 L 753.52 624.08 L 753.83 621.87 L 754.52 619.69 L 755.58 617.67 L 756.99 615.84 L 758.79 614.20 L 760.86 612.92 L 763.00 612.07 L 765.24 611.62 L 767.52 611.55 L 769.74 611.86 L 771.91 612.55 L 773.94 613.61 L 775.76 615.02 L 777.40 616.82 Z" fill="#f15454" fill-rule="evenodd" group-id="4,9,21,39" id="椭圆形" node-id="94" stroke="none" target-height="26.54004" target-width="26.539978" target-x="753.52" target-y="611.55"></path><path d="M 788.01 608.82 L 789.29 610.89 L 790.15 613.03 L 790.60 615.27 L 790.67 617.55 L 790.36 619.77 L 789.66 621.95 L 788.61 623.97 L 787.20 625.79 L 785.40 627.43 L 783.33 628.71 L 781.19 629.57 L 778.95 630.02 L 776.67 630.09 L 774.45 629.78 L 772.27 629.08 L 770.25 628.03 L 768.43 626.62 L 766.79 624.82 L 765.51 622.74 L 764.65 620.60 L 764.20 618.37 L 764.13 616.08 L 764.44 613.87 L 765.14 611.69 L 766.19 609.67 L 767.60 607.84 L 769.40 606.20 L 771.48 604.92 L 773.62 604.07 L 775.85 603.62 L 778.14 603.55 L 780.35 603.86 L 782.53 604.56 L 784.55 605.61 L 786.37 607.02 L 788.01 608.82 Z" fill="#e7aa13" fill-rule="evenodd" group-id="4,9,21,39" id="椭圆形备份-16" node-id="95" stroke="none" target-height="26.54004" target-width="26.539978" target-x="764.13" target-y="603.55"></path><path d="M 569.53 653.70 L 671.67 536.19 L 673.30 534.63 L 675.08 533.44 L 677.03 532.60 L 679.09 532.10 L 681.16 531.95 L 683.27 532.16 L 685.31 532.73 L 687.24 533.66 L 689.08 534.98 L 754.28 591.65 L 755.84 593.29 L 757.03 595.07 L 757.87 597.01 L 758.38 599.07 L 758.52 601.15 L 758.31 603.26 L 757.74 605.30 L 756.81 607.23 L 755.50 609.06 L 653.35 726.57 L 651.72 728.13 L 649.94 729.32 L 647.99 730.16 L 645.93 730.66 L 643.86 730.81 L 641.75 730.60 L 639.71 730.03 L 637.78 729.10 L 635.94 727.78 L 570.74 671.11 L 569.18 669.47 L 567.99 667.69 L 567.15 665.75 L 566.65 663.69 L 566.50 661.61 L 566.71 659.50 L 567.28 657.46 L 568.21 655.53 L 569.53 653.70 Z" fill="#cccccc" fill-rule="nonzero" group-id="4,9,22" id="矩形" node-id="97" stroke="none" target-height="198.85999" target-width="192.02002" target-x="566.5" target-y="531.95"></path><path d="M 580.06 679.20 L 698.39 543.07 L 710.57 553.66 L 592.24 689.79 Z" fill="#243762" fill-rule="evenodd" group-id="4,9,22" id="矩形" node-id="98" stroke="none" target-height="146.71997" target-width="130.51001" target-x="580.06" target-y="543.07"></path><path d="M 618.62 686.94 L 656.61 643.23 L 657.67 642.42 L 658.89 642.10 L 660.14 642.25 L 661.30 642.90 L 661.30 642.90 L 662.11 643.96 L 662.43 645.18 L 662.28 646.43 L 661.63 647.59 L 623.63 691.30 L 622.58 692.11 L 621.36 692.43 L 620.10 692.28 L 618.95 691.62 L 618.95 691.62 L 618.14 690.57 L 617.81 689.35 L 617.96 688.09 L 618.62 686.94 Z" fill="#cccccc" fill-rule="evenodd" group-id="4,9,22" id="矩形" node-id="99" stroke="none" target-height="50.330017" target-width="44.619995" target-x="617.81" target-y="642.1"></path><path d="M 630.08 696.90 L 679.28 640.30 L 680.34 639.49 L 681.56 639.17 L 682.81 639.32 L 683.97 639.97 L 683.97 639.97 L 684.78 641.03 L 685.11 642.25 L 684.95 643.50 L 684.30 644.66 L 635.10 701.26 L 634.04 702.07 L 632.82 702.40 L 631.57 702.24 L 630.41 701.59 L 630.41 701.59 L 629.60 700.53 L 629.27 699.31 L 629.43 698.06 L 630.08 696.90 Z" fill="#cccccc" fill-rule="evenodd" group-id="4,9,22" id="矩形备份-45" node-id="100" stroke="none" target-height="63.23004" target-width="55.839966" target-x="629.27" target-y="639.17"></path><path d="M 640.83 706.24 L 690.03 649.64 L 691.09 648.83 L 692.31 648.51 L 693.56 648.66 L 694.72 649.32 L 694.72 649.32 L 695.53 650.37 L 695.85 651.59 L 695.70 652.85 L 695.05 654.00 L 645.84 710.60 L 644.79 711.41 L 643.57 711.74 L 642.31 711.59 L 641.16 710.93 L 641.16 710.93 L 640.35 709.88 L 640.02 708.66 L 640.17 707.40 L 640.83 706.24 Z" fill="#cccccc" fill-rule="evenodd" group-id="4,9,22" id="矩形备份-46" node-id="101" stroke="none" target-height="63.22998" target-width="55.829956" target-x="640.02" target-y="648.51"></path><path d="M 587.06 631.31 L 790.22 631.31 L 793.74 631.55 L 797.05 632.22 L 800.20 633.32 L 803.17 634.82 L 805.88 636.64 L 808.34 638.81 L 810.51 641.28 L 812.34 643.99 L 813.84 646.96 L 814.93 650.10 L 815.61 653.42 L 815.85 656.94 L 815.85 790.79 L 815.61 794.32 L 814.93 797.63 L 813.84 800.77 L 812.34 803.75 L 810.51 806.46 L 808.34 808.92 L 805.88 811.09 L 803.17 812.92 L 800.20 814.41 L 797.05 815.51 L 793.74 816.18 L 790.22 816.43 L 587.06 816.43 L 583.54 816.18 L 580.23 815.51 L 577.08 814.41 L 574.11 812.92 L 571.40 811.09 L 568.94 808.92 L 566.77 806.46 L 564.94 803.75 L 563.44 800.77 L 562.35 797.63 L 561.67 794.32 L 561.43 790.79 L 561.43 656.94 L 561.67 653.42 L 562.35 650.10 L 563.44 646.96 L 564.94 643.99 L 566.77 641.28 L 568.94 638.81 L 571.40 636.64 L 574.11 634.82 L 577.08 633.32 L 580.23 632.22 L 583.54 631.55 L 587.06 631.31 Z" fill="#cce5f9" fill-rule="evenodd" group-id="4,9" id="矩形" node-id="102" stroke="none" target-height="185.12" target-width="254.41998" target-x="561.43" target-y="631.31"></path><path d="M 600.35 642.70 L 776.93 642.70 L 780.45 642.94 L 783.76 643.62 L 786.91 644.71 L 789.88 646.21 L 792.59 648.04 L 795.05 650.21 L 797.22 652.67 L 799.05 655.38 L 800.55 658.35 L 801.64 661.50 L 802.32 664.81 L 802.56 668.33 L 802.56 779.40 L 802.32 782.92 L 801.64 786.24 L 800.55 789.38 L 799.05 792.36 L 797.22 795.06 L 795.05 797.53 L 792.59 799.70 L 789.88 801.52 L 786.91 803.02 L 783.76 804.12 L 780.45 804.79 L 776.93 805.03 L 600.35 805.03 L 596.83 804.79 L 593.52 804.12 L 590.37 803.02 L 587.40 801.52 L 584.69 799.70 L 582.23 797.53 L 580.06 795.06 L 578.23 792.36 L 576.73 789.38 L 575.64 786.24 L 574.96 782.92 L 574.72 779.40 L 574.72 668.33 L 574.96 664.81 L 575.64 661.50 L 576.73 658.35 L 578.23 655.38 L 580.06 652.67 L 582.23 650.21 L 584.69 648.04 L 587.40 646.21 L 590.37 644.71 L 593.52 643.62 L 596.83 642.94 L 600.35 642.70 Z" fill="none" group-id="4,9" id="矩形" node-id="103" stroke="#99cbf2" stroke-dasharray="3.7973332 3.7973332" stroke-linecap="butt" stroke-width="0.9493333" target-height="162.33002" target-width="227.84003" target-x="574.72" target-y="642.7"></path><path d="M 777.88 723.39 L 777.62 727.04 L 776.93 730.48 L 775.79 733.74 L 774.24 736.82 L 772.34 739.63 L 770.09 742.19 L 767.54 744.44 L 764.73 746.33 L 761.64 747.88 L 758.38 749.02 L 754.95 749.72 L 751.30 749.97 L 747.64 749.72 L 744.21 749.02 L 740.95 747.88 L 737.86 746.33 L 735.06 744.44 L 732.50 742.19 L 730.25 739.63 L 728.36 736.82 L 726.80 733.74 L 725.67 730.48 L 724.97 727.04 L 724.71 723.39 L 724.97 719.74 L 725.67 716.30 L 726.80 713.05 L 728.36 709.96 L 730.25 707.15 L 732.50 704.60 L 735.06 702.35 L 737.86 700.45 L 740.95 698.90 L 744.21 697.76 L 747.64 697.06 L 751.30 696.81 L 754.95 697.06 L 758.38 697.76 L 761.64 698.90 L 764.73 700.45 L 767.54 702.35 L 770.09 704.60 L 772.34 707.15 L 774.24 709.96 L 775.79 713.05 L 776.93 716.30 L 777.62 719.74 L 777.88 723.39 Z" fill="#99cbf2" fill-rule="evenodd" group-id="4,9" id="椭圆形" node-id="104" stroke="none" target-height="53.159973" target-width="53.169983" target-x="724.71" target-y="696.81"></path><path d="M 751.30 696.81 L 815.85 696.81 L 815.85 749.97 L 751.30 749.97 Z" fill="#99cbf2" fill-rule="evenodd" group-id="4,9" id="矩形" node-id="105" stroke="none" target-height="53.159973" target-width="64.54999" target-x="751.3" target-y="696.81"></path><path d="M 758.89 723.39 L 758.62 725.43 L 757.85 727.23 L 756.67 728.76 L 755.13 729.95 L 753.33 730.71 L 751.30 730.99 L 749.26 730.71 L 747.46 729.95 L 745.93 728.76 L 744.74 727.23 L 743.98 725.43 L 743.70 723.39 L 743.98 721.36 L 744.74 719.56 L 745.93 718.02 L 747.46 716.83 L 749.26 716.07 L 751.30 715.80 L 753.33 716.07 L 755.13 716.83 L 756.67 718.02 L 757.85 719.56 L 758.62 721.36 L 758.89 723.39 Z" fill="#ffffff" fill-rule="evenodd" group-id="4,9" id="椭圆形" node-id="106" stroke="none" target-height="15.190002" target-width="15.190002" target-x="743.7" target-y="715.8"></path><path d="M 587.06 631.31 L 790.22 631.31 L 793.74 631.55 L 797.05 632.22 L 800.20 633.32 L 803.17 634.82 L 805.88 636.64 L 808.34 638.81 L 810.51 641.28 L 812.34 643.99 L 813.84 646.96 L 814.93 650.10 L 815.61 653.42 L 815.85 656.94 L 815.85 790.79 L 815.61 794.32 L 814.93 797.63 L 813.84 800.77 L 812.34 803.75 L 810.51 806.46 L 808.34 808.92 L 805.88 811.09 L 803.17 812.92 L 800.20 814.41 L 797.05 815.51 L 793.74 816.18 L 790.22 816.43 L 587.06 816.43 L 583.54 816.18 L 580.23 815.51 L 577.08 814.41 L 574.11 812.92 L 571.40 811.09 L 568.94 808.92 L 566.77 806.46 L 564.94 803.75 L 563.44 800.77 L 562.35 797.63 L 561.67 794.32 L 561.43 790.79 L 561.43 656.94 L 561.67 653.42 L 562.35 650.10 L 563.44 646.96 L 564.94 643.99 L 566.77 641.28 L 568.94 638.81 L 571.40 636.64 L 574.11 634.82 L 577.08 633.32 L 580.23 632.22 L 583.54 631.55 L 587.06 631.31 Z" fill="#99cbf2" fill-rule="evenodd" group-id="4,9" id="矩形备份-49" node-id="107" stroke="none" target-height="185.12" target-width="254.41998" target-x="561.43" target-y="631.31"></path><path d="M 779.78 640.80 L 597.50 640.80 L 594.11 641.04 L 590.92 641.68 L 587.90 642.74 L 585.03 644.18 L 582.42 645.94 L 580.05 648.03 L 577.96 650.40 L 576.20 653.01 L 574.76 655.88 L 573.71 658.90 L 573.06 662.09 L 572.82 665.48 L 572.82 782.25 L 573.06 785.64 L 573.71 788.83 L 574.76 791.86 L 576.20 794.72 L 577.96 797.33 L 580.05 799.70 L 582.42 801.79 L 585.03 803.55 L 587.90 804.99 L 590.92 806.05 L 594.11 806.70 L 597.50 806.93 L 779.78 806.93 L 783.17 806.70 L 786.36 806.05 L 789.38 804.99 L 792.25 803.55 L 794.86 801.79 L 797.23 799.70 L 799.32 797.33 L 801.08 794.72 L 802.52 791.86 L 803.57 788.83 L 804.22 785.64 L 804.46 782.25 L 804.46 665.48 L 804.22 662.09 L 803.57 658.90 L 802.52 655.88 L 801.08 653.01 L 799.32 650.40 L 797.23 648.03 L 794.86 645.94 L 792.25 644.18 L 789.38 642.74 L 786.36 641.68 L 783.17 641.04 L 779.78 640.80 Z M 597.50 644.60 L 779.78 644.60 L 782.67 644.81 L 785.37 645.35 L 787.91 646.23 L 790.32 647.45 L 793.25 649.52 L 795.73 652.01 L 797.81 654.94 L 799.02 657.35 L 799.90 659.89 L 800.45 662.59 L 800.66 665.48 L 800.66 782.25 L 800.45 785.14 L 799.90 787.85 L 799.02 790.39 L 797.81 792.79 L 795.73 795.72 L 793.25 798.21 L 790.32 800.28 L 787.91 801.50 L 785.37 802.38 L 782.67 802.93 L 779.78 803.14 L 597.50 803.14 L 594.61 802.93 L 591.91 802.38 L 589.37 801.50 L 586.96 800.28 L 584.03 798.21 L 581.55 795.72 L 579.47 792.79 L 578.26 790.39 L 577.38 787.85 L 576.83 785.14 L 576.62 782.25 L 576.62 665.48 L 576.83 662.59 L 577.38 659.89 L 578.26 657.35 L 579.47 654.94 L 581.55 652.01 L 584.03 649.52 L 586.96 647.45 L 589.37 646.23 L 591.91 645.35 L 594.61 644.81 L 597.50 644.60 Z" fill="#66b2ec" fill-rule="evenodd" group-id="4,9" id="矩形备份-48" node-id="108" stroke="none" target-height="166.13" target-width="231.64001" target-x="572.82" target-y="640.8"></path><path d="M 777.88 723.39 L 777.62 727.04 L 776.93 730.48 L 775.79 733.74 L 774.24 736.82 L 772.34 739.63 L 770.09 742.19 L 767.54 744.44 L 764.73 746.33 L 761.64 747.88 L 758.38 749.02 L 754.95 749.72 L 751.30 749.97 L 747.64 749.72 L 744.21 749.02 L 740.95 747.88 L 737.86 746.33 L 735.06 744.44 L 732.50 742.19 L 730.25 739.63 L 728.36 736.82 L 726.80 733.74 L 725.67 730.48 L 724.97 727.04 L 724.71 723.39 L 724.97 719.74 L 725.67 716.30 L 726.80 713.05 L 728.36 709.96 L 730.25 707.15 L 732.50 704.60 L 735.06 702.35 L 737.86 700.45 L 740.95 698.90 L 744.21 697.76 L 747.64 697.06 L 751.30 696.81 L 754.95 697.06 L 758.38 697.76 L 761.64 698.90 L 764.73 700.45 L 767.54 702.35 L 770.09 704.60 L 772.34 707.15 L 774.24 709.96 L 775.79 713.05 L 776.93 716.30 L 777.62 719.74 L 777.88 723.39 Z" fill="#cce5f9" fill-rule="evenodd" group-id="4,9" id="椭圆形备份-18" node-id="109" stroke="none" target-height="53.159973" target-width="53.169983" target-x="724.71" target-y="696.81"></path><path d="M 751.30 696.81 L 815.85 696.81 L 815.85 749.97 L 751.30 749.97 Z" fill="#cce5f9" fill-rule="evenodd" group-id="4,9" id="矩形备份-47" node-id="110" stroke="none" target-height="53.159973" target-width="64.54999" target-x="751.3" target-y="696.81"></path><path d="M 758.89 723.39 L 758.62 725.43 L 757.85 727.23 L 756.67 728.76 L 755.13 729.95 L 753.33 730.71 L 751.30 730.99 L 749.26 730.71 L 747.46 729.95 L 745.93 728.76 L 744.74 727.23 L 743.98 725.43 L 743.70 723.39 L 743.98 721.36 L 744.74 719.56 L 745.93 718.02 L 747.46 716.83 L 749.26 716.07 L 751.30 715.80 L 753.33 716.07 L 755.13 716.83 L 756.67 718.02 L 757.85 719.56 L 758.62 721.36 L 758.89 723.39 Z" fill="#ffffff" fill-rule="evenodd" group-id="4,9" id="椭圆形备份-17" node-id="111" stroke="none" target-height="15.190002" target-width="15.190002" target-x="743.7" target-y="715.8"></path></svg>